<svg width="120" height="120" viewBox="0 0 120 120" fill="none" xmlns="http://www.w3.org/2000/svg">
<path d="M58.5937 0C58.5937 0 58.9062 0 59.0625 0C63.4375 6.88096e-07 60.625 3.00963e-05 64.8969 0.221959C67.5466 0.359615 70.1531 0.834701 72.7531 1.38179C96.8063 6.42751 115.822 26.8042 119.309 51.2482C119.503 52.6049 120 57.0754 120 58.773C120 61.9773 120 59.789 120 62.9934C120 63.4591 119.731 65.3787 119.709 65.6194C118.809 74.7167 116.144 83.2575 111.291 91.0168C101.387 106.854 87.2156 116.364 68.7312 119.359C67.3 119.59 64.5312 120 62.6562 120C59.5312 120 59.5312 120 56.4062 120C55.7812 120 54.6 119.781 54.3563 119.756C51.525 119.453 48.7125 119.025 45.9469 118.346C22.0344 112.488 4.29062 93.052 0.634375 68.7581C0.440625 67.4795 0 64.2497 0 62.7397C0 59.4572 0 60.6487 0 57.3662C0 55.8031 0.21875 54.6213 0.24375 54.3775C0.521875 51.739 0.903125 49.1129 1.51562 46.5307C7.27812 22.2524 26.5844 4.44549 51.2344 0.634623C52.5094 0.437671 55.625 0 58.5937 0ZM3.99375 59.9891C3.9875 90.8699 29.1156 116.02 59.9594 116.008C90.8156 115.995 115.944 90.8636 115.962 59.9953C115.981 29.1239 90.8594 3.99218 59.9813 3.99218C29.1062 3.99218 4 29.1051 3.99375 59.9891Z" fill="#F7CA18"/>
<path d="M7.97852 59.8547C8.18789 48.0595 11.7535 37.5429 18.8441 28.2455C20.4629 26.1259 23.091 25.9446 25.0535 27.8641C27.5379 30.2931 29.9754 32.7691 32.4316 35.2263C52.1973 54.9997 71.9566 74.7762 91.7285 94.5401C92.9285 95.7406 93.7035 97.038 93.2879 98.8106C93.0629 99.7672 92.5535 100.514 91.7816 101.105C83.4816 107.451 74.1535 111.2 63.7097 111.816C46.1879 112.847 31.6379 106.592 20.2441 93.2834C12.0191 83.6734 8.08477 72.3784 7.97852 59.8547ZM38.7973 47.1779C38.1941 48.1626 37.9848 49.0724 37.9848 50.0134C37.9785 58.9512 37.7723 67.8953 38.0598 76.8238C38.3254 85.0396 42.391 91.2013 49.516 95.328C50.216 95.7312 50.6848 95.7281 51.3098 95.1279C55.7441 90.8825 57.9722 85.7179 57.966 79.5812C57.9629 75.5233 57.9472 71.4624 57.9816 67.4045C57.9879 66.6761 57.7597 66.1759 57.2504 65.6695C52.1816 60.6394 47.1379 55.5843 42.091 50.5323C41.0223 49.46 39.966 48.369 38.7973 47.1779ZM21.0441 87.7656C21.916 86.8027 22.591 85.7086 23.266 84.6206C25.7848 80.5503 29.1004 77.324 33.3566 75.1044C33.8473 74.8481 34.0004 74.5511 33.9941 74.0165C33.966 71.6343 33.9535 69.249 34.0004 66.8699C34.016 66.1228 33.7473 66.0571 33.1191 66.1665C31.2629 66.4823 29.4785 67.0012 27.7879 67.8328C24.8723 69.2709 21.7754 69.9618 18.5348 70.0149C16.9785 70.0399 16.0191 69.2709 15.9879 68.0392C15.9566 66.8074 16.8785 66.0478 18.4566 66.0134C21.1035 65.9571 23.6316 65.4163 26.0191 64.2439C28.3098 63.1154 30.7285 62.3869 33.2754 62.1431C33.816 62.0931 34.0004 61.9586 33.9941 61.3959C33.966 58.895 33.9754 56.3971 33.9879 53.8961C33.991 53.471 33.9191 53.1833 33.491 52.9645C28.6316 50.5073 25.1535 46.6558 22.3879 42.0384C21.2285 40.1001 19.7785 38.3525 18.1691 36.73C9.21602 52.0454 9.91914 72.9786 21.0441 87.7656ZM34.1879 79.256C31.7035 80.7222 29.7441 82.4854 28.1254 84.6144C26.6379 86.5683 25.4973 88.7691 23.9035 90.648C23.4879 91.1388 23.7973 91.3858 24.0848 91.714C26.0473 93.9524 28.1816 96.0095 30.5473 97.8102C41.0129 105.779 52.7691 109.152 65.8691 107.602C74.2941 106.604 81.8722 103.466 88.6972 98.4417C89.3566 97.9571 89.3097 97.7008 88.7629 97.1693C86.691 95.156 84.6379 93.124 82.641 91.0356C81.9754 90.3385 81.6941 90.2635 81.0722 91.1326C69.8754 106.779 46.141 105.21 37.0598 88.2408C35.5754 85.4678 34.6691 82.5011 34.1879 79.256ZM62.0004 70.4745C62.0004 73.954 61.9504 77.1146 62.0097 80.2721C62.1222 86.19 64.4191 91.1419 68.7285 95.1904C69.2754 95.7031 69.6722 95.7531 70.3254 95.3936C73.5597 93.6054 76.2035 91.1951 78.2879 88.1376C78.766 87.4374 78.6879 87.081 78.1066 86.5057C73.0316 81.4819 67.9941 76.4206 62.941 71.3717C62.7066 71.1341 62.4597 70.9122 62.0004 70.4745ZM34.0879 48.6722C34.3598 47.3373 34.6379 46.1181 35.3348 45.0771C35.7754 44.4174 35.6223 44.0391 35.091 43.5171C31.2816 39.7593 27.5129 35.9641 23.7254 32.1814C21.9254 30.3838 21.9348 30.3932 20.6191 32.6284C20.4098 32.9848 20.3504 33.1943 20.6723 33.5194C23.3785 36.2517 25.4816 39.4405 27.591 42.6386C29.2379 45.1364 31.4098 47.1279 34.0879 48.6722ZM65.2004 97.3131C62.9941 95.0716 61.3379 92.6238 59.9629 89.7476C58.6379 92.6832 56.891 95.0653 54.7722 97.3506C58.3472 98.1759 61.6785 98.2166 65.2004 97.3131Z" fill="#F7CA18"/>
<path d="M111.975 60.1517C111.8 71.8313 108.25 82.3573 101.159 91.6609C99.4498 93.9024 96.8217 93.9681 94.6998 91.8485C78.4904 75.6359 62.2842 59.4233 46.0748 43.2107C40.1373 37.2709 34.1998 31.3342 28.2654 25.3944C25.8529 22.981 26.0217 20.5644 28.7373 18.4855C48.1029 3.67966 75.7373 4.64566 94.0217 20.8301C103.669 29.3678 109.512 40.0345 111.456 52.7926C111.831 55.2248 111.981 57.6852 111.975 60.1517ZM66.681 28.2174C66.7654 28.3205 66.8592 28.3612 66.9467 28.2299C66.9529 28.2205 66.856 28.1392 66.8092 28.0923C66.7623 27.9485 66.7435 27.7891 66.6685 27.6609C63.6873 22.7715 56.2748 22.8028 53.2435 27.7172C53.1654 27.8454 52.8748 27.9048 53.1029 28.158C53.2779 28.3518 53.4217 28.2236 53.6029 28.2111C57.9623 27.8735 62.3217 27.8704 66.681 28.2174ZM85.8904 48.6848C89.0623 46.7871 91.4373 44.3143 93.2748 41.3006C94.8248 38.7621 96.5467 36.3393 98.6529 34.2416C99.5435 33.3538 99.5029 32.8161 98.7779 31.8782C87.2185 16.9505 72.0904 10.3104 53.3123 12.5019C45.231 13.4428 37.9404 16.6347 31.3904 21.4897C30.7435 21.9712 30.6154 22.215 31.2654 22.834C33.2435 24.7191 35.1498 26.6793 37.081 28.6144C39.2779 30.8184 41.4717 33.0255 43.7185 35.2826C44.481 34.0947 45.1373 32.9442 46.1498 32.1564C47.5279 31.0841 48.2467 29.768 48.7185 28.0767C49.5842 24.9661 51.756 22.7934 54.5592 21.2553C54.1435 20.5988 53.5935 20.1674 53.0279 19.7453C51.9685 18.9606 51.706 17.8539 52.331 16.9067C52.9748 15.9282 54.1748 15.75 55.3123 16.4847C56.1717 17.038 57.0185 17.6695 57.5248 18.5448C58.1967 19.7078 58.9904 20.2361 60.3935 20.0454C61.0529 19.9548 61.506 19.9423 61.8748 19.2951C62.5623 18.0915 63.5717 17.1599 64.7498 16.4284C65.8498 15.7469 67.0029 15.9313 67.6404 16.8692C68.2873 17.8164 68.0373 18.9544 66.9967 19.7141C66.4029 20.1486 65.8123 20.5769 65.4185 21.2709C68.9279 23.1998 71.0967 26.0853 71.7435 30.0556C71.7998 30.4089 72.0685 30.5683 72.3185 30.7559C75.2779 33.0005 77.081 35.961 77.7623 39.6031C77.8342 39.9939 77.9404 40.2033 78.3623 40.3221C82.5685 41.4882 84.981 44.3174 85.8904 48.6848ZM101.822 36.6957C100.012 38.5621 98.4623 40.5159 97.1717 42.6543C94.5373 47.0216 91.1217 50.5699 86.5592 52.9333C86.1154 53.1615 85.9592 53.4241 85.9654 53.9212C85.9904 56.3815 86.0029 58.8419 85.9592 61.2991C85.9467 61.9868 86.1967 62.0963 86.8123 62.1619C88.9154 62.3776 90.9842 62.8403 92.881 63.7782C95.7592 65.2006 98.7467 66.0415 101.975 66.0415C103.125 66.0415 103.925 66.8825 103.969 67.9329C104.012 68.9552 103.237 69.8462 102.119 69.99C101.659 70.0494 101.184 70.0244 100.715 69.9993C97.7248 69.8462 94.8654 69.1553 92.1685 67.8329C90.5123 67.02 88.7685 66.5074 86.9529 66.1854C86.2185 66.0572 85.9404 66.126 85.9529 66.9857C85.9967 70.2651 85.9748 73.5445 85.931 76.8239C85.9248 77.3678 86.1654 77.6836 86.5029 78.0181C90.0685 81.5726 93.6373 85.124 97.1779 88.7035C97.6935 89.2256 97.9435 89.335 98.4373 88.6473C107.415 76.1361 110.075 62.4245 106.269 47.4937C105.309 43.7203 103.794 40.1502 101.822 36.6957ZM81.981 73.4382C81.981 65.4851 82.0029 57.7977 81.9717 50.1072C81.956 46.6027 79.4029 44.0611 75.906 44.0329C71.5748 43.9986 67.2435 44.0454 62.9123 44.0048C62.106 43.9954 61.9592 44.2674 61.9717 44.9958C62.0123 47.4937 62.0123 49.9915 61.9717 52.4894C61.9592 53.2115 62.1779 53.7148 62.6904 54.2244C68.7779 60.2768 74.8435 66.3542 80.9154 72.4222C81.2092 72.716 81.5154 72.9943 81.981 73.4382ZM61.0529 40.022C64.956 40.022 68.8623 40.0064 72.7654 40.0345C73.4998 40.0408 73.8092 39.9657 73.5623 39.1029C72.5185 35.4577 68.9498 32.3721 65.156 32.1158C61.7279 31.8813 58.2779 31.8282 54.8592 32.1283C51.2967 32.4378 48.7217 34.4104 47.0748 37.5773C46.9373 37.843 46.6498 38.1681 46.9342 38.4276C47.6998 39.1341 48.2185 40.0939 49.5748 40.0564C53.3998 39.9532 57.2279 40.022 61.0529 40.022ZM52.8029 44.0236C54.5404 45.7586 56.2217 47.4343 57.9654 49.1724C57.9654 47.6062 57.9592 46.0337 57.9685 44.4644C57.9717 43.986 57.6467 44.0236 57.3373 44.0236C55.8279 44.0236 54.3185 44.0236 52.8029 44.0236Z" fill="#F7CA18"/>
</svg>
