<?xml version="1.0" standalone="no"?>
<!DOCTYPE svg PUBLIC "-//W3C//DTD SVG 20010904//EN"
 "http://www.w3.org/TR/2001/REC-SVG-20010904/DTD/svg10.dtd">
<svg version="1.0" xmlns="http://www.w3.org/2000/svg"
 width="528.000000pt" height="528.000000pt" viewBox="0 0 528.000000 528.000000"
 preserveAspectRatio="xMidYMid meet">
<metadata>
Created by potrace 1.14, written by Peter Selinger 2001-2017
</metadata>
<g transform="translate(0.000000,528.000000) scale(0.100000,-0.100000)"
fill="#000000" stroke="none">
<path d="M2429 5275 c-3 -2 -27 -6 -54 -9 -110 -11 -134 -14 -152 -20 -10 -3
-38 -8 -63 -11 -24 -4 -47 -8 -51 -10 -3 -2 -21 -7 -40 -10 -138 -23 -424
-126 -594 -213 -38 -19 -83 -42 -100 -50 -16 -9 -82 -49 -145 -91 -63 -42
-119 -78 -125 -80 -5 -2 -12 -7 -15 -10 -3 -4 -30 -26 -60 -50 -122 -95 -305
-273 -390 -378 -173 -214 -312 -448 -415 -698 -48 -117 -127 -390 -140 -485
-4 -24 -8 -47 -10 -50 -2 -3 -6 -33 -10 -67 -3 -34 -9 -72 -12 -85 -10 -40
-12 -470 -3 -533 5 -33 12 -85 16 -115 3 -30 7 -57 9 -60 2 -3 6 -26 10 -50 9
-65 61 -261 97 -365 56 -165 145 -354 237 -505 11 -19 24 -42 28 -50 3 -8 9
-17 13 -20 4 -3 25 -33 48 -66 43 -65 152 -205 187 -240 11 -12 43 -45 71 -75
68 -71 133 -132 219 -203 102 -84 98 -81 208 -155 172 -115 367 -214 552 -281
112 -40 118 -42 130 -45 6 -2 42 -12 80 -23 39 -11 86 -24 105 -28 19 -4 37
-8 40 -9 3 -1 25 -5 50 -9 25 -5 54 -10 65 -12 11 -2 38 -6 60 -8 111 -13 151
-18 158 -23 10 -6 349 -5 402 1 22 2 65 7 96 11 31 3 67 8 80 10 13 3 58 11
99 19 299 58 556 150 805 289 284 158 540 380 763 660 125 158 267 389 336
547 15 36 34 79 41 95 28 63 98 284 108 345 3 14 10 43 15 65 12 46 14 55 43
260 18 127 20 179 16 340 -3 105 -8 201 -11 215 -3 14 -8 48 -11 75 -6 50 -7
57 -19 130 -50 314 -227 745 -408 992 -21 29 -38 55 -38 58 0 4 -6 12 -12 19
-7 7 -24 28 -38 46 -75 99 -111 140 -231 261 -301 302 -678 530 -1076 648
-104 30 -320 78 -394 86 -24 3 -57 8 -74 11 -38 6 -490 15 -496 9z m450 -179
c41 -5 84 -10 95 -12 11 -2 38 -6 61 -10 57 -8 161 -31 225 -49 30 -8 64 -17
74 -20 83 -20 300 -108 415 -168 85 -45 235 -134 265 -158 6 -5 41 -31 78 -58
38 -28 74 -55 80 -61 47 -39 82 -71 148 -134 120 -116 183 -188 295 -338 19
-26 35 -52 35 -57 0 -6 4 -11 8 -11 5 0 14 -10 21 -22 6 -13 20 -36 30 -53 35
-55 158 -299 180 -360 13 -33 27 -69 31 -80 23 -54 79 -249 95 -330 5 -25 14
-81 20 -120 3 -16 7 -41 10 -55 8 -40 18 -219 19 -320 0 -309 -64 -637 -182
-925 -33 -82 -150 -303 -202 -385 -45 -69 -197 -271 -219 -290 -3 -3 -31 -32
-61 -65 -52 -56 -147 -147 -201 -190 -141 -116 -266 -201 -408 -279 -46 -25
-85 -46 -86 -46 -2 0 -36 -15 -77 -34 -72 -33 -244 -98 -255 -97 -2 0 -22 -7
-45 -15 -44 -16 -60 -20 -112 -30 -16 -2 -33 -7 -37 -10 -5 -3 -21 -7 -36 -9
-16 -2 -55 -9 -88 -15 -129 -26 -243 -34 -435 -33 -173 0 -226 5 -375 29 -49
9 -99 17 -111 19 -41 6 -217 57 -302 87 -376 132 -737 375 -998 669 -80 90
-98 112 -124 149 -13 19 -27 37 -30 40 -13 12 -91 132 -137 210 -106 182 -221
460 -249 604 -2 10 -8 33 -13 50 -6 17 -13 47 -16 66 -3 19 -8 42 -10 50 -2 8
-7 33 -10 55 -3 23 -8 52 -10 65 -27 136 -24 522 5 690 5 30 12 70 15 87 27
161 136 499 177 551 6 6 8 12 4 12 -13 0 187 357 213 380 4 3 26 32 51 65 124
167 268 314 457 466 54 44 228 159 240 159 7 0 13 4 13 9 0 14 275 145 395
189 164 60 281 89 500 127 17 2 66 7 110 11 44 3 81 7 82 8 6 5 315 -2 382 -8z"/>
<path d="M2567 4934 c-1 -1 -45 -4 -97 -8 -52 -3 -111 -9 -130 -12 -361 -54
-660 -168 -940 -355 -129 -87 -179 -132 -196 -181 -18 -49 -16 -78 9 -126 32
-62 2944 -2974 3001 -3000 37 -17 54 -19 119 -14 23 3 101 75 129 121 12 20
25 38 28 41 4 3 32 48 64 100 31 52 61 102 66 110 52 85 162 354 186 455 1 6
12 51 24 100 12 50 23 104 25 121 1 17 5 39 8 50 15 49 22 166 22 354 0 235
-7 298 -60 520 -2 8 -6 29 -10 45 -19 85 -94 284 -146 394 -130 268 -297 491
-525 701 -183 169 -384 298 -629 405 -22 9 -49 21 -60 26 -48 21 -253 84 -310
95 -97 19 -195 37 -220 39 -125 13 -351 25 -358 19z m288 -188 c526 -42 1018
-312 1405 -772 95 -112 98 -131 38 -196 -84 -90 -117 -135 -237 -318 -60 -91
-157 -193 -237 -248 l-59 -40 -20 61 c-45 133 -118 217 -233 269 -37 16 -73
33 -81 37 -8 4 -22 35 -32 69 -40 144 -125 270 -225 338 -13 9 -25 34 -33 67
-27 121 -116 251 -217 314 -24 15 -44 31 -44 35 0 8 17 25 58 59 37 32 50 57
46 89 -7 43 -13 50 -50 66 -33 14 -39 13 -80 -6 -40 -20 -144 -121 -144 -140
0 -12 -75 -23 -107 -15 -17 4 -45 28 -72 62 -49 62 -122 114 -153 108 -59 -12
-72 -25 -82 -81 -6 -31 6 -48 73 -107 37 -32 33 -42 -28 -79 -55 -33 -128
-115 -161 -182 -17 -32 -30 -66 -30 -74 0 -34 -54 -122 -107 -173 -31 -29 -68
-73 -82 -96 l-27 -43 -277 278 c-152 153 -277 284 -277 291 0 16 9 23 115 95
88 59 241 146 258 146 6 0 18 6 26 13 20 18 212 88 311 115 71 20 96 25 173
37 17 3 44 7 60 10 15 2 69 7 120 11 50 4 93 7 94 9 5 3 254 -4 318 -9z m-72
-539 c59 -27 141 -102 150 -137 3 -13 1 -18 -6 -13 -16 9 -457 12 -525 3 -29
-3 -55 -3 -58 2 -9 15 65 96 113 125 100 58 226 66 326 20z m131 -328 c101
-23 200 -93 258 -180 42 -63 67 -137 51 -147 -9 -5 -1023 -8 -1068 -3 -6 0
-28 17 -50 36 l-40 34 25 48 c13 26 50 74 81 105 75 76 143 105 264 115 39 3
71 6 73 8 9 8 364 -6 406 -16z m1611 -334 c67 -142 121 -300 141 -415 3 -14 7
-32 9 -40 2 -8 7 -37 11 -65 3 -27 8 -52 9 -56 10 -15 19 -171 19 -304 -1
-160 -5 -222 -24 -325 -7 -36 -13 -74 -15 -85 -8 -62 -65 -246 -110 -355 -66
-160 -248 -467 -283 -478 -14 -4 -493 469 -509 503 -7 15 -11 430 -4 479 1 8
68 4 109 -8 12 -3 31 -8 41 -10 10 -3 59 -22 107 -43 49 -21 91 -38 94 -38 3
0 10 -3 15 -6 17 -11 136 -38 200 -47 89 -11 144 -7 173 15 73 54 28 155 -66
152 -94 -3 -264 41 -372 95 -49 24 -132 51 -185 60 -16 2 -49 7 -72 11 -24 4
-43 12 -44 18 -1 7 -2 90 -3 185 -1 197 -11 174 104 244 142 88 279 235 412
445 42 66 57 86 115 151 24 26 43 52 43 57 1 21 34 -34 85 -140z m-1974 -201
c4 -139 3 -184 -3 -184 -4 0 -55 47 -113 105 l-105 104 63 3 c34 2 83 1 110 0
42 -4 47 -7 48 -28z m871 10 c66 -22 131 -86 153 -153 15 -47 17 -106 18 -567
0 -282 -2 -517 -6 -520 -10 -10 -846 827 -854 856 -7 20 -9 305 -4 382 1 23
11 23 350 21 239 -2 304 -6 343 -19z"/>
<path d="M922 4109 c-88 -44 -279 -351 -381 -613 -31 -79 -72 -207 -86 -266 0
-3 -5 -23 -10 -45 -4 -22 -9 -44 -11 -50 -23 -91 -48 -335 -47 -465 0 -65 10
-223 17 -270 2 -14 7 -45 10 -70 4 -25 9 -56 11 -70 3 -14 7 -34 9 -45 37
-193 161 -517 246 -645 9 -14 41 -63 71 -110 30 -47 61 -94 70 -105 179 -218
265 -307 421 -435 97 -80 111 -91 136 -103 12 -5 22 -14 22 -19 0 -4 4 -8 9
-8 5 0 37 -18 70 -40 33 -22 62 -40 65 -40 3 0 27 -13 53 -28 92 -54 350 -156
443 -176 14 -3 43 -10 65 -16 45 -11 200 -39 260 -47 67 -9 466 -9 540 0 39 5
84 10 100 12 17 2 41 6 55 9 14 4 38 9 54 11 46 9 176 45 241 67 145 50 366
150 373 169 2 5 9 9 14 9 34 0 296 187 321 229 25 43 29 109 8 156 -23 52
-2942 2975 -2999 3003 -52 26 -100 26 -150 1z m375 -451 c156 -156 283 -289
283 -298 0 -8 -11 -37 -25 -65 -13 -27 -25 -55 -25 -62 0 -6 -4 -23 -10 -38
l-10 -26 -57 42 c-90 65 -174 156 -253 275 -84 126 -170 239 -229 304 -22 25
-41 51 -41 58 0 22 52 92 68 92 9 0 143 -127 299 -282z m-427 -15 c43 -46 140
-176 140 -185 0 -22 135 -195 214 -274 82 -83 233 -194 263 -194 6 0 15 -10
19 -22 7 -22 9 -367 2 -373 -2 -2 -23 -6 -48 -10 -25 -3 -60 -10 -77 -15 -18
-4 -33 -7 -33 -5 0 5 -103 -34 -197 -74 -92 -40 -171 -60 -258 -67 -121 -10
-152 -26 -161 -83 -4 -23 2 -37 24 -62 25 -28 34 -32 83 -32 48 0 128 8 169
17 8 1 33 6 55 11 22 4 72 21 110 37 124 52 226 88 263 94 20 3 42 7 49 9 21
7 24 -11 25 -152 0 -246 8 -216 -71 -262 -153 -90 -265 -200 -389 -384 -48
-72 -92 -132 -97 -134 -15 -4 -137 191 -190 303 -81 169 -154 393 -170 524 -3
19 -7 44 -9 55 -14 58 -20 167 -20 315 0 169 5 243 24 340 6 30 13 69 15 85 8
57 66 249 101 332 46 112 112 243 123 243 4 0 23 -16 41 -37z m1268 -826 c401
-401 412 -414 413 -452 3 -152 -1 -595 -6 -642 -14 -132 -54 -253 -121 -364
-67 -110 -167 -219 -202 -219 -35 0 -168 91 -253 172 -59 57 -149 168 -149
184 0 3 -8 18 -19 32 -44 64 -89 212 -107 352 -4 30 -8 325 -8 655 -2 505 1
608 13 648 8 26 17 47 21 47 3 0 191 -186 418 -413z m1306 -1333 c-25 -67
-184 -229 -293 -299 -97 -62 -95 -61 -152 -8 -118 110 -234 317 -254 454 -3
19 -8 50 -11 69 -7 42 -11 489 -5 509 2 8 148 -131 363 -346 294 -295 357
-363 352 -379z m-1921 339 c8 -28 19 -76 23 -103 16 -90 91 -262 159 -363 58
-87 166 -201 250 -264 69 -52 250 -158 265 -156 3 0 16 -4 30 -9 37 -14 165
-47 219 -55 60 -9 273 -10 331 -1 93 15 114 20 184 43 212 69 408 207 541 379
37 48 54 66 63 66 15 0 312 -306 312 -321 0 -22 -211 -159 -355 -229 -110 -54
-322 -133 -387 -144 -15 -2 -31 -7 -35 -9 -8 -5 -176 -35 -241 -43 -71 -9
-378 -11 -447 -4 -260 29 -435 78 -671 186 -117 53 -333 189 -444 279 -55 44
-240 231 -246 248 -4 14 50 105 76 127 4 3 9 12 12 20 10 25 118 171 161 218
41 43 175 151 189 152 4 0 9 -8 11 -17z m1127 -452 c0 -18 82 -148 139 -221
61 -77 67 -93 41 -97 -144 -23 -269 -22 -375 1 -11 2 -26 5 -34 5 -8 1 -2 13
18 31 37 36 151 199 177 253 16 34 34 49 34 28z"/>
</g>
</svg>
