<svg width="44" height="44" viewBox="0 0 44 44" fill="none" xmlns="http://www.w3.org/2000/svg">
<g clip-path="url(#clip0_57_47)">
<path d="M43.9988 14.3886C43.9041 14.4898 43.7997 14.5834 43.7157 14.6932C37.3468 23.0502 30.9797 31.4075 24.6144 39.7652C24.5148 39.9085 24.391 40.0334 24.2485 40.1343C24.684 38.7446 25.1206 37.3549 25.5583 35.9652C27.7824 28.9183 30.0008 21.8703 32.2134 14.8213C32.3372 14.4252 32.4986 14.2982 32.9151 14.2993C36.6097 14.3155 40.3042 14.3047 43.9998 14.2993L43.9988 14.3886Z" fill="#F7CA18"/>
<path d="M21.9498 41.6636C19.08 32.569 16.2102 23.4609 13.3403 14.3391H30.667L22.0575 41.6657L21.9498 41.6636Z" fill="#F7CA18"/>
<path d="M0 14.3101H0.489665C4.05508 14.3101 7.61942 14.3101 11.1848 14.3026C11.5077 14.3026 11.6551 14.3919 11.7552 14.7083C14.3847 23.0811 17.0199 31.4513 19.6609 39.8191C19.6943 39.9267 19.7158 40.0343 19.7685 40.2711C13.151 31.5776 6.61211 22.9875 0 14.3101Z" fill="#F7CA18"/>
<path d="M14.3081 12.6463L21.9491 4.98706L29.59 12.6463H14.3081Z" fill="#F7CA18"/>
<path d="M7.93701 4.52539H19.8547L12.3268 12.0652C10.9033 9.61935 9.44009 7.10609 7.93701 4.52539Z" fill="#F7CA18"/>
<path d="M24.0625 4.52002H36.0674L31.6464 12.1168C29.1109 9.57811 26.6034 7.07059 24.0625 4.52002Z" fill="#F7CA18"/>
<path d="M6.39702 5.11194L10.7846 12.6517H0.130371L6.39702 5.11194Z" fill="#F7CA18"/>
<path d="M43.8848 12.6561H33.2197L37.6063 5.11304L43.8848 12.6561Z" fill="#F7CA18"/>
</g>
<defs>
<clipPath id="clip0_57_47">
<rect width="44" height="44" fill="white"/>
</clipPath>
</defs>
</svg>
