<svg width="50" height="50" viewBox="0 0 50 50" fill="none" xmlns="http://www.w3.org/2000/svg">
<path d="M23.6613 45.9902H22.6208C21.7845 45.7766 21.0284 45.4361 20.4017 44.8084C15.675 40.0627 10.944 35.3241 6.20865 30.5927C5.89665 30.2831 5.63279 29.9287 5.42585 29.5411C4.63343 28.022 4.9628 26.3278 6.28137 25.0147C12.3634 18.9288 18.444 12.8437 24.5232 6.75934C25.337 5.94159 26.1754 5.21565 27.3486 5H42.7127C42.7858 5.02785 42.8604 5.05173 42.9362 5.07152C44.3788 5.38539 45.3284 6.25438 45.8236 7.63368C45.8984 7.84719 45.9423 8.0607 46 8.28062V23.6535C45.8054 24.554 45.3515 25.378 44.6943 26.0246C38.6129 32.0848 32.543 38.1546 26.4845 44.234C25.6718 45.056 24.8355 45.7798 23.6613 45.9902ZM25.5381 26.6939C28.0704 26.6939 30.6031 26.6939 33.1362 26.6939C33.9479 26.6939 34.489 26.1014 34.3991 25.3381C34.3243 24.6976 33.8131 24.2951 33.0624 24.2951H17.9475C17.8544 24.2907 17.7611 24.2932 17.6684 24.3026C17.1978 24.372 16.8481 24.6111 16.676 25.0638C16.5921 25.2625 16.5661 25.4808 16.6009 25.6936C16.6357 25.9064 16.7299 26.1051 16.8727 26.2669C17.1476 26.6 17.5144 26.7025 17.9421 26.7025C20.4734 26.6939 23.0057 26.6939 25.5381 26.6939ZM29.2682 32.7673C29.2694 32.2736 29.1731 31.7846 28.9847 31.3281C28.7963 30.8717 28.5195 30.4568 28.1702 30.1073C27.8209 29.7578 27.406 29.4806 26.9492 29.2915C26.4924 29.1024 26.0027 29.0051 25.5081 29.0052C25.0104 29.0034 24.5172 29.1002 24.0572 29.2902C23.5972 29.4801 23.1796 29.7594 22.8286 30.1118C22.4776 30.4642 22.2002 30.8826 22.0125 31.3429C21.8249 31.8031 21.7306 32.296 21.7353 32.7929C21.7409 33.7898 22.1418 34.7439 22.8503 35.4465C23.5587 36.1491 24.517 36.5431 25.5156 36.5422C26.5142 36.5369 27.4699 36.1365 28.1733 35.4289C28.8767 34.7213 29.2704 33.7642 29.2682 32.7673ZM25.4889 21.9796C25.9832 21.9825 26.4732 21.8882 26.9309 21.702C27.3886 21.5157 27.8051 21.2413 28.1565 20.8943C28.5079 20.5472 28.7873 20.1345 28.9788 19.6796C29.1703 19.2247 29.27 18.7365 29.2724 18.2431C29.2807 17.2463 28.8929 16.2868 28.194 15.5749C27.495 14.863 26.5419 14.4566 25.5434 14.4447C25.0454 14.4402 24.5514 14.5342 24.0899 14.7211C23.6285 14.9081 23.2086 15.1844 22.8546 15.5342C22.5006 15.8839 22.2194 16.3001 22.0273 16.7588C21.8352 17.2175 21.736 17.7096 21.7353 18.2068C21.7328 18.7008 21.8279 19.1905 22.0154 19.6477C22.2028 20.1049 22.4788 20.5206 22.8275 20.8711C23.1762 21.2216 23.5908 21.5 24.0475 21.6902C24.5042 21.8804 24.994 21.9788 25.4889 21.9796ZM38.3837 13.8202C38.7012 13.8157 39.0041 13.6862 39.2264 13.4599C39.4487 13.2335 39.5725 12.9287 39.5708 12.6117C39.5589 12.2952 39.4252 11.9955 39.1975 11.7749C38.9698 11.5544 38.6657 11.4301 38.3484 11.4278C38.0312 11.4354 37.7298 11.5675 37.5095 11.7955C37.2893 12.0236 37.1681 12.3291 37.1721 12.6459C37.1732 12.8024 37.2054 12.9571 37.2669 13.1012C37.3283 13.2452 37.4178 13.3755 37.5301 13.4848C37.6424 13.594 37.7753 13.6799 37.9211 13.7375C38.0669 13.7951 38.2227 13.8232 38.3794 13.8202H38.3837Z" fill="#F7CA18"/>
<path d="M25.5157 34.1396C25.336 34.1411 25.1578 34.1073 24.9912 34.04C24.8247 33.9727 24.673 33.8733 24.545 33.7475C24.4169 33.6216 24.315 33.4718 24.245 33.3066C24.175 33.1414 24.1383 32.964 24.1371 32.7847C24.1329 32.605 24.1649 32.4263 24.231 32.2592C24.2971 32.092 24.3961 31.9398 24.5221 31.8114C24.6481 31.683 24.7985 31.5811 24.9646 31.5117C25.1307 31.4423 25.309 31.4068 25.489 31.4073C25.6688 31.4033 25.8477 31.4353 26.015 31.5013C26.1823 31.5673 26.3347 31.666 26.4632 31.7916C26.5918 31.9173 26.6939 32.0673 26.7635 32.2329C26.8331 32.3984 26.8689 32.5762 26.8687 32.7558C26.8714 32.9355 26.8385 33.1139 26.7718 33.2809C26.7052 33.4478 26.6062 33.6 26.4804 33.7285C26.3547 33.8571 26.2047 33.9597 26.0392 34.0302C25.8736 34.1007 25.6957 34.1379 25.5157 34.1396Z" fill="#F7CA18"/>
<path d="M26.8677 18.2337C26.8672 18.4134 26.8307 18.5911 26.7605 18.7565C26.6902 18.9219 26.5875 19.0716 26.4585 19.1968C26.3295 19.322 26.1767 19.4202 26.0091 19.4857C25.8415 19.5512 25.6625 19.5825 25.4826 19.578C25.3028 19.5773 25.1249 19.5408 24.9593 19.4706C24.7938 19.4004 24.644 19.2979 24.5186 19.1691C24.3933 19.0403 24.295 18.8878 24.2295 18.7206C24.164 18.5534 24.1326 18.3748 24.1372 18.1953C24.1388 18.0158 24.176 17.8385 24.2465 17.6734C24.3171 17.5083 24.4196 17.3588 24.5482 17.2334C24.6768 17.108 24.829 17.0092 24.9959 16.9426C25.1629 16.8761 25.3414 16.8432 25.5211 16.8457C25.701 16.8481 25.8786 16.8859 26.0438 16.957C26.209 17.0282 26.3584 17.1312 26.4836 17.2602C26.6087 17.3892 26.7071 17.5416 26.773 17.7087C26.8389 17.8758 26.8711 18.0542 26.8677 18.2337Z" fill="#F7CA18"/>
</svg>
