<svg width="50" height="50" viewBox="0 0 50 50" fill="none" xmlns="http://www.w3.org/2000/svg">
<path d="M9 4H30.9288V13.8593H40.6522V46H9V4ZM23.0236 41.992C23.2283 41.8933 23.3582 41.833 23.486 41.7727C25.4352 40.7858 27.3844 39.8109 29.3207 38.8185C29.4381 38.7459 29.5727 38.7066 29.7103 38.7049C29.8479 38.7032 29.9834 38.739 30.1025 38.8086C32.0518 39.812 34.015 40.7945 35.974 41.7837C36.0921 41.8429 36.2112 41.8988 36.379 41.9788C36.353 41.8374 36.3422 41.7464 36.3206 41.6586C35.5625 38.5882 34.8045 35.509 34.0324 32.4397C33.9328 32.045 33.988 31.7818 34.2609 31.4616C35.8852 29.5294 36.2848 27.3341 35.3026 24.9995C34.3356 22.6966 32.5261 21.4323 30.0592 21.2612C28.8419 21.1795 27.6289 21.4745 26.581 22.1071C25.5331 22.7397 24.7 23.68 24.192 24.8032C23.1362 27.0961 23.5564 29.7312 25.2934 31.6162C25.3717 31.6869 25.4281 31.7792 25.4556 31.8818C25.4831 31.9844 25.4805 32.0929 25.4482 32.1941C24.8678 34.4969 24.3003 36.7997 23.7307 39.1025C23.4968 40.039 23.2694 40.9755 23.0236 41.992ZM13.8904 13.8198H28.4728V11.4074H13.8904V13.8198ZM28.4728 16.342H13.9045V18.7544H28.4728V16.342ZM13.8936 21.2535V23.677H21.1556V21.2535H13.8936Z" fill="#F7CA18"/>
<path d="M39.8098 11.3746H33.3926V4.88721L39.8098 11.3746Z" fill="#F7CA18"/>
<path d="M33.364 27.3843C33.3675 28.1173 33.1558 28.8348 32.7559 29.4458C32.3561 30.0567 31.786 30.5337 31.1181 30.8161C30.4501 31.0985 29.7144 31.1736 29.0042 31.032C28.294 30.8903 27.6414 30.5382 27.1291 30.0204C26.6168 29.5026 26.268 28.8423 26.1268 28.1234C25.9856 27.4045 26.0585 26.6594 26.3362 25.9825C26.6139 25.3056 27.0839 24.7275 27.6865 24.3215C28.2892 23.9155 28.9973 23.6999 29.7211 23.702C30.6846 23.7072 31.6072 24.0966 32.2891 24.7859C32.971 25.4751 33.3572 26.4087 33.364 27.3843ZM28.5235 26.1781V28.6037H30.9058V26.1781H28.5235Z" fill="#F7CA18"/>
<path d="M32.758 37.4039C31.7834 36.9126 30.917 36.4806 30.0507 36.0299C29.9488 35.9669 29.8317 35.9336 29.7123 35.9336C29.5929 35.9336 29.4758 35.9669 29.3739 36.0299C28.6213 36.4301 27.8578 36.8051 27.0933 37.1889C26.9785 37.2471 26.8605 37.2986 26.6602 37.3863L27.6943 33.2073C28.9948 33.6618 30.4082 33.6618 31.7086 33.2073C32.0584 34.5813 32.3941 35.9378 32.758 37.4039Z" fill="#F7CA18"/>
</svg>
