<svg width="50" height="50" viewBox="0 0 50 50" fill="none" xmlns="http://www.w3.org/2000/svg">
<path d="M23.2901 48C22.7145 47.7874 22.0978 47.8062 21.5058 47.6735C14.8809 46.1829 10.5641 42.1327 8.71058 35.6829C6.97096 29.6324 8.46391 24.2197 12.7677 19.621C14.4216 17.859 16.1742 16.177 17.8656 14.4526C17.939 14.3734 18.029 14.3113 18.129 14.2707C18.2291 14.2301 18.3369 14.212 18.4447 14.2177C22.7321 14.2232 27.0195 14.2232 31.3069 14.2177C31.4972 14.2177 31.6675 14.2177 31.8249 14.3798C33.7208 16.3403 35.7399 18.1856 37.5477 20.2283C45.8218 29.583 41.0868 44.5595 28.9341 47.5196C28.1255 47.7247 27.2998 47.8556 26.4674 47.9107C26.3981 47.9107 26.3183 47.8966 26.2912 47.993L23.2901 48ZM26.2043 20.4585H26.1973C26.1973 20.0932 26.1867 19.7255 26.1973 19.3602C26.2055 19.1429 26.1585 19.0525 25.913 19.0595C25.2235 19.0771 24.5328 19.0795 23.8433 19.0595C23.5685 19.0513 23.5403 19.1652 23.545 19.3908C23.5579 20.0063 23.5226 20.6229 23.559 21.2373C23.5825 21.6367 23.4733 21.7905 23.0587 21.8962C22.052 22.1603 21.1559 22.7388 20.5009 23.5476C19.846 24.3564 19.4663 25.3532 19.4173 26.3927C19.3732 27.4393 19.6623 28.4728 20.243 29.3446C20.8237 30.2163 21.666 30.8814 22.6487 31.2439C23.5544 31.5834 24.4894 31.547 25.4267 31.5587C25.9895 31.5662 26.5297 31.7811 26.9438 32.1621C27.358 32.5431 27.6171 33.0636 27.6714 33.6237C27.7889 34.7408 27.0148 35.7968 25.893 36.0611C25.4408 36.168 24.9862 36.1245 24.5328 36.1245C23.1832 36.1245 22.301 35.4115 22.079 34.0971C22.0356 33.8446 21.9322 33.8363 21.7431 33.8399C21.2885 33.8457 20.8327 33.8399 20.3782 33.8399C19.2799 33.8399 19.267 33.8399 19.5477 34.9323C20.0422 36.8563 21.258 38.0897 23.1808 38.5995C23.4851 38.6793 23.5637 38.7933 23.5532 39.0916C23.5297 39.7647 23.5532 40.4401 23.5414 41.1132C23.5356 41.3422 23.6013 41.4115 23.8339 41.4068C24.5238 41.3919 25.2137 41.3919 25.9036 41.4068C26.1385 41.4127 26.1984 41.3352 26.1937 41.1108C26.1808 40.4519 26.2125 39.7917 26.1796 39.1339C26.1632 38.7921 26.2642 38.6699 26.6002 38.5901C27.658 38.3274 28.5982 37.72 29.2725 36.8637C29.9468 36.0074 30.3168 34.9509 30.3241 33.861C30.3314 32.7711 29.9755 31.7098 29.3127 30.8445C28.6499 29.9793 27.7178 29.3594 26.6636 29.0826C25.8813 28.8724 25.0908 28.9381 24.3014 28.9111C23.7313 28.8972 23.1866 28.6726 22.7725 28.2806C22.3584 27.8886 22.1042 27.357 22.0591 26.7886C22.0198 26.2264 22.1901 25.6695 22.5371 25.2255C22.8842 24.7815 23.3834 24.4817 23.9385 24.3841C24.3519 24.3113 24.7865 24.3453 25.2118 24.3453C26.5684 24.3453 27.433 25.0501 27.662 26.3704C27.7043 26.6159 27.7983 26.6347 27.9933 26.6323C28.6546 26.6253 29.3147 26.6147 29.9749 26.6323C30.2673 26.6417 30.3543 26.5595 30.3214 26.2682C30.0947 24.2995 29.0904 22.8994 27.285 22.0701C26.9326 21.908 26.3923 21.9726 26.2372 21.6648C26.0798 21.3442 26.2043 20.8696 26.2043 20.4585Z" fill="#F7CA18"/>
<path d="M15.0167 3H34.7727C34.4403 3.89154 34.1138 4.76194 33.7896 5.63469C33.1001 7.4953 32.4059 9.35592 31.7258 11.22C31.6271 11.489 31.5096 11.5983 31.1984 11.5971C26.9697 11.583 22.7438 11.583 18.5206 11.5971C18.2986 11.5971 18.1565 11.5783 18.0625 11.3199C17.0605 8.59358 16.0398 5.87432 15.0261 3.1527C15.0169 3.10236 15.0137 3.05109 15.0167 3Z" fill="#F7CA18"/>
</svg>
