<svg width="70" height="70" viewBox="0 0 70 70" fill="none" xmlns="http://www.w3.org/2000/svg">
<path d="M52.429 0.00854419C52.7947 0.350291 53.1791 0.671532 53.0322 1.26275C52.8852 1.85398 52.4102 1.98384 51.9215 2.13079C49.953 2.72543 48.4323 4.0104 47.1627 5.53459C45.9499 6.97965 44.8475 8.51386 43.8648 10.1243C43.113 11.3733 42.2484 12.1098 40.7532 11.9201C40.5855 11.9161 40.4176 11.9235 40.2509 11.9423C40.4764 12.3114 40.6678 12.607 40.8438 12.9129C41.869 14.7037 42.356 16.6243 42.0279 18.6782C41.6862 20.7662 40.4661 22.2153 38.5797 23.1209C38.3354 23.2371 38.0876 23.3464 37.8432 23.4626C37.8262 23.4712 37.8193 23.5002 37.8125 23.5088L39.3076 26.159C40.5601 25.8173 41.8485 25.4755 43.1352 25.1338C45.2352 24.5596 47.3472 24.0163 49.4302 23.3789C50.0752 23.1822 50.6663 22.8395 51.1577 22.3776C54.0181 19.5753 56.8307 16.7234 59.6586 13.8886C59.7979 13.739 59.9451 13.597 60.0995 13.4631C60.5814 13.0769 61.1247 13.0872 61.5178 13.4768C61.9108 13.8664 61.9193 14.4115 61.528 14.8967C61.3935 15.0517 61.2509 15.1995 61.1008 15.3393C58.3053 18.1416 55.4962 20.932 52.728 23.7531C51.9346 24.5735 50.929 25.1573 49.8232 25.4396C46.6637 26.2769 43.5162 27.1484 40.3636 28.0181C40.1722 28.0711 39.9809 28.1343 39.8151 28.189C39.8698 29.3851 39.9211 30.5334 39.9757 31.7568C40.2218 31.7671 40.4884 31.791 40.7498 31.791C43.682 31.791 46.6142 31.8047 49.5464 31.791C50.6633 31.7768 51.762 32.0757 52.7178 32.6539C56.477 34.8753 60.2362 37.0642 64.0108 39.265C64.1475 39.3453 64.2876 39.4222 64.4209 39.5076C65.0941 39.9382 65.2753 40.5004 64.9335 41.0455C64.6225 41.5359 64.0057 41.6333 63.3649 41.2608C59.7765 39.1676 56.1609 37.1069 52.6084 34.947C51.3864 34.1666 49.9566 33.7746 48.5075 33.8227C45.7598 33.9081 43.007 33.8569 40.2577 33.8381C39.7809 33.8381 39.5742 33.9628 39.3931 34.4464C38.9898 35.5451 38.4635 36.5977 37.9936 37.652C38.848 38.0774 39.8339 38.5063 40.7498 39.0565C42.18 39.9229 43.2155 41.1805 44.0118 42.6449C44.217 43.0167 44.5003 43.3396 44.8422 43.5915C46.674 44.938 48.5211 46.2628 50.3836 47.566C51.347 48.2243 52.0613 49.1872 52.4119 50.3C54.3849 56.2772 56.3716 62.2509 58.372 68.2212C58.6231 68.9713 58.5565 69.5421 57.8952 70H57.2117C56.9383 69.6019 56.559 69.2396 56.4103 68.8039C54.6862 63.6999 53.0236 58.5754 51.2841 53.4748C49.8095 49.1364 50.7715 50.4282 47.0123 47.6908C46.4553 47.2824 45.888 46.8877 45.3583 46.51C45.3583 47.795 45.4488 49.0287 45.3412 50.2436C44.8986 55.2724 42.9934 59.6741 39.3982 63.2402C36.2575 66.357 33.2331 66.4663 29.9779 63.4573C26.1948 59.9612 24.2827 55.4706 23.7804 50.3803C23.6556 49.1141 23.7616 47.8275 23.7616 46.5032C22.5381 47.3764 21.3335 48.2666 20.098 49.109C19.3786 49.5911 18.8471 50.3061 18.5927 51.1339C16.6504 57.0279 14.6899 62.9156 12.7112 68.7971C12.5625 69.2379 12.1815 69.6002 11.9098 69.9932H11.2263C10.5667 69.5352 10.4984 68.9679 10.7496 68.2161C12.7556 62.248 14.7429 56.2737 16.7113 50.2932C17.0624 49.181 17.7758 48.2185 18.7379 47.5592C20.6397 46.2315 22.5159 44.8697 24.3938 43.5095C24.637 43.3482 24.8403 43.1338 24.9884 42.8824C26.2632 40.3483 28.2504 38.6687 30.94 37.8092C31.0071 37.7882 31.0723 37.7613 31.1348 37.7288C30.6221 36.5174 30.13 35.311 29.5969 34.12C29.5456 34.0418 29.4771 33.9764 29.3965 33.929C29.3159 33.8816 29.2254 33.8534 29.1321 33.8466C25.7693 33.8346 22.4048 33.8176 19.0403 33.8688C18.5089 33.8774 17.9382 34.1388 17.4615 34.4139C13.6254 36.6353 9.80634 38.8754 5.98049 41.1104C5.79222 41.2367 5.59049 41.3416 5.37901 41.4231C4.90057 41.5701 4.46142 41.471 4.1829 41.0301C4.03781 40.8345 3.97531 40.5897 4.00886 40.3484C4.04242 40.1071 4.16934 39.8887 4.36231 39.74C4.5745 39.5657 4.80346 39.4129 5.04581 39.2838C8.84945 37.0624 12.6633 34.8411 16.4567 32.6061C17.3745 32.0525 18.4283 31.7655 19.5 31.7773C22.4322 31.7927 25.3644 31.7773 28.2965 31.7773H29.139C29.1936 30.5812 29.2449 29.4278 29.3098 28.189C29.1953 28.148 29.0159 28.0694 28.8297 28.0181C25.5694 27.121 22.3109 26.2171 19.0455 25.3405C18.1188 25.0989 17.2749 24.6105 16.6037 23.9274C13.7023 21.0043 10.7974 18.0875 7.88914 15.177C7.72303 15.0223 7.5772 14.8472 7.45513 14.6558C7.33466 14.4693 7.28561 14.2456 7.31701 14.0258C7.34841 13.806 7.45814 13.605 7.626 13.4597C7.7697 13.2934 7.9686 13.1845 8.18616 13.1531C8.40371 13.1217 8.62529 13.1699 8.81015 13.2888C9.03733 13.4386 9.2451 13.616 9.42871 13.8168C12.2601 16.6499 15.0675 19.5035 17.9331 22.3024C18.4543 22.7973 19.0848 23.1626 19.7734 23.3687C22.9072 24.3067 26.0906 25.1457 29.2603 26.0155C29.4534 26.0667 29.6482 26.1078 29.8122 26.1453L31.3108 23.478C29.0655 22.6048 27.4148 21.096 27.0628 18.5398C26.7331 16.1475 27.4627 14.0048 28.8946 11.9133C28.4794 11.9133 28.1769 11.8996 27.8779 11.9133C26.8048 11.9765 26.1145 11.4605 25.5352 10.5805C24.4382 8.91105 23.3139 7.25529 22.0836 5.68154C21.1219 4.43045 19.8968 3.40609 18.4953 2.681C18.0726 2.46346 17.6332 2.28005 17.1812 2.1325C16.696 1.97188 16.2175 1.84543 16.0706 1.25934C15.9236 0.67324 16.3081 0.343455 16.6737 0.00512599H17.4922C18.3466 0.399844 19.2539 0.715959 20.0553 1.20124C22.7056 2.81087 24.5425 5.21506 26.2273 7.74911C26.6801 8.4326 26.9466 9.41 27.572 9.74662C28.2282 10.1003 29.2107 9.87819 30.0497 9.84573C30.5316 9.82693 31.0647 9.79617 31.4782 9.58258C33.2895 8.65645 35.1469 8.42919 36.9803 9.3314C37.9099 9.78934 38.8172 9.89528 39.7946 9.8594C39.998 9.83802 40.203 9.83802 40.4063 9.8594C41.2846 10.0166 41.7545 9.63384 42.2159 8.86662C44.5141 5.04589 47.1251 1.51906 51.6003 0L52.429 0.00854419ZM43.3334 49.35C42.8652 49.5721 42.479 49.76 42.0946 49.9378C41.3701 50.271 40.7993 50.1257 40.5328 49.543C40.2662 48.9604 40.5054 48.4802 41.1872 48.1128C41.7443 47.8121 42.3133 47.5233 42.843 47.1764C42.9332 47.1083 43.0066 47.0203 43.0572 46.9193C43.1079 46.8182 43.1346 46.7068 43.1352 46.5938C42.7934 44.5433 42.0143 42.6739 40.3858 41.3292C37.6006 39.0309 34.4053 38.8122 31.1279 39.9297C28.0522 40.9789 26.5622 43.436 25.9915 46.5169C25.988 46.6504 26.0151 46.783 26.0708 46.9044C26.1265 47.0259 26.2092 47.133 26.3127 47.2174C27.6524 48.1709 29.1936 48.6289 30.7828 48.9552C32.7153 49.3517 34.6616 49.3397 36.6181 49.2303C37.2845 49.1927 37.698 49.5977 37.727 50.1753C37.7561 50.7528 37.3853 51.2005 36.7377 51.2569C34.301 51.4585 31.8729 51.4124 29.5029 50.7545C28.2504 50.4128 27.0338 49.9224 25.7847 49.4952C25.7932 51.0826 26.1726 52.6393 26.6032 54.1993C26.8082 54.9409 27.2252 55.3391 27.8813 55.6432C29.9677 56.6052 32.1856 56.8803 34.4412 56.9982C35.1657 57.0375 35.5604 57.4237 35.5535 58.0235C35.5467 58.6233 35.0888 59.0778 34.3574 59.0299C33.204 58.9548 32.0489 58.8454 30.9058 58.6762C30.0788 58.5549 29.2688 58.3106 28.3307 58.0935C29.4482 59.9919 30.6614 61.6221 32.4009 62.7874C33.4518 63.4914 34.5864 63.8503 35.8099 63.2761C38.091 62.2065 39.4802 60.2688 40.825 58.0474C40.2457 58.2063 39.8425 58.3396 39.4272 58.4216C38.889 58.531 38.4601 58.3106 38.2841 57.7996C38.1081 57.2887 38.2533 56.8035 38.7967 56.5369C38.9983 56.4361 39.2239 56.3848 39.4324 56.2994C40.2304 55.9747 41.0317 55.662 41.8143 55.3049C42.0335 55.1988 42.2066 55.0166 42.3013 54.7923C42.8943 53.0733 43.318 51.3047 43.3334 49.35ZM37.8979 30.5641C37.8791 30.2326 37.8808 29.8208 37.8313 29.4142C37.6279 27.7242 37.252 26.0907 36.0645 24.7818C35.0888 23.7053 34.014 23.7189 33.0315 24.7989C32.8329 25.0149 32.6571 25.2508 32.5069 25.5029C31.2509 27.6405 31.0391 29.9661 31.362 32.3634C31.5722 33.9132 32.025 35.3896 33.1442 36.5584C34.0242 37.476 35.0614 37.4828 35.95 36.5874C36.2042 36.3283 36.4288 36.0417 36.6198 35.733C37.5767 34.1747 37.8535 32.4352 37.8979 30.5641ZM39.1453 14.1688C38.3593 12.2892 36.3396 10.8214 34.5522 10.8231C32.7649 10.8248 30.7161 12.3217 29.9677 14.1774C32.1395 14.6336 33.1442 15.4675 33.3373 16.9694C33.4518 17.8648 33.3373 18.7534 32.7034 19.3941C32.1241 19.97 31.3808 20.3784 30.74 20.838C32.7153 22.3212 36.8693 22.287 38.4909 20.6876C36.6386 20.1306 35.6902 18.9789 35.7432 17.3693C35.7996 15.6332 36.7787 14.7105 39.1453 14.1688ZM38.9078 18.6115C39.0609 18.6154 39.2132 18.5885 39.3557 18.5322C39.4981 18.4759 39.6278 18.3915 39.7369 18.284C39.8459 18.1765 39.9323 18.0481 39.9906 17.9065C40.049 17.7649 40.0782 17.613 40.0766 17.4598C40.0691 17.1625 39.9494 16.8789 39.7415 16.6662C39.5335 16.4535 39.2528 16.3274 38.9556 16.3133C38.6581 16.3112 38.3714 16.4245 38.1557 16.6294C37.94 16.8343 37.8121 17.1148 37.7988 17.412C37.7878 17.5647 37.8083 17.7181 37.8589 17.8626C37.9096 18.0071 37.9894 18.1397 38.0933 18.2521C38.1973 18.3646 38.3232 18.4545 38.4633 18.5163C38.6034 18.5781 38.7547 18.6105 38.9078 18.6115ZM30.2086 16.315C29.9117 16.3148 29.6259 16.4279 29.4094 16.631C29.1929 16.8342 29.062 17.1123 29.0433 17.4086C29.0347 17.5607 29.057 17.713 29.1087 17.8564C29.1604 17.9997 29.2405 18.1312 29.3442 18.2429C29.4479 18.3545 29.5731 18.4441 29.7122 18.5063C29.8513 18.5685 30.0016 18.6019 30.1539 18.6047C30.3011 18.6104 30.448 18.587 30.5861 18.5357C30.7242 18.4844 30.8508 18.4064 30.9587 18.306C31.0665 18.2057 31.1534 18.085 31.2144 17.9509C31.2754 17.8168 31.3093 17.672 31.3142 17.5248C31.322 17.3725 31.2995 17.2202 31.248 17.0768C31.1965 16.9333 31.117 16.8014 31.0142 16.6889C30.9113 16.5764 30.7872 16.4854 30.6489 16.4212C30.5106 16.357 30.361 16.3209 30.2086 16.315Z" fill="currentColor"/>
</svg>
