<svg width="70" height="70" viewBox="0 0 70 70" fill="none" xmlns="http://www.w3.org/2000/svg">
<path d="M0.00913009 36.9111C0.284926 35.512 0.500444 34.0965 0.849299 32.7102C1.70728 29.2853 3.02453 25.9922 4.76524 22.9203C4.91684 22.6537 5.13053 22.2957 5.38076 22.2409C5.76381 22.167 6.16067 22.2317 6.50038 22.4235C6.59545 22.4807 6.67718 22.5575 6.74006 22.6489C6.80293 22.7403 6.8455 22.844 6.86488 22.9532C6.88426 23.0625 6.88002 23.1746 6.85243 23.282C6.82484 23.3894 6.77455 23.4897 6.70494 23.576C6.05837 24.387 6.45107 24.9569 6.94239 25.6491C11.4939 32.0527 16.0242 38.4715 20.5331 44.9055C20.8619 45.3749 21.1468 45.4991 21.6929 45.3128C23.7385 44.6187 25.7988 43.9722 27.8517 43.3037C28.0198 43.2489 28.1769 43.1576 28.4143 43.0516C23.8354 33.6472 19.282 24.2738 14.6775 14.8382C13.1213 15.9095 11.6928 17.1553 10.42 18.5514C10.0821 18.9167 9.76427 19.3094 9.43368 19.6875C8.92044 20.2701 8.38164 20.3706 7.8885 19.9797C7.39535 19.5889 7.37709 18.9587 7.87571 18.3542C10.8007 14.7714 14.5915 11.994 18.8893 10.2849C24.029 8.22644 29.3805 7.65658 34.8508 8.18625C36.8599 8.38168 38.8416 8.85474 40.8452 9.12688C41.4078 9.20359 42.0105 9.04834 42.5858 8.94423C46.1292 8.32324 49.6725 8.031 53.2451 8.73785C54.1326 8.90725 55.0337 8.99589 55.9373 9.00268C57.9153 9.02825 59.8441 9.26569 61.6614 10.0986C64.3135 11.304 65.7819 13.3862 66.1436 16.2537C66.2278 16.8255 66.1936 17.4085 66.0431 17.9665C65.8926 18.5245 65.629 19.0457 65.2687 19.4976L69.2212 25.24C69.4148 25.5212 69.6212 25.7879 69.7983 26.0874C70.1399 26.65 70.0394 27.2016 69.5591 27.5322C69.0787 27.8628 68.4997 27.7696 68.1216 27.2436C67.4568 26.3194 66.8248 25.3696 66.1783 24.4345C66.0388 24.2108 65.8517 24.0206 65.6303 23.8774C65.9214 25.1158 66.2124 26.3541 66.5034 27.5924C66.5491 27.7915 66.6057 27.9906 66.6385 28.1915C66.7354 28.7942 66.4449 29.2783 65.9207 29.4079C65.789 29.449 65.65 29.4616 65.5129 29.445C65.3759 29.4285 65.244 29.383 65.1258 29.3118C65.0076 29.2405 64.9058 29.145 64.8272 29.0316C64.7486 28.9181 64.6949 28.7893 64.6696 28.6536C64.2422 26.9787 63.8513 25.2947 63.4477 23.6144L62.834 21.0573H57.329C56.7044 23.1998 55.0168 24.3906 52.8725 25.1486C53.6944 27.7568 54.4268 30.3139 56.0414 32.4892C56.6788 33.3476 57.3053 33.4426 58.2441 32.8837C59.508 32.133 60.3957 31.0006 61.2103 29.8116C62.0249 28.6226 62.5418 28.597 63.4879 29.6582C64.003 30.2353 64.5253 30.8088 65.0203 31.4043C65.4714 31.9522 65.4385 32.5221 64.9746 32.9184C64.5107 33.3148 63.9354 33.2289 63.4605 32.723C63.1354 32.3796 62.8267 32.0216 62.4906 31.6472C61.9975 32.1951 61.5938 32.7632 61.0824 33.1979C60.3519 33.8134 59.6213 34.4435 58.7811 34.8746C57.2377 35.6691 55.8113 35.3239 54.6588 34.0198C53.5063 32.7157 52.8323 31.1997 52.2241 29.6235C51.8186 28.5678 51.4588 27.4938 51.057 26.3705L49.9721 27.1778C50.3374 28.2737 50.7483 29.302 51.057 30.3632C51.6451 32.3448 51.6451 34.4546 51.057 36.4362C50.2515 39.1576 49.2981 41.8352 48.3739 44.5219C48.1328 45.2233 47.5538 45.4717 46.9767 45.2416C46.3995 45.0114 46.2241 44.4397 46.4853 43.7475C46.5511 43.5777 46.6333 43.4151 46.6917 43.2434C47.4223 41.0937 48.2168 38.9585 48.8835 36.7869C49.7236 34.0472 49.5958 31.355 48.2534 28.6335C47.5465 29.3276 46.8908 30.0034 46.2022 30.6426C45.5234 31.2447 45.0671 32.0581 44.9073 32.9513C44.7246 33.9449 44.4707 34.8782 44.5785 35.9394C44.7612 37.7384 43.9959 39.3695 43.163 40.9238C42.8927 41.4297 42.3813 41.5503 41.8607 41.269C41.3402 40.9877 41.1612 40.5585 41.3858 40.0033C41.6324 39.3914 41.9338 38.8015 42.153 38.1768C42.3314 37.6623 42.4641 37.133 42.5493 36.5951C42.668 35.8645 42.595 35.165 41.9009 34.7138C41.2069 34.2627 40.5438 34.4563 39.8918 34.8033C38.5749 35.5102 37.5886 36.5933 36.7046 37.7531C33.0918 42.5117 30.2832 47.8302 28.3906 53.4972C28.1823 54.1127 28.0983 54.7757 27.9577 55.4077L28.1257 55.5319C28.6061 55.2177 29.1157 54.9364 29.5631 54.5803C32.1202 52.5566 34.2225 50.1018 36.2444 47.5721C37.1119 46.4872 37.9174 45.353 38.7448 44.237C39.2416 43.5685 39.8407 43.395 40.3612 43.7877C40.8817 44.1804 40.8909 44.763 40.4178 45.4169C38.0909 48.6297 35.6928 51.7913 32.7814 54.5072C31.7421 55.4789 30.5293 56.2679 29.3842 57.1227C29.189 57.2839 28.9509 57.3842 28.6992 57.4113C27.6034 57.4296 27.0554 58.2168 26.4435 58.9528C24.6171 61.1446 25.2856 60.7976 22.5861 60.3574C18.9569 59.7674 15.3131 59.3894 11.6364 59.8789C10.1551 60.0743 8.73781 60.4487 7.55974 61.4587C7.46273 61.5482 7.34892 61.6176 7.22491 61.6628C7.10091 61.7079 6.96917 61.7281 6.83733 61.7219C6.7055 61.7158 6.57618 61.6836 6.45689 61.6271C6.3376 61.5707 6.2307 61.4911 6.1424 61.393C5.75519 60.9747 5.77711 60.3957 6.22276 59.9227C7.10312 58.9967 8.24648 58.5474 9.45012 58.246C12.4291 57.5008 15.461 57.541 18.4856 57.7876C20.2518 57.9318 22.0034 58.2551 23.7641 58.467C23.879 58.4693 23.9932 58.4481 24.0997 58.4048C24.2061 58.3614 24.3026 58.2968 24.3833 58.2149C24.8783 57.6798 25.3367 57.1191 25.7878 56.5401C25.9201 56.3912 25.998 56.2019 26.0088 56.0031C25.8682 54.4104 26.3029 52.9145 26.8819 51.4844C27.7531 49.3365 28.754 47.2434 29.6983 45.1247C29.7403 45.0297 29.7732 44.9311 29.8371 44.7594C28.0709 45.3767 26.3942 46.0032 24.6938 46.5511C20.0509 48.047 15.3204 49.0315 10.4054 48.8013C8.67078 48.7439 6.96304 48.3564 5.37345 47.6598C2.31413 46.2753 0.641083 43.8589 0.142458 40.5768C0.109582 40.3558 0.0474881 40.1366 0 39.9174L0.00913009 36.9111ZM30.312 42.2589C30.6959 42.1861 31.058 42.0262 31.3705 41.7916C31.6831 41.557 31.9376 41.2539 32.1147 40.9055C32.6502 39.9546 33.2469 39.0394 33.901 38.1658C34.0505 37.9731 34.1511 37.7469 34.194 37.5067C34.237 37.2665 34.221 37.0195 34.1476 36.7869C32.4124 29.3264 30.6876 21.8628 28.9732 14.3962C28.6536 13.0099 28.323 11.6255 28.0015 10.2611C24.8107 10.2611 18.9532 12.0401 16.4382 13.7679C21.0591 23.2534 25.6837 32.7504 30.312 42.2589ZM42.8562 32.8052C43.384 30.8216 43.4735 28.8509 43.3913 26.8692C43.1721 21.6491 42.0032 16.6081 40.5238 11.6237C40.4887 11.461 40.4033 11.3134 40.2797 11.202C40.1562 11.0905 40.0006 11.0208 39.8352 11.0027C36.8125 10.325 33.7197 10.0111 30.6225 10.0675C30.4444 10.0832 30.2675 10.11 30.0928 10.1479C32.0417 18.5916 33.9759 26.9769 35.9284 35.4389C37.9009 33.5686 39.7 31.4865 42.8562 32.8052ZM18.8162 45.9977L5.21272 26.7285C5.12871 26.8052 5.08669 26.8271 5.07208 26.8619C3.46297 30.3851 2.31413 34.038 2.10043 37.9302C1.82646 42.9329 3.9269 45.647 8.85835 46.5402C12.1643 47.1374 15.4373 46.6881 18.8162 45.9977ZM42.5036 11.0301C44.1675 16.7378 45.4589 22.4126 45.4698 28.429C45.7694 28.1532 45.952 27.987 46.131 27.8171C48.1255 25.9358 50.1912 24.1094 52.7264 23.0208C54.898 22.0875 55.7072 20.5003 55.6487 18.2866C55.5903 15.8976 54.8195 13.6949 53.9227 11.5177C53.856 11.329 53.7388 11.1621 53.5839 11.0352C53.429 10.9084 53.2424 10.8264 53.0442 10.7981C50.5419 10.2392 48.0232 10.3013 45.5009 10.5899C44.5201 10.7031 43.5392 10.8766 42.5036 11.0301ZM57.7144 18.8839C59.3473 19.1432 60.9071 19.2674 62.4632 18.851C63.6815 18.524 64.2112 17.8135 64.1199 16.6209C64.0139 15.2602 63.5336 14.0382 62.518 13.0994C60.6916 11.4118 58.4286 11.1122 55.9775 11.0648C56.9948 13.6218 57.7309 16.1405 57.7144 18.8802V18.8839Z" fill="currentColor"/>
<path d="M62.1289 14.6319C62.0629 14.8533 61.9696 15.0655 61.8513 15.2639C61.3582 15.8849 60.7554 15.6292 60.1728 15.4265C59.5902 15.2237 59.024 15.0246 59.0404 14.2594C59.0513 13.7315 59.3765 13.2621 59.8367 13.3224C60.5235 13.4119 61.1883 13.7388 61.8349 14.0274C61.9865 14.095 62.0285 14.4128 62.1289 14.6319Z" fill="currentColor"/>
</svg>
