<svg width="70" height="70" viewBox="0 0 70 70" fill="none" xmlns="http://www.w3.org/2000/svg">
<g clip-path="url(#clip0_55_2208)">
<path d="M62.448 0.00342514C63.5216 0.664335 63.5079 1.40743 62.5268 2.15738C62.01 2.56744 61.5784 3.07464 61.2563 3.65042C60.2102 5.48932 59.277 7.39329 58.2137 9.22021C57.6008 10.2732 56.945 11.3502 56.0957 12.2046C52.7364 15.5845 49.276 18.8651 45.8979 22.2261C45.3429 22.7867 44.917 23.4616 44.6497 24.2037C43.8569 26.4604 43.1755 28.7547 41.5934 30.7101L42.3057 31.5199C42.8433 31.3076 43.333 31.0782 43.8466 30.9172C45.1496 30.5097 46.4458 30.5954 47.7522 30.9789C49.6955 31.5473 51.6423 32.1226 53.613 32.5849C55.1794 32.9419 56.8094 32.9108 58.361 32.4942C58.5609 32.4599 58.7447 32.363 58.886 32.2174C59.0272 32.0718 59.1186 31.8852 59.1469 31.6843C59.3934 30.5731 59.6811 29.4721 59.9705 28.3729C60.1759 27.599 60.7324 27.2206 61.3505 27.3952C61.9943 27.5785 62.2614 28.1332 62.0696 28.9362C61.7871 30.1091 61.4464 31.2682 61.2135 32.4497C61.0046 33.5198 60.3574 34.1242 59.39 34.4581C57.9232 34.9908 56.3473 35.1519 54.803 34.9272C52.9196 34.6225 51.067 34.1448 49.2093 33.7047C48.3532 33.501 47.4971 33.2013 46.6495 32.9633C45.6325 32.6825 44.6651 32.8452 43.672 33.364C44.1086 34.1328 44.5281 34.8913 44.9835 35.6823C46.6957 34.7355 48.3275 35.1156 49.9147 35.898C51.733 36.7952 53.5103 37.7952 55.3321 38.665C57.0443 39.4834 58.8627 40.0125 60.8111 39.9063C61.8385 39.8498 62.7562 39.6067 63.4719 38.7557C64.1157 37.9921 64.8691 37.3175 65.5865 36.6155C66.2166 35.9991 66.8449 35.9477 67.3261 36.4442C67.8072 36.9408 67.7421 37.5366 67.1548 38.1342C66.2131 39.0947 65.2714 40.057 64.3006 40.9867C63.3298 41.9164 62.0867 42.014 60.8642 42.0979C58.7445 42.2452 56.731 41.7264 54.8356 40.8309C52.6936 39.819 50.6047 38.6975 48.4764 37.6582C47.4491 37.1582 46.8105 37.2045 45.9081 37.7181C46.1872 38.5622 46.4646 39.42 46.7642 40.271C46.7875 40.3199 46.8207 40.3634 46.8616 40.3988C46.9026 40.4341 46.9505 40.4606 47.0022 40.4765C48.6699 40.9148 49.5123 42.2126 50.0517 43.6543C51.0242 46.25 51.8426 48.9022 52.7278 51.5305C53.5531 53.9892 54.2688 56.4958 55.2448 58.8929C55.8971 60.5024 56.8645 61.9903 57.7686 63.4868C58.6983 65.0278 59.7307 66.5037 60.6964 68.0224C60.8676 68.2998 61.1091 68.6936 61.0389 68.9418C60.911 69.355 60.6363 69.707 60.2667 69.9315C59.8095 70.1575 59.3352 69.8973 59.0407 69.4504C58.0288 67.9094 57.0803 66.3188 55.9999 64.8274C53.2757 61.0606 52.0738 56.6551 50.6818 52.3283C49.8827 49.8605 49.07 47.3989 48.2436 44.9436C48.0836 44.5229 47.8719 44.1238 47.6135 43.7553C47.8823 46.0137 48.0758 48.2533 47.7984 50.51C47.3156 54.4481 45.8739 57.8639 42.4683 60.1754C39.7048 62.0588 36.5903 62.5588 33.32 62.2848C30.6918 62.0639 28.2844 61.2284 26.2332 59.523C23.6837 57.4033 22.4373 54.5833 21.9013 51.3901C21.4733 48.8457 21.6394 46.31 22.0229 43.7776L21.8517 43.7177C21.4613 44.7022 21.023 45.6696 20.6891 46.6712C19.2594 50.9654 17.9718 55.311 16.3983 59.5504C15.6723 61.5075 14.4481 63.2899 13.3729 65.1065C12.539 66.5174 11.5922 67.8597 10.6898 69.2295C10.195 69.9846 9.54779 70.2037 8.9879 69.8185C8.3989 69.4161 8.3561 68.8203 8.86976 68.0224C9.47417 67.0841 10.0409 66.1167 10.7018 65.2212C13.366 61.617 15.032 57.5643 16.3127 53.306C17.2818 50.0854 18.3776 46.9007 19.4854 43.7177C19.8275 42.643 20.4982 41.7027 21.4031 41.0295C21.4955 40.9627 21.5829 40.848 21.6822 40.836C22.8379 40.7059 22.992 39.771 23.2591 38.9167C23.379 38.5297 23.5279 38.1513 23.6717 37.7507C22.8893 37.136 22.0726 37.237 21.2747 37.588C20.4408 37.9527 19.6275 38.367 18.8228 38.7865C16.6363 39.932 14.4909 41.1477 12.075 41.7504C10.1077 42.24 8.14892 42.3102 6.21927 41.5877C5.8994 41.4753 5.60495 41.3008 5.35289 41.074C4.32557 40.0929 3.31195 39.1119 2.36681 38.064C2.22787 37.8973 2.12472 37.7038 2.06375 37.4956C2.00277 37.2873 1.98529 37.0687 2.01238 36.8535C2.1836 36.0213 3.16984 35.8604 3.86157 36.511C4.64019 37.212 5.37982 37.955 6.07715 38.7369C6.79628 39.593 7.70375 39.8344 8.73792 39.8858C11.1761 40.0073 13.3437 39.1324 15.4549 38.0674C16.8777 37.3483 18.2595 36.5435 19.6943 35.8501C21.2627 35.0899 22.8859 34.7132 24.557 35.6703L25.8788 33.3554C25.0073 32.8829 24.1152 32.6449 23.1718 32.8983C21.4339 33.3674 19.7183 33.9085 17.9804 34.3793C15.7083 34.994 13.4037 35.22 11.0802 34.6978C10.5306 34.5745 9.93475 34.4221 9.49814 34.0985C9.03167 33.7584 8.67463 33.2895 8.47082 32.7493C8.05475 31.4754 7.78593 30.157 7.46233 28.8523C7.29111 28.1229 7.58218 27.5596 8.20029 27.3833C8.81839 27.2069 9.37143 27.575 9.57005 28.2942C9.86112 29.3694 10.1676 30.4447 10.3748 31.5388C10.4929 32.1672 10.8285 32.4086 11.3901 32.5353C13.378 32.9873 15.3402 32.8212 17.2801 32.3007C18.6653 31.9274 20.0453 31.5285 21.4065 31.0765C23.3961 30.4173 25.3069 30.4687 27.1955 31.5473L27.9728 30.7066C26.3154 28.6862 25.6305 26.2549 24.8069 23.8578C24.5925 23.2858 24.2533 22.7687 23.8139 22.3442C20.422 18.9969 16.9976 15.6821 13.5852 12.3553C12.6241 11.3912 11.825 10.2782 11.2189 9.05927C10.1436 6.98065 8.96222 4.94998 7.7945 2.92444C7.60324 2.61448 7.34746 2.34935 7.04455 2.1471C6.0275 1.44168 6.0412 0.671184 7.11304 0.00342514H7.79792C9.02386 0.739672 9.85257 1.83377 10.5169 3.06142C11.4175 4.72054 12.337 6.37282 13.1759 8.06448C13.7063 9.14718 14.4173 10.1315 15.2785 10.9752C18.0865 13.7147 20.8175 16.5382 23.7248 19.1664C25.6699 20.9248 27.0808 22.8767 27.68 25.4502C27.9985 26.8199 28.6919 28.0699 29.6165 29.217L30.2021 28.813C29.9247 28.0442 29.5857 27.3833 29.4539 26.683C28.9197 23.8732 29.5087 21.1902 30.6747 18.6476C31.1633 17.6258 31.8066 16.6856 32.5821 15.8601C33.3577 15.0194 34.0597 15.1496 34.748 15.9988C35.4757 15.1616 36.0287 15.0999 36.9002 15.8002C37.1931 16.0186 37.4481 16.2835 37.6553 16.5844C40.0524 20.3735 41.1465 24.3441 39.3555 28.8112L39.9479 29.217C40.0695 29.0595 40.1671 28.9379 40.2596 28.813C41.3708 27.2959 41.9153 25.5307 42.4409 23.7637C42.8089 22.5154 43.5097 21.3908 44.4682 20.5105C47.2248 17.9148 49.925 15.2609 52.6662 12.6498C54.5291 10.8759 56.1848 8.96167 57.1522 6.53377C57.38 5.9865 57.6496 5.45758 57.9586 4.95169C59.027 3.14874 59.842 1.1506 61.7666 0L62.448 0.00342514ZM44.8431 41.6442C44.6856 41.889 44.5846 42.0277 44.5007 42.1784C42.4615 45.8973 39.311 47.9177 35.0836 48.0838C33.8371 48.1334 32.5632 47.8013 31.3167 47.5513C31.1686 47.5293 31.0267 47.4762 30.9004 47.3957C30.774 47.3152 30.6661 47.2089 30.5835 47.0839C30.501 46.9589 30.4457 46.8179 30.4213 46.6701C30.3969 46.5223 30.4039 46.371 30.4418 46.2261C30.613 45.6011 31.1763 45.3015 31.8989 45.4641C32.1437 45.5189 32.3834 45.5925 32.6266 45.6542C37.5115 46.9024 42.4632 43.7708 43.3809 38.8276C43.458 38.4167 43.5521 37.9219 43.3963 37.5674C42.3467 35.1413 40.965 32.9325 38.9018 31.2152C36.4105 29.1417 33.8354 28.9893 31.1866 30.8351C29.1063 32.2802 27.8119 34.3639 26.5996 36.5281C26.0243 37.5555 25.9541 38.5588 26.3873 39.5827C26.8339 40.5966 27.3311 41.5875 27.8769 42.5517C28.1457 43.0414 28.3478 43.4917 27.9865 44.0053C27.5362 44.6457 26.6613 44.6149 26.1476 43.8975C25.6339 43.18 25.2145 42.4695 24.6957 41.6716C23.7471 45.6097 23.3464 49.4707 24.6066 53.3231C25.5672 56.2647 27.4883 58.369 30.4281 59.4288C33.0243 60.3622 35.8529 60.43 38.4909 59.6223C41.203 58.8347 43.1806 57.155 44.4237 54.6296C45.1753 53.0988 45.5246 51.4568 45.6633 49.7652C45.8859 47.0479 45.5503 44.3837 44.8431 41.6442ZM33.0426 18.8188C32.8714 19.0876 32.7909 19.2092 32.7276 19.3445C31.9983 20.8426 31.5834 22.4741 31.5085 24.1386C31.4777 25.0958 31.6575 26.0717 31.8509 27.0169C31.9674 27.5853 32.3646 27.8284 33.0307 27.611C34.1111 27.2531 35.2325 27.2925 36.3403 27.5356C37.3043 27.748 37.6108 27.6778 37.77 26.7052C37.9489 25.5695 37.992 24.4165 37.8984 23.2705C37.7854 21.7535 37.2889 20.3204 36.4979 18.8034C36.2719 19.9523 36.0749 20.9197 35.8935 21.8854C35.7753 22.5189 35.4466 22.9572 34.772 22.9504C34.0974 22.9435 33.7857 22.4949 33.6659 21.8648C33.4775 20.9043 33.2738 19.9506 33.0426 18.8188Z" fill="currentColor"/>
</g>
<defs>
<clipPath id="clip0_55_2208">
<rect width="70" height="70" fill="currentColor"/>
</clipPath>
</defs>
</svg>
