<svg width="70" height="70" viewBox="0 0 70 70" fill="none" xmlns="http://www.w3.org/2000/svg">
<path d="M50.1441 0C51.0347 0.822079 51.0005 1.37013 50.0037 2.1237C45.9635 5.17567 42.4457 8.7089 39.8322 13.0848C39.2413 14.073 38.7806 14.8796 39.6832 16.0888C40.4042 17.0581 40.5926 18.4231 41.0413 19.6854C41.9353 19.7984 42.9698 19.9457 44.0094 20.0467C44.2311 20.0325 44.4427 19.9486 44.6139 19.807C45.782 19.0089 46.9278 18.1816 48.1026 17.3921C48.464 17.1489 48.5514 16.9228 48.4212 16.493C47.8851 14.7289 47.4176 12.946 46.8798 11.1837C46.5373 10.0396 46.7377 9.11309 47.6282 8.27217C48.7928 7.1812 49.8787 6.0046 51.0381 4.9085C51.3245 4.63196 51.7008 4.4678 52.0983 4.44607C52.374 4.44607 52.8142 4.81259 52.8604 5.07291C52.8899 5.27504 52.8786 5.48105 52.8272 5.67873C52.7757 5.87641 52.6851 6.06177 52.5607 6.22382C51.7609 7.12639 50.9457 8.04781 49.9917 8.77911C48.8511 9.65771 48.7004 10.5791 49.1936 11.8739C49.7262 13.2714 50.0499 14.7495 50.4558 16.1949C50.7864 17.3853 50.5209 18.1542 49.5259 18.8736C48.6045 19.5398 47.6659 20.182 46.6674 20.8825C48.8939 22.0557 50.6357 23.544 50.8087 26.2997C51.5588 26.2997 52.2833 26.3219 53.0043 26.2997C54.2408 26.2517 55.0749 26.7724 55.6024 27.9027C56.2875 29.3671 57.0616 30.7868 57.7518 32.2477C57.9779 32.729 58.2416 32.9208 58.7794 32.9037C60.1255 32.8643 61.4751 32.8506 62.8178 32.9243C63.1775 32.9448 63.6091 33.2497 63.83 33.5528C63.9722 33.7463 63.8917 34.2464 63.7256 34.4776C63.6197 34.6044 63.4892 34.7085 63.342 34.7835C63.1949 34.8586 63.034 34.9031 62.8692 34.9144C61.273 34.952 59.6751 34.9418 58.0738 34.9144C57.1284 34.899 56.5187 34.3646 56.1128 33.5442C55.3626 32.0354 54.5714 30.5454 53.8606 29.0194C53.6071 28.4748 53.292 28.2846 52.7114 28.3343C52.1034 28.3857 51.4886 28.3463 50.7967 28.3463V29.1495C50.7967 33.5716 50.8052 37.992 50.783 42.4124C50.783 42.9262 50.9354 43.178 51.4201 43.351C52.4477 43.7209 53.4547 44.1525 54.4703 44.5584C55.8901 45.1253 56.2823 45.7076 56.284 47.2524C56.284 51.6505 56.284 56.0486 56.296 60.4399C56.3035 60.8197 56.4053 61.1917 56.5923 61.5223C57.4486 63.0021 58.3427 64.4544 59.2127 65.9256C59.3617 66.1756 59.5929 66.5045 59.5278 66.7237C59.4199 67.0936 59.1716 67.58 58.8633 67.693C58.555 67.8061 57.9162 67.6263 57.7501 67.3659C56.5838 65.5437 55.4825 63.6803 54.4155 61.7998C54.2203 61.4572 54.2443 60.9606 54.2443 60.5358C54.2317 56.1377 54.2317 51.7419 54.2443 47.3483C54.2443 46.8345 54.1055 46.5759 53.614 46.4046C52.6515 46.0621 51.7112 45.6631 50.8583 45.3257C50.4319 47.6395 50.139 49.9498 49.5653 52.1883C47.928 58.5868 44.5814 63.9697 39.6095 68.3422C37.1039 70.5463 33.8601 70.5515 31.3614 68.3422C25.0022 62.7452 21.5084 55.6616 20.4448 47.3158C20.402 46.9732 20.3952 46.6307 20.3609 46.2882C20.3267 45.9456 20.2839 45.6562 20.2359 45.2606C19.1347 45.7007 18.0522 46.1169 16.999 46.5827C16.8397 46.653 16.7438 47.0246 16.7438 47.2558C16.7284 51.4262 16.6992 55.5965 16.7523 59.7668C16.7678 61.0257 16.516 62.1183 15.8104 63.1699C14.954 64.4356 14.2262 65.78 13.4332 67.0833C13.0187 67.7684 12.433 67.9756 11.9072 67.6571C11.3814 67.3385 11.2598 66.7322 11.6657 66.0472C12.5615 64.5383 13.4863 63.0483 14.3632 61.5292C14.551 61.1999 14.654 60.8291 14.6629 60.4502C14.6834 56.0521 14.6766 51.654 14.6766 47.2627C14.6766 45.6887 15.0654 45.1253 16.54 44.5344C17.5984 44.1097 18.662 43.702 19.7067 43.2465C19.9019 43.1608 20.1451 42.8851 20.1451 42.695C20.1674 38.0006 20.1605 33.3079 20.1537 28.6135C20.137 28.5233 20.11 28.4354 20.0732 28.3514C19.2956 28.3514 18.4993 28.3223 17.7097 28.3737C17.5385 28.3857 17.3175 28.6477 17.2165 28.8447C16.4355 30.3621 15.6562 31.8812 14.9198 33.4209C14.4197 34.4657 13.6387 34.9623 12.481 34.9401C11.1348 34.9144 9.78694 34.9401 8.43907 34.9401H8.37056C7.50224 34.9195 7.01756 34.5598 7.00043 33.9279C6.98331 33.2959 7.47656 32.9003 8.33632 32.8917C9.52319 32.8797 10.7152 32.8352 11.8969 32.9071C12.6557 32.9534 13.0273 32.6913 13.3356 32.008C13.9778 30.5762 14.7519 29.2043 15.4267 27.7863C15.9148 26.7587 16.6958 26.286 17.8142 26.3014C18.5643 26.3117 19.3162 26.3014 20.1383 26.3014C20.3095 23.5885 22.0308 22.0591 24.3 20.8859C23.3341 20.2111 22.4367 19.5912 21.5478 18.9609C20.4123 18.1542 20.1537 17.4195 20.5373 16.0682C21.0306 14.3162 21.517 12.5624 22.0496 10.8223C22.2106 10.3 22.1472 9.95743 21.7379 9.57036C20.611 8.50509 19.532 7.39186 18.4342 6.29404C18.0728 5.93267 17.8553 5.52505 18.0797 5.00612C18.1399 4.85647 18.2361 4.72402 18.3598 4.62051C18.4835 4.517 18.6309 4.44564 18.7888 4.41277C18.9468 4.3799 19.1103 4.38653 19.2651 4.43208C19.4198 4.47762 19.5609 4.56067 19.6759 4.67386C21.0917 6.03371 22.4766 7.42383 23.8308 8.8442C24.3805 9.42136 24.36 10.1681 24.1476 10.908C23.6167 12.7662 23.1046 14.6313 22.548 16.4827C22.4178 16.9108 22.4983 17.1403 22.8631 17.3853C24.0363 18.1731 25.1838 19.0003 26.3501 19.7984C26.5214 19.92 26.7629 20.0587 26.9564 20.0399C27.996 19.9388 29.0304 19.7915 29.945 19.6751C30.3646 18.4677 30.7619 17.3167 31.1661 16.1676C31.199 16.0337 31.2656 15.9104 31.3596 15.8096C32.2382 15.0714 31.858 14.3487 31.411 13.5574C29.1691 9.58749 26.1018 6.33686 22.6371 3.42875C22.0959 2.9749 21.5272 2.5553 20.9655 2.12542C19.9739 1.36842 19.9379 0.820366 20.8233 0H21.5084C26.5813 3.61372 30.8082 7.993 33.7557 13.5523C34.9357 13.0214 36.0883 13.0848 37.2272 13.53C40.185 7.96389 44.4016 3.59659 49.4591 0H50.1441ZM26.6464 32.4036C26.8074 34.1908 27.3631 35.9199 28.2734 37.4662C29.0715 38.8192 30.0032 40.0918 30.7996 41.4448C32.6835 44.6474 33.9047 48.1241 34.9425 51.6694C35.0384 51.9999 35.309 52.2791 35.4992 52.5822C35.6704 52.2893 35.9033 52.0153 36.013 51.6985C36.8076 49.472 37.5252 47.2164 38.373 45.0105C39.3766 42.4004 40.9608 40.102 42.5245 37.8036C42.8876 37.2693 43.4802 37.1443 43.9563 37.4388C44.4324 37.7334 44.5677 38.3517 44.2166 38.9408C44.0077 39.2937 43.7833 39.6362 43.5435 39.9684C41.4507 42.88 39.9761 46.0981 38.8526 49.4874C38.7721 49.7289 38.695 50.0458 38.784 50.2581C39.7226 52.4846 40.7553 54.6768 42.3327 56.5368C42.8602 57.1602 43.5761 57.6483 44.268 58.1056C44.7133 58.3984 45.0781 58.2117 45.3418 57.6774C47.3834 53.6121 48.5082 49.1485 48.637 44.6012C48.7569 39.9993 48.7123 35.3956 48.738 30.792C48.738 30.6652 48.7243 30.5368 48.7106 30.3313C48.1626 30.6738 47.7122 31.0163 47.2052 31.2458C46.6434 31.4942 46.3489 31.799 46.378 32.4601C46.402 32.9517 46.265 33.4535 46.1742 33.945C46.044 34.6386 45.5902 34.988 44.989 34.8904C44.3879 34.7928 44.0727 34.291 44.1532 33.6127C44.1995 33.2171 44.2509 32.8232 44.304 32.4002C44.1602 32.4009 44.0167 32.4101 43.8741 32.4276C41.9469 32.831 39.9564 32.824 38.0322 32.407C36.5635 32.0732 35.0446 32.0226 33.557 32.258C31.9693 32.5132 30.3458 32.5817 28.7358 32.6519C28.0765 32.6879 27.4017 32.5064 26.6464 32.4036ZM40.9591 30.7098V30.619C41.3693 30.6404 41.7803 30.6404 42.1905 30.619C43.9837 30.4306 45.6775 29.9562 47.1573 28.8652C49.1559 27.3923 49.2484 25.3423 47.3576 23.7735C46.97 23.4549 46.5471 23.182 46.0971 22.96C43.6086 21.7166 40.9882 21.5333 38.2994 22.0917C36.698 22.4256 35.1069 22.5763 33.4816 22.2629C32.4575 22.0412 31.4186 21.8946 30.3732 21.8245C28.318 21.7303 26.3313 22.1208 24.509 23.1381C24.1706 23.3281 23.8526 23.5525 23.5602 23.8077C21.7173 25.4005 21.7978 27.4198 23.788 28.855C26.2062 30.5967 28.9722 31.0061 31.8118 30.5111C34.1838 30.0984 36.4959 29.8791 38.8543 30.4837C39.5359 30.6516 40.2604 30.6413 40.9626 30.7149L40.9591 30.7098ZM22.2431 30.357C22.2329 30.5505 22.2175 30.679 22.2175 30.8091C22.2175 34.7739 22.1918 38.7405 22.2175 42.7053C22.2603 47.7748 23.1765 52.6627 25.4184 57.2629C25.9785 58.4087 26.3861 58.508 27.4239 57.7442C27.6246 57.5938 27.8125 57.4271 27.9857 57.2458C29.9398 55.2505 31.0788 52.7655 32.1732 50.2564C32.2571 50.0629 32.1937 49.7683 32.1201 49.5474C30.9777 46.1426 29.4894 42.9142 27.4017 39.965C25.7404 37.617 24.7025 35.0188 24.5347 32.1124C24.522 31.9976 24.4861 31.8864 24.4293 31.7858C24.3725 31.6851 24.2959 31.597 24.2041 31.5267C23.6098 31.126 22.9676 30.7817 22.2466 30.3621L22.2431 30.357ZM27.09 60.2344C28.6927 62.8049 30.6921 65.1055 33.0141 67.0508C34.4322 68.2308 36.3178 68.3045 37.7547 67.1792C40.2175 65.2525 42.1871 62.8736 43.8689 60.2412C40.6765 58.8711 39.3424 55.9305 37.7873 53.1697C36.4411 55.3105 34.1804 54.9474 33.1905 53.1525C31.6217 55.9116 30.3081 58.8608 27.0934 60.2395L27.09 60.2344ZM38.7789 19.8155C38.6076 18.3358 38.1829 16.9485 37.0491 15.8867C36.0506 14.9533 34.8655 14.9653 33.8756 15.9158C32.7743 16.9759 32.3479 18.3443 32.1834 19.8155C34.3187 20.5647 36.6448 20.5683 38.7823 19.8258L38.7789 19.8155Z" fill="currentColor"/>
</svg>
