<svg width="70" height="70" viewBox="0 0 70 70" fill="none" xmlns="http://www.w3.org/2000/svg">
<g clip-path="url(#clip0_55_2217)">
<path d="M31.6325 0H37.091C37.3798 0.0461426 37.6669 0.114501 37.9574 0.135009C42.7426 0.476806 47.3466 1.5022 51.6481 3.68115C54.9977 5.38159 57.9081 7.66479 59.8307 10.9102C63.0453 16.3396 65.672 22.0186 66.2428 28.4478C66.6718 33.2859 66.4616 38.0454 64.7338 42.6494C64.592 43.0271 64.4689 43.4116 64.3322 43.8098C65.144 44.1755 65.913 44.5037 66.6684 44.866C67.4545 45.2419 67.7126 45.8179 67.4152 46.4417C67.1178 47.0654 66.5419 47.1953 65.7062 46.8313C65.0619 46.5476 64.4228 46.2519 63.7665 46.0007C63.6264 45.946 63.329 46.0007 63.2658 46.1016C62.6881 47.0483 62.1464 48.0156 61.5995 48.9658C62.5736 49.699 63.57 50.3501 64.445 51.1345C65.4142 52.028 66.336 52.9715 67.2067 53.9612C67.3144 54.0651 67.3988 54.1906 67.4544 54.3295C67.5101 54.4684 67.5357 54.6175 67.5296 54.767C67.5234 54.9165 67.4857 55.063 67.4189 55.1969C67.352 55.3308 67.2576 55.449 67.1418 55.5437C66.6923 55.9436 66.0651 55.8855 65.5644 55.3728C65.2499 55.0464 64.9782 54.6772 64.6689 54.3474C63.3756 52.9603 61.8874 51.7686 60.2511 50.8098L58.0295 53.3579C59.6684 55.4189 61.2646 57.3997 62.8266 59.4077C63.3273 60.0537 63.2299 60.6946 62.683 61.0911C62.1703 61.4636 61.5141 61.2876 61.0458 60.6553C60.4237 59.8144 59.8359 58.9463 59.1659 58.1414C58.2687 57.0681 57.3083 56.0461 56.3632 54.99C56.0829 55.219 55.9137 55.3711 55.7326 55.5027C53.7792 56.9485 51.8156 58.3806 49.8725 59.8401C49.4653 60.1493 49.0994 60.5094 48.7839 60.9116C47.5312 62.4993 46.3913 64.186 45.0497 65.6968C43.2536 67.7151 41.2353 69.4856 38.4411 70.0137H36.9389C36.2826 69.7231 35.6298 69.4224 34.9667 69.1472C34.8307 69.0959 34.6806 69.0959 34.5446 69.1472C33.8832 69.4224 33.2287 69.7231 32.5724 70.0137H31.0719C28.7956 69.5642 27.0285 68.2705 25.4101 66.6812C23.5805 64.8717 21.9615 62.8611 20.5839 60.6877C20.4274 60.4429 20.2276 60.2286 19.9943 60.0554C17.9128 58.5173 15.8193 56.9946 13.7309 55.4668C13.56 55.3369 13.3891 55.1968 13.1908 55.0481C11.3896 56.7366 9.88737 58.6147 8.50822 60.5972C8.02629 61.291 7.36662 61.4773 6.83342 61.0979C6.26945 60.6946 6.19767 60.0571 6.71891 59.3582C7.64347 58.1191 8.58341 56.8904 9.56266 55.6941C10.1916 54.9268 10.9042 54.2261 11.5912 53.4827L9.26872 50.8166C9.07732 50.9311 8.903 51.032 8.73381 51.1396C6.95991 52.257 5.37762 53.6529 4.04777 55.2737C3.53507 55.8992 2.86173 55.9795 2.38151 55.5574C1.90128 55.1353 1.83976 54.4534 2.39689 53.8706C3.42228 52.8042 4.44767 51.748 5.54655 50.7637C6.2797 50.104 7.13078 49.5759 7.92887 48.988C7.37004 48.0173 6.85393 47.0825 6.28996 46.1785C6.21135 46.052 5.861 45.9802 5.69523 46.0417C4.95182 46.3203 4.24943 46.7253 3.49406 46.939C3.29602 46.9858 3.09017 46.9892 2.89072 46.9488C2.69126 46.9083 2.50294 46.8251 2.33878 46.7048C2.10636 46.4946 2.02434 45.9478 2.10978 45.6094C2.18498 45.3206 2.55583 45.0488 2.86003 44.8916C3.61369 44.4985 4.39812 44.1755 5.22185 43.8064C4.06846 41.0083 3.3759 38.0418 3.17107 35.0222C2.88225 30.6523 3.34197 26.3748 4.93303 22.2766C6.55144 18.1306 8.72184 14.2546 11.099 10.5137C12.0509 9.01489 13.2985 7.65967 14.5939 6.43262C18.34 2.88135 22.9303 1.10913 27.977 0.410155C29.1989 0.229003 30.4191 0.129883 31.6325 0ZM18.5365 51.2234C19.9943 55.3455 21.8263 59.1104 24.518 62.366C25.8561 63.9827 27.4506 65.3994 29.0263 66.7991C29.8469 67.5115 30.9155 67.8714 31.9999 67.8005C32.9091 67.7544 33.4577 67.3682 33.6491 66.6487C30.9882 65.8301 28.9613 64.1211 27.319 61.9268C26.4235 60.7305 25.7262 59.4094 25.6647 57.8782C25.4477 52.5 26.1364 47.2449 27.9872 42.1743C28.4043 41.0921 28.8771 40.0322 29.404 38.999C29.7201 38.3513 30.3268 38.1599 30.8822 38.4402C31.4069 38.7051 31.5966 39.2708 31.3608 39.9014C31.2719 40.1355 31.1403 40.3525 31.0566 40.585C30.3508 42.5486 29.5544 44.4883 28.9733 46.4895C28.2812 48.8718 28.006 51.3396 27.9001 53.9219C29.3578 53.3596 30.7114 53.6792 31.9675 54.2825C33.8713 55.1985 35.6879 55.1814 37.5917 54.2825C38.829 53.6946 40.1552 53.3596 41.5907 53.9116C41.6073 53.6436 41.6073 53.3747 41.5907 53.1067C41.3429 51.2576 41.1515 49.3982 40.8097 47.5679C40.3086 44.9731 39.4487 42.4607 38.2548 40.103C37.8703 39.3357 38.0702 38.7 38.6991 38.4231C39.2973 38.1582 39.8476 38.4231 40.2236 39.1682C40.4765 39.6809 40.7209 40.1936 40.9465 40.7063C42.8981 45.2197 43.7321 49.9741 43.8859 54.8567C43.9303 56.2786 44.0243 57.7996 43.6039 59.1172C42.476 62.6616 39.9228 64.9841 36.539 66.4197C36.3202 66.5137 36.0912 66.582 35.8656 66.6624C36.2365 67.5869 37.1764 67.9851 38.3488 67.7493C39.7826 67.4622 40.9208 66.647 41.9753 65.6848C44.8361 63.0752 47.0373 59.9648 48.7582 56.5161C49.5939 54.8379 50.2963 53.0879 51.1081 51.2302C49.9323 50.9124 48.9103 50.6321 47.8866 50.3604C47.08 50.1467 46.6903 49.6597 46.8288 49.0376C46.9672 48.4155 47.5124 48.0618 48.3173 48.2361C49.4367 48.4805 50.539 48.8 51.6908 49.0906C51.831 48.5693 51.9745 48.0327 52.1283 47.4619C51.8412 47.3987 51.6157 47.332 51.402 47.3064C50.5903 47.2107 49.7768 47.1355 48.965 47.0381C48.3053 46.9612 47.8764 46.5083 47.8952 45.9324C47.914 45.3564 48.3805 44.9189 49.0265 44.8711C49.2085 44.8654 49.3906 44.8717 49.5717 44.8899C51.7302 45.0205 53.8558 45.4816 55.8744 46.2571C57.1442 46.7288 58.3815 47.2825 59.6923 47.8362C60.205 46.9817 60.7177 46.105 61.2526 45.2112C61.0817 45.1531 61.0236 45.124 60.9587 45.1086C57.8381 44.3242 54.6559 43.9858 51.4567 43.7534C51.0636 43.7244 50.5834 43.5586 50.3356 43.2834C50.1374 43.0647 50.1186 42.5452 50.2194 42.2239C50.3903 41.677 50.9235 41.53 51.4516 41.5864C53.9792 41.8616 56.5102 42.1299 59.0309 42.4614C60.0956 42.6033 61.1415 42.8989 62.1669 43.1177C62.2105 43.0638 62.2499 43.0066 62.2848 42.9468C64.7372 36.873 64.7475 30.6421 63.3529 24.3599C62.5668 20.8206 60.9023 17.623 59.3334 14.3879C57.0365 9.64893 53.3041 6.55225 48.5002 4.63306C45.3624 3.40956 42.0607 2.65742 38.7026 2.40112C34.331 2.02685 29.9765 2.04224 25.6801 3.03003C19.9584 4.34595 15.4347 7.43066 12.4201 12.5149C10.7846 15.2698 9.24309 18.093 7.87077 20.9863C4.83049 27.3916 4.52116 34.0413 6.49503 40.8105C6.72746 41.6086 7.05559 42.3794 7.31193 43.0903C9.04997 42.7673 10.6701 42.4067 12.309 42.1777C14.2436 41.9163 16.1935 41.7539 18.1401 41.595C18.9245 41.53 19.4508 42.0085 19.4662 42.6597C19.4816 43.3108 19.0202 43.697 18.2511 43.7688C16.4413 43.9397 14.6264 44.073 12.8251 44.3123C11.3298 44.5088 9.85319 44.8369 8.23137 45.1326L9.86345 47.8379C11.1896 47.2859 12.4081 46.7339 13.6591 46.2673C15.698 45.4807 17.8468 45.016 20.0285 44.8899C20.2562 44.8692 20.4854 44.8738 20.7121 44.9036C21.3085 45.0078 21.6606 45.3958 21.6435 45.9871C21.6264 46.5784 21.2829 46.9595 20.6693 47.0313C19.5944 47.1543 18.5212 47.2705 17.3932 47.3953C17.5812 48.0686 17.735 48.6086 17.8905 49.1692C18.1657 49.0786 18.3776 48.9983 18.5964 48.9368C19.5363 48.6821 20.4762 48.3984 21.4213 48.1968C21.5607 48.1616 21.7057 48.1554 21.8476 48.1783C21.9895 48.2013 22.1251 48.253 22.2463 48.3303C22.3675 48.4076 22.4715 48.5089 22.5521 48.6278C22.6327 48.7468 22.6882 48.881 22.715 49.0222C22.8517 49.5879 22.5168 50.1074 21.8742 50.3022C21.6572 50.3672 21.4299 50.3945 21.2111 50.4543C20.3378 50.7056 19.4714 50.9619 18.5365 51.2234ZM34.601 64.6406C35.0233 64.5654 35.441 64.4661 35.852 64.3433C37.561 63.7041 38.8871 62.5471 40.039 61.1714C40.7892 60.2742 41.4164 59.2915 41.654 58.1311C41.9684 56.593 40.8302 55.5266 39.3263 55.9624C38.7402 56.1333 38.1899 56.4751 37.5968 56.5674C36.1784 56.8032 35.5119 57.5056 35.852 58.9805C35.8554 59.0031 35.8554 59.0262 35.852 59.0488C35.7956 59.7546 35.3683 60.1853 34.736 60.1716C34.1344 60.158 33.7106 59.7376 33.6798 59.0608C33.6525 58.5618 33.6918 58.0593 33.6593 57.5603C33.6491 57.3894 33.5448 57.1296 33.4218 57.0852C32.2255 56.6614 31.0292 56.2546 29.8107 55.8889C29.1493 55.6873 28.6247 55.9607 28.2111 56.5076C27.6215 57.2869 27.7633 58.1003 28.1034 58.9002C29.0314 61.0706 30.6071 62.6753 32.6203 63.8425C33.2799 64.2168 34.0353 64.4133 34.6095 64.6338L34.601 64.6406ZM13.2472 51.9941C14.0607 51.4404 14.8332 50.9294 15.5817 50.3843C15.6501 50.3216 15.7031 50.2439 15.7366 50.1573C15.7701 50.0708 15.7832 49.9777 15.7748 49.8853C15.6415 49.2734 15.4535 48.6736 15.2621 47.9695L11.1879 49.658L13.2472 51.9941ZM56.2777 51.9941L58.3559 49.6511L54.2697 47.9797C54.0714 48.6907 53.8869 49.2734 53.757 49.8596C53.7435 49.9525 53.752 50.0472 53.7816 50.1362C53.8113 50.2253 53.8614 50.3061 53.9279 50.3723C54.6833 50.9209 55.4506 51.4319 56.2863 51.9993L56.2777 51.9941ZM16.5524 52.3445L14.8571 53.5715L17.9162 56.0427L18.0238 55.9539L16.5524 52.3445ZM51.5199 55.947L51.6447 56.041L54.6799 53.5613L52.9709 52.365L51.5199 55.947Z" fill="currentColor"/>
<path d="M17.4478 39.4998C17.106 39.8416 16.8634 40.2415 16.5045 40.4124C16.3958 40.4681 16.2766 40.5005 16.1546 40.5074C16.0326 40.5143 15.9105 40.4955 15.7962 40.4524C15.6819 40.4093 15.5779 40.3427 15.4909 40.2569C15.4039 40.1711 15.3359 40.0681 15.2911 39.9544C14.5391 38.1121 12.9805 37.5823 11.2288 37.3191C10.9583 37.2855 10.6913 37.2283 10.4307 37.1482C9.89412 36.9637 9.6053 36.5706 9.67878 35.9998C9.75739 35.4017 10.159 34.9949 10.7435 35.0564C12.9652 35.2889 15.1168 35.7742 16.5284 37.7566C16.877 38.242 17.0975 38.8282 17.4478 39.4998Z" fill="currentColor"/>
<path d="M59.8738 36.2475C59.8276 36.726 59.5115 37.0661 58.9594 37.1875C58.2759 37.3378 57.5717 37.4335 56.8984 37.6301C55.7636 37.9582 54.8664 38.5871 54.376 39.7338C54.0769 40.4345 53.4634 40.6567 52.8857 40.3713C52.3081 40.0859 52.1304 39.4894 52.4243 38.799C53.313 36.7072 55.0527 35.7605 57.1394 35.2939C57.6277 35.1866 58.1211 35.1038 58.6177 35.0461C59.3286 34.9641 59.8943 35.4751 59.8738 36.2475Z" fill="currentColor"/>
</g>
<defs>
<clipPath id="clip0_55_2217">
<rect width="70" height="70" fill="currentColor"/>
</clipPath>
</defs>
</svg>
