<svg width="70" height="70" viewBox="0 0 70 70" fill="none" xmlns="http://www.w3.org/2000/svg">
<path d="M19.4751 69.9973C18.3157 69.6638 17.1425 69.2234 16.5869 68.112C16.0597 67.0357 15.6711 65.897 15.4302 64.723C14.3514 59.8183 14.1092 54.7665 14.714 49.7811C15.6442 42.2347 18.3129 35.3318 22.5348 29.0312C23.6613 27.3545 24.9195 25.7671 26.179 24.0533C25.1514 24.1178 24.147 24.1645 23.1481 24.2591C22.9821 24.2756 22.8229 24.4897 22.6816 24.6323C21.4632 25.8672 20.2585 27.1021 19.0264 28.3219C18.7787 28.5812 18.4689 28.7729 18.1263 28.8789C17.2221 29.0998 16.3001 29.259 15.3822 29.4044C14.6248 29.5252 14.1308 29.2137 14.0197 28.6127C13.99 28.4652 13.9939 28.3129 14.0311 28.167C14.0683 28.0212 14.1378 27.8856 14.2346 27.7703C14.3313 27.655 14.4527 27.5629 14.5899 27.5009C14.727 27.4389 14.8763 27.4086 15.0268 27.4122C16.9999 27.3655 18.3555 26.3296 19.5547 24.9054C20.168 24.1754 20.9103 23.5553 21.5524 22.8473C21.7405 22.6352 21.9717 22.4657 22.2305 22.3502C22.4894 22.2348 22.77 22.1759 23.0534 22.1777C24.1511 22.1365 25.2351 22.0405 26.3272 21.9993C26.7045 21.9842 26.8966 21.8621 26.9748 21.4697C27.0695 21.0087 27.2493 20.5628 27.3988 20.0537C26.0816 19.5378 24.7919 18.9931 23.4637 18.528C23.1294 18.4249 22.8199 18.2541 22.5543 18.0264C22.2888 17.7986 22.0729 17.5187 21.9201 17.2039C21.3535 16.0898 20.7264 15.0086 20.0747 13.9357C19.8687 13.6267 19.5847 13.3777 19.2514 13.2139C18.7479 12.9574 18.1853 12.8229 17.6667 12.591C17.148 12.3591 16.9175 11.9311 17.0781 11.3644C17.1108 11.2366 17.1696 11.1169 17.2506 11.0129C17.3317 10.9088 17.4333 10.8225 17.5492 10.7594C17.665 10.6964 17.7926 10.6578 17.924 10.6462C18.0554 10.6346 18.1878 10.6502 18.3129 10.6921C19.2016 10.973 20.0754 11.299 20.9309 11.669C21.1737 11.7733 21.3727 12.0559 21.5154 12.3029C22.2343 13.5378 22.9135 14.8055 23.6421 16.039C23.8026 16.3037 24.0393 16.5137 24.3212 16.6414C25.5863 17.1724 26.8623 17.6457 28.1356 18.1328C28.7105 18.3551 29.5516 17.75 29.6202 17.1367C29.7121 16.3135 29.8946 15.4902 30.0016 14.667C30.0261 14.484 29.9889 14.2982 29.896 14.1387C29.0453 12.8449 29.059 11.6429 29.9303 10.393C30.0359 10.2407 30.1183 9.95115 30.0455 9.81394C28.5719 7.03137 26.7169 4.58771 23.8493 3.09078C22.1904 2.22637 20.4191 1.93 18.5544 2.10288C17.8437 2.16874 17.4032 1.89982 17.2811 1.35922C17.1316 0.703366 17.5034 0.187467 18.2608 0.0927936C20.3291 -0.178677 22.4318 0.148448 24.3199 1.03541C27.4853 2.5049 29.6394 5.01442 31.3778 7.95341C31.4557 8.06573 31.5237 8.18463 31.5809 8.30877C31.8279 8.96325 32.2203 9.33372 32.9845 9.44348C33.945 9.58069 34.5748 10.2585 34.9782 11.1421C35.0602 11.3068 35.2043 11.4321 35.3788 11.4906C35.457 11.5112 35.645 11.2917 35.7081 11.149C36.1732 10.1007 36.9745 9.47915 38.0941 9.34469C38.5058 9.2953 38.6773 9.11555 38.846 8.79586C40.0027 6.60054 41.4406 4.62064 43.3327 2.9961C45.7297 0.93799 48.4903 -0.118507 51.6722 0.0187004C51.9017 0.0264703 52.1307 0.0461643 52.3582 0.0777007C53.117 0.188839 53.5053 0.603206 53.438 1.21652C53.3708 1.82984 52.8892 2.11249 52.1428 2.1166C51.1453 2.1166 50.1286 2.10151 49.1572 2.28811C46.5008 2.79715 44.4921 4.38464 42.8456 6.44275C42.0553 7.43476 41.4296 8.55712 40.7203 9.61499C40.5158 9.91959 40.5337 10.1378 40.7738 10.4506C41.6259 11.5633 41.6108 12.8613 40.841 14.0756C40.7244 14.2581 40.7367 14.5558 40.7656 14.7905C40.8547 15.5067 41.04 16.2147 41.0784 16.9309C41.1154 17.739 41.9016 18.3716 42.6343 18.0876C43.8692 17.6114 45.1041 17.1559 46.3183 16.6469C46.6212 16.5127 46.8765 16.2904 47.051 16.0089C47.7618 14.8179 48.3915 13.5762 49.127 12.4003C49.4084 12.0045 49.7862 11.6872 50.2246 11.4783C50.8064 11.1764 51.4499 10.9953 52.0715 10.7744C52.822 10.5068 53.3941 10.7113 53.6054 11.3081C53.8085 11.8789 53.5327 12.5005 52.8151 12.6583C51.2949 12.993 50.3454 13.8931 49.8226 15.3091C49.0227 17.4866 47.4709 18.7626 45.233 19.2977C44.5786 19.4555 43.9639 19.7807 43.3121 20.0359C43.4782 20.5847 43.5962 21.1171 43.8116 21.6083C43.8884 21.7853 44.1916 21.9499 44.4057 21.9692C45.4713 22.0606 46.5397 22.1256 47.6108 22.164C47.9051 22.1657 48.1957 22.2291 48.464 22.3501C48.7322 22.4711 48.9721 22.647 49.1681 22.8665C50.3111 24.0739 51.4746 25.2635 52.6765 26.4119C53.0285 26.7126 53.4442 26.9294 53.8922 27.0458C54.4534 27.216 55.053 27.2612 55.6334 27.3765C56.3798 27.5261 56.7434 27.9624 56.6583 28.5784C56.5732 29.1945 56.0834 29.5156 55.3274 29.4017C54.4054 29.2576 53.4847 29.0985 52.5832 28.8789C52.2397 28.7767 51.9283 28.5876 51.6791 28.3301C50.4291 27.0952 49.2189 25.8302 47.9635 24.6049C47.718 24.3876 47.4102 24.2532 47.084 24.2207C46.0233 24.1151 44.9545 24.0753 43.7004 23.9984C43.9748 24.3428 44.1491 24.5651 44.3288 24.7805C48.6041 29.8664 51.7908 35.7751 53.6919 42.1414C53.7893 42.4666 53.8387 42.9207 53.6837 43.1773C53.5738 43.3247 53.4354 43.4485 53.2768 43.5413C53.1182 43.6342 52.9425 43.6942 52.7602 43.7179C52.2512 43.7742 51.9631 43.3804 51.7998 42.9098C51.24 41.325 50.7309 39.7169 50.0943 38.1624C48.417 34.0946 46.1604 30.2908 43.3945 26.8688C43.2682 26.7124 43.1324 26.5629 42.9993 26.4078C42.493 26.9649 42.0526 27.5439 41.5188 28.0186C40.0095 29.3674 38.2053 30.0767 36.1924 30.2139C35.7246 30.2469 35.4803 30.3704 35.328 30.8533C34.1673 34.5401 32.9091 38.1967 31.8032 41.8999C29.5049 49.5835 31.3916 56.1516 37.3464 61.4959C40.7546 64.557 44.7967 66.5245 49.1709 67.817C50.5183 68.2163 51.8039 67.5193 52.1565 66.1705C53.3756 61.5125 53.8092 56.6838 53.4394 51.8831C53.3365 50.5234 53.1197 49.1719 52.9564 47.8177C52.8577 46.9944 53.1485 46.5156 53.7797 46.4291C54.4108 46.3427 54.8307 46.7035 54.9652 47.4678C55.5895 51.0352 55.8255 54.6273 55.4838 58.2194C55.2259 60.9292 54.7113 63.6185 54.2256 66.3009C53.8812 68.1998 52.6944 69.4018 50.8064 69.8806C50.746 69.8957 50.698 69.9533 50.6431 69.9904H49.1338C49.0809 69.9492 49.0228 69.915 48.961 69.8889C44.5497 68.654 40.509 66.6837 36.9196 63.8229C36.2652 63.3015 35.6436 62.739 34.9919 62.1764C34.679 62.4508 34.4074 62.7349 34.1014 62.9681C32.8899 63.8929 31.6811 64.8204 30.4448 65.7123C29.885 66.1157 29.2689 66.0004 28.9355 65.5215C28.5815 65.0111 28.7297 64.4239 29.3321 64.0027C29.5735 63.8325 29.837 63.6898 30.0702 63.5101C31.2543 62.599 32.433 61.6784 33.6376 60.7467C33.4428 60.4929 33.3344 60.3502 33.226 60.2089C29.4473 55.3558 28.0121 49.8799 29.2127 43.8537C29.7615 41.148 30.7522 38.5328 31.5685 35.8847C32.1613 33.9638 32.8034 32.0525 33.4236 30.1001C30.8304 29.4909 28.7819 28.219 27.4551 25.8014C27.3727 25.9303 27.3302 26.0127 27.2726 26.084C17.7874 37.8166 14.3353 50.9762 17.7655 65.7836C18.1908 67.6181 19.4353 68.3137 21.2451 67.7045C22.5581 67.2668 23.8438 66.7441 25.1472 66.2734C25.6961 66.0745 26.2449 66.3091 26.4452 66.8223C26.6565 67.3711 26.4919 67.8047 25.9952 68.1065C25.8181 68.2084 25.6321 68.2938 25.4395 68.3617C23.954 68.9106 22.4671 69.4567 20.9789 70L19.4751 69.9973ZM35.7918 17.6101C33.6678 17.6005 32.1037 18.1054 30.8702 19.0672C28.3881 21.0018 28.1658 24.1549 30.3597 26.309C32.9667 28.8748 37.8211 28.8542 40.4088 26.2651C42.2995 24.3758 42.3668 21.67 40.5378 19.7203C39.9289 19.0679 39.1949 18.5448 38.3795 18.1823C37.5641 17.8197 36.684 17.6251 35.7918 17.6101ZM39.0326 16.227C38.6375 14.5092 36.9485 13.4486 35.0536 13.6201C33.2164 13.7765 31.843 14.8399 31.7606 16.1982C34.1631 15.3311 36.5629 15.3407 39.0326 16.227ZM33.0627 11.905C32.6854 11.3562 32.2395 11.2066 31.7442 11.5249C31.2804 11.8199 31.2338 12.2617 31.4903 12.7721L33.0627 11.905ZM39.2371 12.779C39.4511 12.1821 39.3743 11.7266 38.8405 11.4673C38.3384 11.2272 37.9487 11.4248 37.6304 11.8981L39.2371 12.779Z" fill="currentColor"/>
</svg>
