<svg width="70" height="70" viewBox="0 0 70 70" fill="none" xmlns="http://www.w3.org/2000/svg">
<g clip-path="url(#clip0_55_2193)">
<path d="M14.8982 70C14.1653 69.3424 14.1105 69.1214 14.4855 68.1624C17.5354 60.3667 20.5664 52.5642 23.6643 44.7874C24.0987 43.7385 24.7002 42.7669 25.4452 41.9102C27.8426 39.105 30.3274 36.3752 32.6957 33.7087C32.3361 32.4585 32.0005 31.294 31.6511 30.0763C31.2862 30.1316 30.9365 30.2612 30.6237 30.4571C30.3109 30.653 30.0416 30.911 29.8325 31.2152C29.2058 32.1057 28.6561 33.0528 28.0721 33.9742C27.9565 34.1957 27.8182 34.4046 27.6594 34.5975C27.5077 34.7727 27.2963 34.8853 27.0663 34.9135C26.8362 34.9416 26.604 34.8834 26.4145 34.75C25.9401 34.4588 25.8305 33.9913 26.024 33.4963C26.2152 33.0728 26.4285 32.6595 26.6628 32.2581C26.5845 32.2453 26.5047 32.2453 26.4264 32.2581C21.6984 34.44 16.9566 36.5961 12.2542 38.8327C10.8123 39.5385 9.55426 40.5698 8.57924 41.8452C8.14256 42.4 7.997 42.9789 8.29326 43.6228C8.58951 44.2668 9.12722 44.5202 9.82419 44.5853C13.446 44.9278 16.4839 43.5201 19.1845 41.3228C20.7651 40.0384 22.147 38.5091 23.6232 37.0928C23.8492 36.877 24.0838 36.5447 24.3424 36.5173C24.7272 36.476 25.1138 36.5764 25.4298 36.7999C25.8254 37.1202 25.7911 37.6271 25.4794 38.0347C25.0705 38.5828 24.6326 39.1087 24.1677 39.6103C21.6401 42.2853 18.8163 44.5767 15.34 45.8886C13.3125 46.6575 11.1719 46.9418 9.0279 46.5051C6.32907 45.9536 5.22968 42.9943 6.83767 40.7491C7.93379 39.2192 9.39088 37.9838 11.0794 37.1527C14.9718 35.2278 18.9122 33.397 22.8594 31.5834C25.2757 30.4719 27.7399 29.4615 30.288 28.362C30.0586 28.2216 29.9079 28.1137 29.7435 28.0315C28.0567 27.1855 26.3819 26.3069 24.666 25.5226C24.1757 25.3083 23.6298 25.2561 23.1077 25.3736C19.914 26.1956 16.7339 27.069 13.5591 27.9647C12.5093 28.286 11.3797 28.2254 10.3705 27.7934C7.30175 26.5244 4.20563 25.3136 1.12321 24.0789C0.886716 23.9978 0.660327 23.8897 0.448505 23.7569C0.0323781 23.4589 -0.121747 23.0479 0.090597 22.5581C0.16595 22.3393 0.320286 22.1566 0.523341 22.0457C0.726396 21.9349 0.963536 21.9038 1.18829 21.9587C1.45463 22.0172 1.71449 22.1021 1.96402 22.2121C5.04644 23.4435 8.12886 24.7022 11.2216 25.8942C11.7469 26.0849 12.3164 26.1182 12.8604 25.9901C16.1414 25.1458 19.4105 24.245 22.6762 23.3407C23.6234 23.0557 24.6451 23.1579 25.5171 23.625C26.6662 24.2227 27.8341 24.7844 29.1561 25.4438C28.9848 25.0687 28.8872 24.8324 28.7776 24.6012C26.6782 20.1331 24.5513 15.6787 22.4964 11.19C22.1432 10.382 21.9506 9.51296 21.9295 8.63139C21.8525 6.30913 21.9038 3.98345 21.9038 1.65777C21.9038 1.47623 21.8936 1.29299 21.9038 1.11145C21.9672 0.42642 22.3936 -0.0154244 22.9639 0.00170138C23.5341 0.0188272 23.94 0.45896 23.9434 1.16797C23.9554 3.69745 23.9434 6.22693 23.9605 8.75641C23.9553 9.20979 24.0439 9.65935 24.2208 10.0768C26.7689 15.5422 29.3325 20.9996 31.9114 26.4491C31.9577 26.5484 32.0176 26.6426 32.1152 26.8224C32.3584 26.3532 32.5861 25.9524 32.7659 25.5311C32.7756 25.4584 32.7704 25.3845 32.7506 25.3139C32.7309 25.2432 32.6971 25.1773 32.6512 25.1201C31.2967 23.2363 31.5415 21.5631 33.3824 20.1759C33.4447 20.1211 33.502 20.0609 33.5537 19.9961C33.0725 19.0387 32.5005 18.1516 31.5981 17.518C31.4491 17.4118 31.2949 17.3125 31.1545 17.1977C30.6905 16.8192 30.5809 16.2575 30.8771 15.8122C31.1734 15.367 31.7779 15.1529 32.2471 15.5211C33.0281 16.1677 33.7757 16.8536 34.487 17.5762C34.658 17.7713 34.8099 17.9824 34.9408 18.2064C35.5932 17.4871 36.1926 16.7833 36.8399 16.1274C37.1212 15.8615 37.4432 15.6424 37.7937 15.4783C38.3075 15.2197 38.7732 15.3156 39.1157 15.8003C39.1925 15.9071 39.2467 16.0285 39.2748 16.157C39.3029 16.2856 39.3044 16.4185 39.2792 16.5477C39.254 16.6768 39.2027 16.7994 39.1283 16.908C39.054 17.0166 38.9582 17.1087 38.8469 17.1789C37.8912 17.8077 37.1166 18.6756 36.6001 19.6964C36.5488 19.7957 36.5111 19.9002 36.4683 19.9961C36.8059 20.2724 37.1267 20.5686 37.429 20.8832C38.3931 21.9998 38.4941 23.6473 37.5797 24.7844C37.1875 25.2725 37.1652 25.6116 37.5043 26.0774C37.6413 26.323 37.7559 26.5803 37.8468 26.8464C37.9924 26.5724 38.102 26.3874 38.1893 26.1922C40.7009 20.8615 43.2068 15.528 45.707 10.1916C45.9106 9.73785 46.0178 9.24684 46.0221 8.74956C46.0546 6.35195 46.0358 3.96461 46.0392 1.57043C46.0392 1.32039 45.9655 1.00527 46.0871 0.834015C46.3149 0.51205 46.6437 0.0839048 46.9622 0.0547909C47.2807 0.0256771 47.7054 0.371619 47.9606 0.662757C48.1198 0.844291 48.0839 1.2262 48.0839 1.51905C48.0839 3.88926 48.1386 6.26118 48.0633 8.62797C48.0433 9.5106 47.8514 10.3809 47.4982 11.19C45.4432 15.6787 43.3147 20.1331 41.2118 24.6012C41.1073 24.8238 41.0114 25.0499 40.8419 25.4335C41.9807 24.8684 43.0133 24.418 43.9825 23.8614C45.2309 23.1438 46.4639 23.0616 47.8475 23.4692C50.93 24.3734 54.0244 25.1938 57.1325 25.9884C57.6765 26.1166 58.2463 26.0827 58.7713 25.8908C61.9119 24.6817 65.0286 23.4058 68.1538 22.1556C69.0905 21.7806 69.3286 21.8354 69.9999 22.5495V23.2346C69.6574 23.5069 69.3388 23.8751 68.9433 24.036C65.8506 25.3034 62.7305 26.509 59.6395 27.7849C58.6318 28.2205 57.5029 28.2872 56.4509 27.9733C53.2777 27.0776 50.0891 26.2316 46.9108 25.3513C46.6397 25.2692 46.355 25.242 46.0733 25.2714C45.7916 25.3008 45.5186 25.3862 45.2703 25.5226C43.6126 26.3789 41.9344 27.1975 40.2665 28.0332C40.0953 28.1188 39.936 28.225 39.6997 28.3655C41.9259 29.3279 44.0716 30.2082 46.1779 31.1775C50.4333 33.135 54.6905 35.0925 58.8963 37.1527C60.5865 37.9772 62.0461 39.2075 63.1449 40.7337C64.7615 42.972 63.6775 45.9862 60.9838 46.4948C58.0897 47.0394 55.3018 46.4657 52.7417 45.0443C48.4983 42.686 45.0477 39.4835 42.6382 35.2175C41.8779 33.8714 41.0559 32.5596 40.2031 31.27C39.9957 30.9515 39.7226 30.681 39.4022 30.4766C39.0818 30.2722 38.7214 30.1387 38.3451 30.0849C38.0026 31.3008 37.6601 32.4671 37.3022 33.7155C39.6706 36.382 42.1553 39.1119 44.5528 41.9171C45.2969 42.775 45.8982 43.7471 46.3337 44.7959C49.4316 52.5728 52.4626 60.3804 55.5125 68.1692C55.8858 69.1283 55.8327 69.3492 55.0998 70.0068H54.4148C54.1391 69.6335 53.7692 69.2961 53.6065 68.8799C50.5703 61.1733 47.5787 53.4667 44.5305 45.7704C44.1214 44.8119 43.5695 43.9209 42.8934 43.1279C41.6262 41.5763 40.2511 40.1138 38.9188 38.6152C38.5626 38.2145 38.2013 37.8155 37.8245 37.3942C37.7715 37.4986 37.7355 37.5363 37.7372 37.5654C37.7397 37.7023 37.75 37.839 37.768 37.9747C38.5386 43.3265 38.2527 48.6407 37.2663 53.9428C36.8108 56.3918 35.8741 58.7569 36.0008 61.3069C35.9993 61.4398 35.9713 61.5709 35.9184 61.6928C35.8654 61.8146 35.7887 61.9247 35.6927 62.0164C35.5966 62.1082 35.4832 62.1798 35.3591 62.2271C35.235 62.2744 35.1027 62.2964 34.9699 62.2919C34.8372 62.2873 34.7067 62.2563 34.5861 62.2005C34.4655 62.1448 34.3573 62.0655 34.2678 61.9674C34.1783 61.8693 34.1093 61.7542 34.0649 61.629C34.0205 61.5038 34.0015 61.371 34.0092 61.2384C34.1513 59.3546 33.5502 57.5941 33.153 55.8044C31.9936 50.6358 31.5039 45.4227 31.9936 40.136C32.0775 39.242 32.1837 38.3498 32.2967 37.2983C32.0364 37.5723 31.8823 37.7281 31.7368 37.8925C30.2075 39.6051 28.6338 41.292 27.1696 43.0645C26.4631 43.8913 25.8889 44.8226 25.4675 45.8252C22.409 53.5147 19.4191 61.2384 16.3915 68.933C16.2356 69.3286 15.8777 69.642 15.6037 69.9948L14.8982 70ZM43.3712 32.164C43.3712 32.244 43.3798 32.3238 43.3969 32.402C45.2583 35.9864 47.6694 39.105 50.9711 41.5027C53.6887 43.4738 56.5639 44.9004 60.0471 44.5956C60.7903 44.5305 61.3862 44.3096 61.7013 43.6091C62.0164 42.9087 61.8092 42.347 61.3588 41.7818C60.3907 40.567 59.1731 39.5742 57.7883 38.8704C55.134 37.5226 52.4455 36.245 49.7398 34.9897C47.6694 34.0135 45.5563 33.1247 43.3712 32.164ZM33.6359 29.441C33.9492 30.4685 34.1907 31.4686 34.5726 32.4191C34.8072 33.0014 35.0863 32.9654 35.4288 32.4448C36.3895 31.0148 36.3775 27.9921 35.4288 26.5672C35.1274 26.1151 34.8038 26.0363 34.5966 26.5672C34.2352 27.4749 33.9698 28.4254 33.6359 29.441ZM36.0539 43.8009V41.5609H33.9167V43.8009H36.0539ZM36.0042 48.2023C36.0453 47.4076 36.0813 46.6781 36.1189 45.9382H33.8636C33.9099 46.714 33.9544 47.4453 33.9989 48.2023H36.0042ZM35.1685 35.4367H34.826C34.5657 36.74 34.3123 38.0415 34.0332 39.4167H35.9511C35.6823 38.0467 35.4254 36.7417 35.1685 35.4367ZM36.1395 22.9143C36.1418 22.7613 36.1133 22.6094 36.0557 22.4676C35.9981 22.3258 35.9125 22.1971 35.8041 22.0891C35.6957 21.9811 35.5667 21.896 35.4247 21.8389C35.2827 21.7818 35.1307 21.7538 34.9777 21.7567C34.8247 21.7596 34.6738 21.7932 34.5341 21.8556C34.3944 21.918 34.2686 22.0079 34.1644 22.1199C34.0601 22.2319 33.9794 22.3637 33.9272 22.5076C33.8749 22.6514 33.8521 22.8043 33.8602 22.9571C33.8758 23.2525 34.0055 23.5303 34.222 23.7319C34.4385 23.9334 34.7248 24.043 35.0205 24.0374C35.3163 24.0319 35.5983 23.9116 35.807 23.7021C36.0158 23.4925 36.135 23.2101 36.1395 22.9143ZM34.8945 54.2716H35.1034C35.3192 52.9701 35.535 51.6702 35.7593 50.3224H34.2352C34.4596 51.6737 34.677 52.9769 34.8928 54.2716H34.8945Z" fill="currentColor"/>
</g>
<defs>
<clipPath id="clip0_55_2193">
<rect width="70" height="70" fill="currentColor"/>
</clipPath>
</defs>
</svg>
