<svg width="70" height="70" viewBox="0 0 70 70" fill="none" xmlns="http://www.w3.org/2000/svg">
<g clip-path="url(#clip0_120_5)">
<path d="M32.2679 0C33.7044 0.574219 34.3661 1.7974 34.862 3.14636C35.2867 4.29844 35.6567 5.47057 36.0942 6.6099C36.3202 7.17703 36.5902 7.72558 36.9018 8.25052C37.0705 8.54854 37.3069 8.80276 37.5919 8.99273C37.8768 9.18271 38.2024 9.30312 38.5424 9.34427C39.6362 9.52656 40.7026 9.88021 41.8 10.0479C42.2995 10.1245 42.932 10.0862 43.3458 9.83646C44.4893 9.13872 45.5882 8.37039 46.6362 7.53594C48.4427 6.11771 50.1763 4.60469 51.9883 3.19557C53.1203 2.3151 54.358 1.55495 55.8164 1.33984C58.0768 0.997136 59.9143 2.67604 59.7739 4.96015C59.6481 6.99635 58.6437 8.68073 57.5299 10.3013C57.2036 10.7753 56.6804 10.8062 56.1883 10.5091C55.6961 10.212 55.5849 9.6651 55.8656 9.12916C56.3304 8.24505 56.8737 7.39557 57.2711 6.48229C57.519 5.89944 57.6526 5.27441 57.6648 4.64114C57.683 3.75885 57.0414 3.20469 56.1755 3.42344C55.3606 3.61432 54.5884 3.95558 53.8987 4.42969C52.2799 5.60182 50.7487 6.89609 49.1773 8.13385C47.8903 9.14557 46.6252 10.1974 45.2963 11.1398C43.8836 12.1352 42.3596 12.6164 40.6096 11.9109C39.8422 11.601 38.9799 11.4917 38.1505 11.3805C37.5351 11.3178 36.9444 11.1055 36.4299 10.762C35.9155 10.4185 35.4929 9.95427 35.1992 9.40989C34.5867 8.30338 34.1364 7.10391 33.6552 5.92995C33.3106 5.08958 33.0955 4.19271 32.7 3.37786C32.4612 2.88568 31.9909 2.50469 31.6244 2.07448C31.289 2.50651 30.8114 2.88932 30.6437 3.37969C30.0823 5.0112 29.6466 6.68464 29.1362 8.33437C28.8609 9.22396 28.5692 10.1099 28.2247 10.9703C28.0502 11.4081 27.786 11.8045 27.4491 12.1342C27.1123 12.4638 26.7102 12.7193 26.2687 12.8844C23.332 14.1057 20.6869 15.8211 18.6325 18.2492C16.6765 20.557 14.2575 21.1185 11.463 20.7083C9.71298 20.4495 7.98486 20.0266 6.23303 19.7786C5.42716 19.6673 4.60834 19.6913 3.81038 19.8497C3.00283 20.012 2.81324 20.506 3.31272 21.1568C4.07059 22.1484 4.90435 23.0797 5.80647 23.9422C7.53642 25.5828 9.35569 27.1396 11.0929 28.7857C11.6144 29.2952 12.0459 29.8894 12.369 30.543C13.1127 32.0214 12.5513 33.5034 10.9562 33.8844C9.44684 34.249 7.85725 34.2654 6.30595 34.4495C5.60045 34.5025 4.90016 34.6103 4.21142 34.7721C3.89605 34.8596 3.42756 35.2497 3.44397 35.4703C3.46949 35.8203 3.78486 36.3526 4.08564 36.4419C5.31793 36.8065 6.59033 37.0526 7.85179 37.3224C8.96012 37.5612 10.0885 37.7198 11.1804 38.0206C12.4838 38.3852 13.3333 39.2073 13.7799 40.5617C15.0068 44.3059 17.2293 47.6457 20.2093 50.2232C22.1216 51.9039 22.6047 53.7232 21.6677 56.1112C21.2739 57.1247 20.7125 58.0708 20.233 59.0516C20.0507 59.438 19.8539 59.8281 19.6862 60.2273C19.5185 60.6266 19.4145 61.024 19.8356 61.3393C20.2567 61.6547 20.7854 61.8716 21.283 61.5216C21.6888 61.2313 22.0509 60.8845 22.3586 60.4917C23.0385 59.6367 23.6346 58.718 24.331 57.8758C24.8415 57.2368 25.413 56.6489 26.0372 56.1203C27.1911 55.1687 28.5237 54.9172 30.0075 55.1961C38.8213 56.8586 46.2114 54.3539 52.0648 47.5089C53.4666 45.8682 55.1838 45.3013 57.251 45.7352C58.0932 45.9174 58.9099 46.2091 59.7502 46.4005C60.031 46.4643 60.5104 46.4789 60.6125 46.3258C60.8115 46.007 60.8825 45.6247 60.8112 45.2557C60.6783 44.8444 60.451 44.4699 60.1476 44.162C59.5388 43.4857 58.8625 42.8714 58.2445 42.2023C57.8193 41.7596 57.435 41.2795 57.0961 40.7677C56.0205 39.0724 56.3377 37.1456 58.0567 36.1302C59.3692 35.3573 60.8567 34.8651 62.2987 34.3328C63.6804 33.8224 65.1114 33.4469 66.5023 32.9602C66.9508 32.8034 67.3427 32.4825 67.7601 32.231C67.7601 32.1526 67.7601 32.0724 67.7601 31.9922C67.2862 31.7589 66.8359 31.4453 66.3364 31.3068C64.612 30.82 62.862 30.419 61.1375 29.9341C60.0886 29.6436 59.0576 29.2924 58.0495 28.8823C56.994 28.4466 56.3159 27.65 55.964 26.5125C55.1656 23.9151 53.8539 21.5044 52.1067 19.4232C51.3028 18.457 51.0604 17.3633 51.558 16.2549C52.176 14.8732 52.9745 13.568 53.7455 12.2646C54.0354 11.7779 54.7008 11.7359 55.1383 12.0458C55.248 12.1188 55.3422 12.2127 55.4156 12.3222C55.4889 12.4316 55.5399 12.5545 55.5657 12.6837C55.5914 12.813 55.5914 12.946 55.5656 13.0752C55.5398 13.2044 55.4887 13.3273 55.4153 13.4367C55.0252 14.1039 54.575 14.7365 54.1958 15.4091C53.8971 15.893 53.663 16.4139 53.4995 16.9586C53.4596 17.1378 53.456 17.3232 53.4888 17.5038C53.5217 17.6845 53.5904 17.8567 53.6909 18.0104C55.6072 20.421 57.0877 23.1477 58.0659 26.0677C58.1515 26.2833 58.28 26.4792 58.4436 26.6437C58.6071 26.8082 58.8023 26.9378 59.0174 27.0247C60.7601 27.5953 62.5375 28.0638 64.3039 28.5651C65.2153 28.8258 66.1487 29.0536 67.0528 29.3471C67.5499 29.5097 68.0264 29.7293 68.4729 30.0016C70.2357 31.0844 70.3286 33.0185 68.6096 34.1615C67.7628 34.6888 66.8534 35.1083 65.9026 35.4102C64.2966 35.968 62.645 36.3982 61.0336 36.945C60.3715 37.1815 59.7399 37.496 59.1523 37.882C58.5526 38.2648 58.414 38.8117 58.7677 39.426C59.1018 39.9645 59.4903 40.4672 59.9271 40.9263C60.6125 41.6883 61.3635 42.3846 62.0307 43.1612C62.6391 43.823 62.9807 44.6868 62.9896 45.5857C62.9896 47.7057 61.4875 48.9362 59.4312 48.4641C58.6127 48.2818 57.8125 48.0138 56.9976 47.8078C55.6359 47.4633 54.5367 47.8078 53.607 48.9289C49.4398 53.9602 44.0841 56.8531 37.6164 57.6607C34.9697 57.9901 32.2858 57.8525 29.6867 57.2542C28.6148 57.0099 27.7143 57.2687 27.0125 58.0307C26.1849 58.9294 25.4776 59.943 24.6919 60.8854C24.083 61.6146 23.507 62.4021 22.7888 63.0091C21.3961 64.1867 19.4164 63.9771 18.1823 62.6299C17.8476 62.2819 17.6186 61.846 17.5218 61.3729C17.425 60.8999 17.4644 60.4091 17.6354 59.9575C17.9052 59.1427 18.319 58.3753 18.6781 57.5878C19.0755 56.72 19.5403 55.8797 19.8721 54.9901C20.3078 53.8253 20.0106 52.7862 19.0645 51.9714C15.6518 49.0564 13.1123 45.2538 11.7273 40.9846C11.5013 40.3029 10.9744 40.0732 10.4093 39.9474C9.14606 39.6703 7.85725 39.5263 6.59762 39.2273C5.30517 38.9174 3.99085 38.6039 2.76949 38.0789C1.67574 37.6068 1.23095 36.5622 1.31116 35.3628C1.39137 34.1633 2.04032 33.3685 3.13407 32.9437C3.61589 32.7432 4.12224 32.6078 4.6398 32.5409C6.22027 32.3805 7.80986 32.3021 9.39215 32.1398C9.78955 32.0997 10.1687 31.8646 10.5552 31.7206C10.351 31.356 10.2216 30.9039 9.93173 30.6268C8.46064 29.2049 6.93121 27.8432 5.451 26.4341C4.30074 25.3404 3.1359 24.2466 2.09501 23.0453C1.58218 22.4385 1.22492 21.7158 1.05413 20.9398C0.704126 19.2992 2.09137 17.85 4.06376 17.6404C5.90856 17.4435 7.67314 17.9174 9.45595 18.2638C11.0601 18.5773 12.6625 18.9419 14.3177 18.6393C15.2202 18.4798 16.0385 18.0097 16.631 17.3104C18.954 14.639 21.8512 12.5277 25.1057 11.1344C25.875 10.8044 26.3453 10.3414 26.564 9.57396C27.0562 7.86953 27.532 6.16146 28.0351 4.46979C28.2302 3.81719 28.458 3.17187 28.7133 2.53932C29.1653 1.41094 29.8526 0.479425 31.0338 0.0145809L32.2679 0Z" fill="currentColor"/>
<path d="M59.6933 70C58.1694 69.6628 56.742 69.1341 55.5753 68.0404C54.1328 66.7178 53.257 64.8892 53.1308 62.9362C53.0885 62.6083 52.9538 62.2991 52.7425 62.0448C52.4174 61.6964 52.0723 61.3671 51.7089 61.0586C51.2186 60.5846 50.7027 60.1326 50.2597 59.6167C49.6509 58.9057 49.3191 58.0909 49.7748 57.1667C50.2524 56.2005 51.1201 55.8906 52.1118 56C53.1035 56.1094 54.117 56.3354 55.1233 56.5469C55.3507 56.6088 55.5892 56.6184 55.8209 56.5752C56.0526 56.5319 56.2715 56.4369 56.4613 56.2971C57.555 55.5133 58.8128 55.1797 60.1472 55.0211C60.7668 54.9414 61.3569 54.709 61.8644 54.3448C62.754 53.6813 63.5178 52.8537 64.3727 52.1409C64.9196 51.6797 65.5048 51.2039 66.1519 50.9068C67.2238 50.4146 68.3795 50.9888 68.5217 52.1573C68.6384 53.0542 68.4998 54.0057 68.3394 54.9117C68.1316 56.1422 67.767 57.3453 67.5428 58.5721C67.4581 59.0409 67.4887 59.5233 67.6321 59.9776C69.2727 64.8138 65.9678 69.331 61.755 69.907C61.6949 69.907 61.6438 69.9745 61.5873 70.011L59.6933 70ZM66.6204 53.1854L66.3998 53.0997C65.461 53.9529 64.5295 54.8115 63.5834 55.6518C62.6025 56.5419 61.3531 57.08 60.0324 57.1813C59.13 57.2669 58.2769 57.8284 57.3928 58.1492C56.8313 58.3534 56.2626 58.6013 55.6793 58.6542C55.1561 58.7016 54.6074 58.5211 54.0714 58.4263C53.3313 58.2951 52.5931 58.1492 51.853 58.0107L51.7654 58.2057C52.0097 58.4591 52.2431 58.7234 52.4946 58.9641C53.0415 59.4781 53.6194 59.9594 54.1516 60.488C54.7404 61.0732 55.1688 61.7313 55.2108 62.6281C55.3165 64.905 56.4194 66.5839 58.5084 67.4698C60.5975 68.3557 62.5918 68.0057 64.2597 66.449C65.9277 64.8922 66.3178 62.918 65.7181 60.6958C65.4993 59.8865 65.492 58.9969 65.523 58.1438C65.5485 57.4711 65.7746 56.8076 65.924 56.1385C66.1501 55.1615 66.3852 54.1734 66.6168 53.1854H66.6204Z" fill="currentColor"/>
<path d="M48.8561 45.5C48.4058 45.3341 47.9957 45.2138 47.6129 45.0388C46.432 44.4971 45.492 43.5396 44.9722 42.349C44.4524 41.1584 44.3892 39.8181 44.7946 38.5839C45.2001 37.3376 46.0524 36.2856 47.1873 35.6303C48.3222 34.9749 49.6595 34.7628 50.9415 35.0346C52.5694 35.3573 53.3806 34.6701 53.3277 33.0294C53.0397 24.0643 46.7743 16.8055 37.9441 15.2159C27.6993 13.3693 17.6113 20.9544 16.5595 31.3068C15.9415 37.388 17.8556 42.5578 22.185 46.8435C22.298 46.9565 22.4183 47.0604 22.5259 47.1789C22.9524 47.6565 22.967 48.2307 22.5696 48.6482C22.4794 48.7523 22.3682 48.8362 22.2432 48.8943C22.1182 48.9523 21.9823 48.9832 21.8446 48.9849C21.7068 48.9867 21.5702 48.9592 21.4438 48.9043C21.3174 48.8494 21.2041 48.7683 21.1113 48.6664C20.1397 47.6474 19.1298 46.6448 18.2967 45.5182C9.47561 33.5872 16.2423 16.1456 30.791 13.2836C36.1301 12.2092 41.6773 13.2967 46.2155 16.3076C50.7536 19.3184 53.912 24.0067 54.9975 29.3435C55.2368 30.5955 55.3751 31.8647 55.4113 33.1388C55.528 35.8841 53.3733 37.6633 50.6826 37.1073C48.4678 36.6497 46.5556 38.1464 46.6011 40.3029C46.6123 40.7707 46.7253 41.2305 46.9323 41.6502C47.1393 42.0699 47.4353 42.4395 47.7997 42.7331C48.1641 43.0267 48.5882 43.2373 49.0423 43.3503C49.4964 43.4633 49.9698 43.4759 50.4293 43.3872C50.5186 43.369 50.6116 43.3581 50.6954 43.3344C51.204 43.1904 51.6524 43.2633 51.9715 43.7208C52.3087 44.2112 52.1392 44.656 51.8293 45.1026C50.1741 47.4961 48.1488 49.5141 45.6423 50.9833C39.036 54.8516 32.2748 55.0648 25.4079 51.6852L25.3459 51.656C24.6569 51.2914 24.4071 50.7281 24.6787 50.1612C24.9504 49.5943 25.5428 49.4776 26.2683 49.782C27.5225 50.3052 28.7566 50.9396 30.0636 51.2677C37.173 53.056 43.2998 51.2549 48.4386 46.0323C48.5865 45.8619 48.7258 45.6842 48.8561 45.5Z" fill="currentColor"/>
<path d="M31.4601 32.6758C29.9057 32.6724 28.4157 32.0539 27.3158 30.9554C26.216 29.8569 25.5956 28.3677 25.5903 26.8133C25.5993 25.2704 26.2141 23.7929 27.3022 22.699C28.3902 21.6051 29.8645 20.9825 31.4073 20.9654C34.6047 20.938 37.2898 23.6195 37.2789 26.8297C37.2689 28.3724 36.6536 29.8494 35.5652 30.9429C34.4769 32.0363 33.0028 32.6586 31.4601 32.6758ZM31.4018 23.0635C30.4015 23.0732 29.4459 23.4794 28.7449 24.1931C28.0438 24.9067 27.6547 25.8694 27.663 26.8698C27.6851 27.8583 28.0901 28.7996 28.7927 29.4954C29.4952 30.1911 30.4405 30.587 31.4291 30.5995C32.4296 30.5937 33.3869 30.1912 34.091 29.4803C34.795 28.7694 35.1882 27.8083 35.1843 26.8078C35.1866 26.3119 35.09 25.8205 34.9003 25.3623C34.7106 24.9041 34.4316 24.4883 34.0795 24.1391C33.7274 23.7899 33.3093 23.5143 32.8495 23.3284C32.3898 23.1424 31.8977 23.0499 31.4018 23.0562V23.0635Z" fill="currentColor"/>
<path d="M28.5782 45.0206C28.5835 44.0315 28.9797 43.0846 29.6805 42.3866C30.3813 41.6885 31.3297 41.296 32.3188 41.2946C33.3081 41.3026 34.2547 41.6987 34.9549 42.3976C35.6551 43.0965 36.0531 44.0423 36.0631 45.0315C36.0578 46.0327 35.656 46.9909 34.9456 47.6965C34.2353 48.402 33.2744 48.7973 32.2732 48.7959C31.2844 48.7796 30.3419 48.3741 29.6502 47.6673C28.9584 46.9605 28.5732 46.0095 28.5782 45.0206V45.0206ZM33.9685 45.0097C33.9576 44.572 33.7766 44.1558 33.4638 43.8495C33.151 43.5431 32.7311 43.3708 32.2933 43.369C31.8562 43.3825 31.4412 43.5637 31.134 43.8749C30.8269 44.1861 30.6513 44.6035 30.6435 45.0407C30.6512 45.4895 30.836 45.9171 31.1577 46.2303C31.4794 46.5434 31.9118 46.7167 32.3607 46.7123C32.7975 46.6934 33.2098 46.505 33.51 46.1871C33.8101 45.8692 33.9746 45.4468 33.9685 45.0097V45.0097Z" fill="currentColor"/>
<path d="M25.8531 37.4299C25.8595 37.5659 25.8376 37.7017 25.7888 37.8287C25.74 37.9557 25.6653 38.0712 25.5695 38.1679C25.4737 38.2646 25.3589 38.3403 25.2323 38.3902C25.1057 38.4402 24.9701 38.4633 24.8341 38.4581C24.7038 38.4642 24.5735 38.4443 24.4509 38.3996C24.3283 38.3549 24.2158 38.2863 24.12 38.1978C24.0242 38.1093 23.9469 38.0025 23.8927 37.8839C23.8384 37.7652 23.8083 37.6369 23.8041 37.5065C23.7964 37.2318 23.895 36.9647 24.0794 36.7609C24.2639 36.5571 24.5198 36.4324 24.794 36.4128C25.0691 36.4079 25.335 36.5121 25.5335 36.7028C25.732 36.8934 25.8469 37.1548 25.8531 37.4299V37.4299Z" fill="currentColor"/>
<path d="M45.927 27.2817C45.7906 27.2811 45.6557 27.2531 45.5303 27.1994C45.4049 27.1458 45.2916 27.0675 45.1969 26.9693C45.1022 26.8711 45.0282 26.7549 44.9792 26.6276C44.9303 26.5003 44.9073 26.3644 44.9117 26.2281C44.9125 26.0915 44.9409 25.9565 44.995 25.8312C45.0492 25.7058 45.128 25.5926 45.2269 25.4984C45.3257 25.4041 45.4425 25.3307 45.5703 25.2826C45.6981 25.2345 45.8343 25.2126 45.9708 25.2182C46.2336 25.2347 46.481 25.3479 46.6651 25.5361C46.8493 25.7243 46.9572 25.9741 46.9679 26.2372C46.9637 26.5123 46.8528 26.775 46.6586 26.9699C46.4644 27.1648 46.2021 27.2766 45.927 27.2817V27.2817Z" fill="currentColor"/>
<path d="M62.7107 65.0635C62.4345 65.0658 62.1682 64.9612 61.9675 64.7716C61.7667 64.582 61.6469 64.3222 61.6333 64.0464C61.6323 63.7827 61.7319 63.5287 61.9117 63.3359C62.0916 63.1432 62.3382 63.0263 62.6013 63.0091C62.7379 62.995 62.8759 63.0093 63.0066 63.0513C63.1373 63.0933 63.2579 63.1619 63.3608 63.2529C63.4636 63.3439 63.5464 63.4552 63.6039 63.5799C63.6615 63.7046 63.6925 63.8398 63.695 63.9771C63.7034 64.1134 63.6844 64.2501 63.6392 64.379C63.594 64.5079 63.5234 64.6264 63.4317 64.7277C63.34 64.8289 63.2289 64.9107 63.1051 64.9684C62.9813 65.0261 62.8472 65.0585 62.7107 65.0635Z" fill="currentColor"/>
<path d="M58.2952 60.3076C58.57 60.3095 58.8329 60.42 59.0265 60.615C59.2201 60.81 59.3288 61.0736 59.3288 61.3484C59.3329 61.4789 59.3111 61.6089 59.2645 61.7309C59.2179 61.8528 59.1475 61.9643 59.0574 62.0588C58.9673 62.1533 58.8593 62.2289 58.7398 62.2813C58.6202 62.3337 58.4914 62.3617 58.3608 62.3638C58.0852 62.3748 57.8163 62.2773 57.6118 62.0922C57.4073 61.9072 57.2836 61.6493 57.2671 61.374C57.27 61.0986 57.3782 60.8348 57.5693 60.6365C57.7604 60.4382 58.0201 60.3206 58.2952 60.3076V60.3076Z" fill="currentColor"/>
</g>
<defs>
<clipPath id="clip0_120_5">
<rect width="70" height="70" fill="currentColor"/>
</clipPath>
</defs>
</svg>
