<svg width="70" height="70" viewBox="0 0 70 70" fill="none" xmlns="http://www.w3.org/2000/svg">
<g clip-path="url(#clip0_55_2214)">
<path d="M12.5902 0H15.3286C15.4785 0.0476645 15.6308 0.0872752 15.785 0.118663C21.2617 0.96208 25.0407 3.96516 27.1145 9.08956C27.3427 9.65184 27.5983 9.72851 28.1496 9.70113C30.1432 9.60255 32.1385 9.54413 34.1339 9.55143C35.0321 9.55143 35.9284 9.74859 36.8029 9.85448C36.841 9.80831 36.8758 9.75951 36.9069 9.70843C36.9508 9.60437 36.9909 9.49849 37.0311 9.3926C38.735 4.81162 41.9346 1.84201 46.63 0.483779C47.3438 0.277488 48.0904 0.158825 48.8079 0H51.6777C51.7995 0.050876 51.9253 0.0917815 52.0538 0.122314C57.8719 1.07527 61.8663 4.32115 63.5933 9.93115C65.3203 15.5412 63.8105 20.4355 59.5569 24.4628C58.133 25.81 56.4224 26.7046 54.5859 27.338C54.5713 27.4153 54.561 27.4933 54.5548 27.5717C54.5548 27.6849 54.5621 27.7981 54.5767 27.9113C54.8944 30.7008 54.4745 33.388 53.5581 36.0315C53.4303 36.4248 53.4303 36.8485 53.5581 37.2418C55.0751 41.4607 55.8893 45.7873 55.6648 50.2856C55.6703 50.4213 55.6837 50.5567 55.7049 50.6909C56.092 50.3549 56.406 50.0994 56.698 49.8219C58.3361 48.2375 59.6414 46.342 60.5372 44.2466C61.9083 41.1723 62.5326 37.8844 63.2975 34.6331C63.9164 32.0042 64.6101 29.39 65.3294 26.7831C65.4502 26.3152 65.7223 25.9004 66.1033 25.6032C66.4843 25.3061 66.9529 25.1432 67.4361 25.14C67.9382 25.1119 68.4366 25.241 68.862 25.5093C69.2873 25.7776 69.6185 26.1718 69.8094 26.637C69.855 26.7356 69.9153 26.8287 69.9682 26.9236V28.1541C69.7856 29.359 69.5264 30.5584 69.4333 31.7705C69.1649 35.2647 69.0682 38.7753 68.7031 42.2603C68.1846 47.3555 66.2403 51.8318 62.4742 55.4228C60.2598 57.5331 57.7277 59.1652 55.0057 60.5344C54.4435 60.8173 53.8721 61.082 53.2933 61.3668C54.0053 63.6579 53.5252 65.6369 51.9351 67.3456C49.4414 70.0237 44.8026 70.7686 41.4508 69.0635C41.1642 68.9062 40.8332 68.8496 40.5106 68.9028C35.0218 70.345 29.2535 70.345 23.7646 68.9028C23.4665 68.8404 23.1563 68.8749 22.8792 69.0014C19.6698 70.5093 16.5371 70.314 13.5815 68.4227C10.5766 66.5004 9.83543 63.1742 11.3123 60.5289C11.4164 60.3463 11.3415 59.9666 11.221 59.753C9.62731 56.8777 8.80762 53.7925 8.61776 50.5065C8.37131 46.2437 9.07234 42.1198 10.4123 38.0925C10.5297 37.7186 10.5214 37.3166 10.3886 36.9479C9.17822 34.0069 8.64698 30.9709 9.02305 27.8017C9.08329 27.2888 8.95185 27.0551 8.46077 26.8451C2.97125 24.4847 -0.469969 18.7724 0.0521471 12.9434C0.599821 6.7802 4.87533 1.79089 10.8048 0.390674C11.3981 0.244627 11.9951 0.120488 12.5902 0ZM12.9225 58.5901C13.105 58.4897 13.2182 58.435 13.3241 58.3619C15.5951 56.7627 18.1144 56.3301 20.809 56.8613C24.765 57.6463 27.0999 61.2427 26.1032 64.9924C25.9097 65.7227 25.5336 66.3963 25.2178 67.1503C29.8084 68.1882 34.574 68.177 39.1597 67.1174C39.0118 66.8728 38.9279 66.7395 38.8475 66.6026C36.8796 63.2399 38.2287 58.9352 41.8196 57.4181C44.9596 56.0873 47.9973 56.4341 50.8598 58.2926C51.0004 58.3857 51.1483 58.4751 51.3564 58.592C54.595 52.2134 54.0254 45.7819 52.0866 39.1678C51.8913 39.4544 51.7818 39.6534 51.6375 39.8214C50.3596 41.2818 49.2643 42.9358 47.8038 44.1388C39.8972 50.5831 31.1308 51.5544 21.7327 47.905C21.0025 47.6184 20.7433 47.047 21.0025 46.4537C21.2617 45.8604 21.8222 45.7234 22.5871 46.0502C26.5385 47.7613 30.8904 48.3305 35.1489 47.6932C40.6001 46.8936 45.2571 44.5587 48.7787 40.2522C51.957 36.3217 53.2349 31.818 52.3532 26.7739C51.8621 23.9589 50.6371 21.4706 48.8627 19.2398C48.3734 18.6246 48.4099 17.9947 48.9156 17.6168C49.4213 17.2389 49.9836 17.354 50.4491 17.9564C50.9537 18.5723 51.4114 19.2253 51.8183 19.9098C52.1195 20.4483 52.4079 20.4374 52.899 20.2238C54.3329 19.6033 55.5092 18.5077 56.2298 17.1215C56.9503 15.7352 57.1712 14.143 56.8551 12.6129C56.2818 9.71938 53.6804 7.44654 50.7211 7.2512C47.6578 7.05221 44.7916 8.96177 43.8332 11.8151C43.6981 12.2168 43.7693 12.4085 44.1381 12.6257C44.9577 13.1113 45.7555 13.6407 46.5369 14.1902C47.1411 14.6192 47.2562 15.2235 46.891 15.7182C46.5259 16.213 45.9326 16.2659 45.3247 15.8278C41.999 13.3529 38.0365 11.8779 33.902 11.576C26.9028 11.0283 20.6848 12.9324 15.7868 18.086C11.0604 23.0607 9.69304 28.9391 12.0499 35.4911C13.2365 38.7936 15.418 41.3932 18.1911 43.5145C18.8191 43.9965 18.9469 44.6098 18.5672 45.0973C18.1874 45.5847 17.5941 45.6267 16.9442 45.1338C15.2088 43.8354 13.6836 42.2776 12.4223 40.5151C12.3036 40.3471 12.1685 40.1883 11.9568 39.9218C10.2352 46.3241 9.79709 52.4909 12.9225 58.5901ZM41.7666 11.4062C43.5028 6.61225 47.7016 4.91446 51.015 5.22298C52.8291 5.39164 54.5469 6.11567 55.9344 7.29637C57.3219 8.47706 58.3115 10.0569 58.7683 11.8206C59.2335 13.5963 59.1196 15.4741 58.4433 17.1805C57.463 19.6852 55.6465 21.3794 53.1674 22.3396C53.5197 23.3601 53.8483 24.3167 54.1769 25.2605C59.6537 23.4003 62.9908 17.7318 62.0269 11.9995C61.5464 9.21533 60.0988 6.69 57.9391 4.8683C55.7795 3.04661 53.0463 2.04539 50.2209 2.041C45.0289 2.041 39.6526 6.0025 38.9224 10.3839L41.7666 11.4062ZM10.4945 22.1443C6.24086 19.4808 4.55038 16.1947 5.38284 12.2332C6.16054 8.50355 9.12162 5.79804 13.0229 5.24489C16.8712 4.69721 20.0222 6.67432 22.4246 11.1452L25.1338 10.2744C25.1934 10.2478 25.2493 10.2134 25.2999 10.1721C24.0348 5.87836 19.4471 1.6704 13.1872 2.07751C7.34534 2.45905 2.65725 7.04126 2.11505 12.9945C1.57285 18.9477 5.51793 23.5828 9.47396 24.9904C9.81169 24.0575 10.1513 23.1228 10.5018 22.1443H10.4945ZM20.4567 12.0671C19.6351 9.02749 16.5061 6.93537 13.3734 7.26763C10.0874 7.61632 7.48226 10.2762 7.26867 13.5166C7.07151 16.4813 9.07051 19.6286 11.546 20.211C13.7257 16.6548 16.7416 13.9949 20.4639 12.0671H20.4567ZM53.6366 58.9443C54.469 58.4952 55.3727 58.0315 56.2435 57.5295C59.7395 55.4793 62.7152 52.8961 64.6101 49.2322C66.2531 46.0721 66.7369 42.6382 66.9834 39.1459C67.2444 35.3578 67.1659 31.5424 67.8797 27.7908C67.9144 27.6082 67.7611 27.4056 67.6972 27.2121C67.531 27.3526 67.2718 27.4622 67.2152 27.6374C66.8829 28.6506 66.558 29.6711 66.3024 30.7081C65.4626 34.1767 64.7397 37.6726 63.8142 41.1139C62.4705 46.1068 60.0224 50.4079 55.5571 53.3179C55.4091 53.4163 55.2975 53.5606 55.2394 53.7286C54.6954 55.4556 54.1806 57.1844 53.6439 58.9443H53.6366ZM45.5146 58.7033L45.4616 58.5208C44.4265 58.8202 43.333 58.9918 42.3709 59.4445C40.8046 60.1747 40.0086 61.5257 39.9977 63.2782C39.9867 65.0582 40.821 66.3653 42.3709 67.2032C44.6784 68.4537 48.147 68.0339 50.1187 66.2904C52.1268 64.5287 52.0793 61.909 50.011 60.2204C48.7093 59.1542 47.1831 58.7216 45.5219 58.7033H45.5146ZM18.7023 58.7033C17.0373 58.7307 15.5075 59.167 14.2095 60.2478C12.174 61.9401 12.143 64.5269 14.1219 66.2831C16.1008 68.0393 19.5694 68.4519 21.8843 67.1959C23.4068 66.3708 24.2429 65.0819 24.2575 63.3275C24.2721 61.5731 23.4524 60.2843 21.9335 59.4354C20.9331 58.8749 19.8414 58.6924 18.7096 58.7033H18.7023Z" fill="currentColor"/>
<path d="M30.7635 34.8594C29.0876 34.3118 27.943 33.2694 27.2839 31.7194C26.3328 29.4776 27.22 27.475 29.5239 26.7174C31.068 26.1963 32.7445 26.2241 34.2704 26.7959C36.222 27.5133 37.0837 29.2586 36.4611 31.2393C35.9445 32.8677 34.8948 34.0562 33.2864 34.6732C32.8757 34.8302 32.8008 35.0383 32.8027 35.4144C32.8173 37.6672 32.8173 39.9187 32.8027 42.169C32.8027 42.8591 32.3864 43.2991 31.7968 43.31C31.2071 43.321 30.7781 42.8628 30.758 42.1325C30.758 41.9281 30.758 41.7236 30.758 41.5173L30.7635 34.8594ZM31.795 28.3403L31.7767 28.3987C31.4371 28.4316 31.0958 28.4517 30.7599 28.5046C30.5108 28.5401 30.2661 28.6013 30.0296 28.6871C29.1369 29.0285 28.8028 29.6693 29.0237 30.5784C29.3213 31.7998 30.6065 32.8969 31.7621 32.9152C32.9177 32.9334 34.2522 31.8198 34.5479 30.5602C34.756 29.6784 34.4457 29.0103 33.5822 28.7145C33.0126 28.521 32.3937 28.4608 31.795 28.3403Z" fill="currentColor"/>
<path d="M24.2666 27.2631C24.284 27.5574 24.284 27.8525 24.2666 28.1467C24.1972 28.7327 23.7482 29.1398 23.2187 29.0906C22.651 29.0358 22.2914 28.7127 22.2621 28.1285C22.2284 27.5399 22.2284 26.9499 22.2621 26.3613C22.2605 26.2348 22.2848 26.1093 22.3336 25.9926C22.3824 25.8759 22.4546 25.7705 22.5459 25.6829C22.6371 25.5952 22.7454 25.5273 22.8639 25.4832C22.9825 25.4391 23.1089 25.4199 23.2352 25.4266C23.8157 25.412 24.1735 25.7406 24.2557 26.312C24.2776 26.6287 24.2776 26.9465 24.2557 27.2631H24.2666Z" fill="currentColor"/>
<path d="M41.3284 27.2467C41.3284 27.5425 41.3485 27.8382 41.3284 28.1321C41.2791 28.7145 40.9322 29.0595 40.3645 29.0833C39.7967 29.107 39.3896 28.7839 39.3367 28.2106C39.281 27.5784 39.281 26.9425 39.3367 26.3102C39.386 25.7388 39.773 25.4102 40.3535 25.4266C40.9341 25.443 41.2663 25.7917 41.3284 26.3631C41.3503 26.6552 41.3266 26.9565 41.3284 27.2467Z" fill="currentColor"/>
</g>
<defs>
<clipPath id="clip0_55_2214">
<rect width="70" height="70" fill="currentColor"/>
</clipPath>
</defs>
</svg>
