<svg width="70" height="70" viewBox="0 0 70 70" fill="none" xmlns="http://www.w3.org/2000/svg">
<path d="M15.296 69.985C14.4157 69.333 14.357 68.8914 15.0609 68.0112C16.5303 66.1836 18.0093 64.3643 19.4746 62.5327C19.64 62.3276 19.8314 62.0788 19.856 61.8342C20.0473 59.9793 20.2004 58.1203 20.3726 56.1752C20.1498 56.2654 19.9913 56.3119 19.845 56.3912C15.6077 58.5659 11.0614 59.4695 6.35516 59.6417C3.72115 59.7387 2.50051 58.0793 3.18943 55.4781C3.73618 53.4278 4.8133 51.6276 5.96149 49.8739C9.25434 44.8492 13.1486 40.3056 17.1358 35.829C19.1862 33.5354 21.2871 31.295 23.3661 29.0301C23.5179 28.8647 23.6682 28.6952 23.8719 28.4683C22.9438 27.9598 22.0649 27.4472 21.1518 27.0044C20.9823 26.921 20.6378 27.0549 20.441 27.1889C18.7825 28.3106 17.1345 29.4497 15.4969 30.6061C15.0172 30.9451 14.5606 31.0627 13.9701 30.9041C11.3347 30.1988 8.68707 29.5372 6.04213 28.8538C5.222 28.6392 4.86387 27.9475 5.24523 27.3187C5.54595 26.8239 5.99703 26.7296 6.54925 26.8731C8.92491 27.4951 11.3101 28.0828 13.6803 28.7239C14.1998 28.8606 14.5675 28.769 14.9912 28.4656C16.6219 27.3037 18.2909 26.1952 19.9216 25.0306C20.5148 24.6068 21.037 24.5562 21.6767 24.9294C22.8727 25.6252 24.1029 26.2635 25.2989 26.9141C26.1368 26.3059 26.5893 25.606 26.6207 24.5193C26.6604 23.1675 26.9734 21.8238 27.1839 20.3763C26.0507 20.1644 24.8123 19.9361 23.5739 19.6997C20.9508 19.2008 21.3869 19.619 20.6009 17.0834C19.8737 14.7379 19.1698 12.3854 18.4139 10.0508C18.2725 9.62868 18.0221 9.25144 17.6881 8.95726C16.0095 7.52202 14.2982 6.12642 12.5882 4.72809C12.1699 4.38499 11.8788 4.00226 12.0537 3.43774C12.2806 2.70235 13.1035 2.50825 13.776 3.05364C15.2441 4.24284 16.6465 5.53045 18.1678 6.63627C19.5347 7.62317 20.3303 8.84244 20.7403 10.4718C21.2871 12.6506 22.0416 14.7789 22.6813 16.9358C22.8003 17.3349 22.9889 17.5372 23.4044 17.6015C24.3216 17.7382 25.2347 17.9186 26.156 18.0826C26.2585 17.5359 26.3528 17.0247 26.4594 16.456C26.3883 16.4014 26.2722 16.3016 26.1464 16.2168C23.9812 14.7638 23.1392 12.2118 24.0564 9.87307C24.9736 7.53432 27.3247 6.22483 29.8999 6.61577C30.7651 6.75245 31.5402 5.86807 31.2668 5.05751C30.8048 3.71795 29.863 2.7912 28.6697 2.09955C27.5844 1.47214 27.5078 0.842007 28.4277 0H29.1112C31.2832 1.11675 32.8825 2.72148 33.4319 5.13132H35.7898C36.4131 3.2327 36.8834 2.38523 38.0548 1.39833C38.6726 0.876178 39.3793 0.46201 40.0463 0H40.7298C41.7331 0.746324 41.6866 1.46258 40.6027 2.07768C39.3984 2.76113 38.443 3.66874 37.981 5.01377C37.6857 5.87628 38.4361 6.74152 39.3479 6.61166C41.2369 6.33829 42.8635 6.85497 44.1675 8.27654C44.7608 8.92308 44.8072 9.49991 44.3247 9.95509C43.8422 10.4103 43.2859 10.3173 42.6844 9.68171C41.5335 8.46927 39.8509 8.23827 38.5318 9.11171C37.9095 9.52371 37.4496 10.1392 37.2309 10.8528C37.0123 11.5664 37.0484 12.3338 37.3331 13.0238C37.4073 13.2235 37.5313 13.4009 37.6932 13.5394C37.8551 13.6779 38.0496 13.7728 38.2584 13.8152C39.051 14.0131 39.8238 14.283 40.5671 14.6217C41.0442 14.8472 41.4447 14.8636 41.8233 14.5684C42.2474 14.2306 42.642 13.8575 43.0029 13.453C43.4417 12.9691 43.9775 12.8379 44.4477 13.1646C44.5635 13.2396 44.6623 13.3381 44.7375 13.4538C44.8126 13.5695 44.8626 13.6997 44.8842 13.836C44.9057 13.9723 44.8983 14.1116 44.8624 14.2449C44.8266 14.3781 44.763 14.5023 44.676 14.6094C44.1292 15.2928 43.4786 15.8929 42.802 16.6023C42.858 16.9467 42.9387 17.4552 43.0439 18.0854C44.0787 17.8926 45.1394 17.7149 46.1878 17.4785C46.3245 17.447 46.4297 17.1299 46.4926 16.9317C47.3127 14.3059 48.0987 11.6692 48.953 9.05431C49.1286 8.52536 49.4385 8.05107 49.8524 7.67784C51.6622 6.11685 53.5253 4.61737 55.3665 3.09055C55.7916 2.73789 56.296 2.53012 56.717 2.93336C56.9767 3.18213 57.1106 3.67284 57.1065 4.05284C57.1065 4.29751 56.7785 4.57636 56.5434 4.77319C54.8498 6.19203 53.1343 7.58216 51.449 9.01056C51.1628 9.25662 50.9476 9.57469 50.8257 9.93185C49.955 12.6656 49.0897 15.3994 48.2914 18.1428C48.0481 18.9862 47.608 19.3867 46.7551 19.5179C45.1626 19.7612 43.5825 20.0865 41.9955 20.3777C42.1937 21.5163 42.3878 22.6043 42.5696 23.6937C42.6358 23.9618 42.6593 24.2385 42.6393 24.5139C42.463 25.6183 43.0576 26.3059 43.8982 26.9237C45.097 26.2703 46.3259 25.6293 47.5233 24.9335C48.1616 24.5631 48.6824 24.6082 49.2783 25.036C50.8872 26.1897 52.5438 27.2777 54.1486 28.4369C54.642 28.7936 55.0753 28.8551 55.6522 28.6993C57.9567 28.0733 60.2736 27.4951 62.5864 26.9046C63.3573 26.7077 63.8918 26.9565 64.064 27.5744C64.2281 28.1703 63.8672 28.6679 63.0935 28.8729C60.4308 29.5645 57.7709 30.2658 55.0958 30.9055C54.6627 30.9838 54.2159 30.8996 53.841 30.669C52.1269 29.5481 50.4511 28.3699 48.7835 27.1875C48.4418 26.9456 48.1794 26.895 47.8048 27.1178C47.0271 27.5853 46.2192 28.0008 45.3444 28.4847C45.5481 28.7116 45.7176 28.9071 45.8912 29.0957C50.7956 34.3049 55.5961 39.6003 59.962 45.2784C62.0834 48.0408 64.1761 50.8375 65.5157 54.088C65.8853 54.9893 66.1042 55.9452 66.1636 56.9175C66.2497 58.421 65.2218 59.5569 63.6594 59.5856C61.9773 59.6022 60.2962 59.4921 58.6306 59.2562C55.294 58.8147 52.0969 57.8661 49.1102 56.275C49.0215 56.2443 48.9299 56.2223 48.8368 56.2094C49.0132 58.1654 49.1786 60.0818 49.3699 61.9955C49.3877 62.1745 49.5668 62.3454 49.6939 62.5012C51.1637 64.3283 52.6359 66.154 54.1103 67.9784C54.8102 68.8463 54.7938 69.2386 53.9996 70H53.1795C52.984 69.7868 52.7694 69.5899 52.5944 69.3576C50.9747 67.3592 49.3453 65.3662 47.7556 63.3432C47.5071 62.9977 47.356 62.5917 47.3182 62.1677C47.0913 59.9028 46.9164 57.6323 46.7072 55.366C46.684 55.1091 46.6293 54.7769 46.4598 54.6252C45.4333 53.7053 44.3698 52.8263 43.2927 51.9133C43.1724 52.1525 43.0535 52.393 42.9346 52.6322C41.7385 55.0503 40.0737 57.0596 37.7923 58.529C37.1198 58.9623 36.517 58.894 36.1698 58.3677C35.8226 57.8415 35.9867 57.2742 36.6674 56.8245C39.0198 55.2854 40.5917 53.1339 41.6196 50.5505C41.6943 50.3915 41.7252 50.2154 41.7091 50.0405C41.693 49.8655 41.6305 49.6981 41.5281 49.5554C40.6396 48.075 39.7306 46.6001 38.9569 45.0597C37.8019 42.7551 37.0611 40.2947 36.6045 37.8725H32.6405C32.6081 37.9273 32.5858 37.9875 32.5749 38.0502C31.7642 42.1947 30.1097 46.1281 27.7142 49.6059C27.6423 49.7346 27.5975 49.8768 27.5827 50.0235C27.5678 50.1702 27.5833 50.3184 27.6281 50.4589C28.6068 53.0915 30.2033 55.2553 32.5735 56.8122C33.257 57.2619 33.4347 57.8128 33.0943 58.3527C32.754 58.8926 32.0924 59.0115 31.4295 58.4962C30.4644 57.7431 29.4393 57.009 28.6656 56.0796C27.598 54.7974 26.7396 53.3458 25.8252 52.0076C24.893 52.7976 23.8282 53.6847 22.7893 54.6047C22.6526 54.7304 22.5761 54.9915 22.5569 55.1965C22.3615 57.2824 22.1551 59.3669 22.0102 61.4569C21.9446 62.4247 21.704 63.2571 21.011 63.9788C20.415 64.6021 19.9175 65.3225 19.3707 65.9882C18.238 67.3186 17.1076 68.6509 15.9794 69.985H15.296ZM40.0026 21.0338C36.3598 22.2312 32.8346 22.2435 29.2041 21.0269C28.9936 22.2161 28.7941 23.367 28.5699 24.6027C30.2006 24.6738 30.8731 25.6962 31.3994 26.936C32.4036 29.2867 32.9189 31.8171 32.9139 34.3733C32.9139 35.6472 33.108 35.8769 34.3983 35.9288C34.8291 35.9199 35.2578 35.8668 35.6777 35.7702C36.1821 35.6814 36.3352 35.3998 36.3134 34.8599C36.2048 32.1417 36.703 29.4335 37.7718 26.9319C38.3022 25.6689 39.0143 24.6451 40.6519 24.5945C40.4277 23.3739 40.2186 22.223 40.0026 21.0338ZM50.9569 44.8464C50.9629 44.9128 50.9776 44.978 51.0006 45.0405C53.8556 49.0428 56.7147 53.0423 59.5779 57.0391C59.6872 57.1908 59.88 57.3617 60.0481 57.3767C61.0883 57.4724 62.134 57.5777 63.1769 57.5736C64.0285 57.5736 64.2581 57.3002 64.0832 56.4555C63.9198 55.6552 63.6577 54.8783 63.3027 54.1427C61.5448 50.5341 59.0448 47.4257 56.5707 44.301C56.5177 44.2345 56.4509 44.1803 56.3749 44.1421C56.2989 44.1039 56.2156 44.0825 56.1306 44.0796C54.4056 44.3202 52.6846 44.5867 50.9569 44.8464ZM18.3059 44.8464C16.5043 44.573 14.7834 44.312 13.0584 44.0796C12.9094 44.0591 12.6839 44.2163 12.5745 44.353C10.3465 47.1428 8.12528 49.9436 6.4235 53.1011C5.90315 54.0817 5.47748 55.1097 5.15228 56.1711C4.81603 57.2455 5.11265 57.5954 6.25264 57.5982C7.09054 57.5982 7.92844 57.4615 8.76772 57.4341C9.23109 57.4205 9.50037 57.2277 9.76008 56.8614C12.4173 53.117 15.0846 49.3809 17.7619 45.6529C17.9273 45.4082 18.0886 45.1663 18.3032 44.8492L18.3059 44.8464ZM23.6819 40.8824C21.8311 43.4795 20.0583 45.9796 18.2512 48.4591C18.1187 48.6227 18.0299 48.8172 17.9931 49.0245C17.9563 49.2318 17.9727 49.445 18.0407 49.6442C18.4221 51.048 18.7693 52.46 19.1342 53.8666C19.1873 54.0351 19.2503 54.2003 19.3229 54.3614C22.8864 52.4094 25.504 49.61 27.4518 46.0862L23.6819 40.8824ZM45.503 40.8824C44.2605 42.5992 43.0795 44.2108 41.9313 45.8456C41.8315 45.9823 41.878 46.3254 41.9791 46.5017C43.7561 49.621 46.1386 52.1757 49.251 54.0101C49.4533 54.129 49.6611 54.2274 49.9194 54.3573C50.1928 53.2938 50.3295 52.2823 50.7163 51.372C51.4298 49.6675 51.043 48.3388 49.888 46.9364C48.3324 45.0542 47.0079 42.9806 45.5043 40.8879L45.503 40.8824ZM54.7746 42.1864C54.7262 42.0839 54.67 41.9851 54.6065 41.8912C52.2463 39.2084 49.8816 36.5293 47.5123 33.8539C47.4473 33.7822 47.3676 33.7253 47.2787 33.6871C47.1898 33.6489 47.0937 33.6302 46.997 33.6324C45.8242 33.8566 44.6582 34.1204 43.4362 34.3828C43.5319 34.5523 43.5729 34.6562 43.6399 34.741C45.503 37.3531 47.377 39.9584 49.2223 42.5828C49.4957 42.971 49.806 42.9396 50.1682 42.8849C51.6745 42.6635 53.1808 42.4339 54.7746 42.1919V42.1864ZM25.7965 34.3951C24.6059 34.1354 23.5411 33.9236 22.4872 33.6652C22.0772 33.5641 21.8174 33.6734 21.5454 33.9837C19.2964 36.5507 17.0411 39.1114 14.7793 41.6657C14.6522 41.8105 14.5524 41.98 14.4034 42.1864C16.0546 42.4352 17.6266 42.658 19.1875 42.915C19.5976 42.982 19.7999 42.7974 20.0077 42.494C21.2379 40.7485 22.4886 39.0125 23.7311 37.2738C24.4009 36.3594 25.0584 35.4299 25.7937 34.3979L25.7965 34.3951ZM34.3259 20.0933L34.3724 19.9033C36.1575 20.0018 38.1887 19.645 39.5461 18.9465C40.1188 18.6513 40.8843 18.4093 40.8596 17.6316C40.8378 16.9071 40.1161 16.6392 39.542 16.4014C36.2751 15.0181 32.9918 15.1424 29.7236 16.4014C29.118 16.6337 28.3567 16.9071 28.3348 17.6521C28.3088 18.4558 29.1016 18.7757 29.7263 18.9602C31.2395 19.3949 32.7922 19.7188 34.3259 20.0933ZM28.4647 43.9866C30.4412 40.2742 31.4718 33.7732 30.4836 31.3675C28.6875 33.8826 26.9037 36.3744 25.139 38.8786C25.0996 38.9605 25.0804 39.0506 25.083 39.1415C25.0856 39.2323 25.11 39.3212 25.154 39.4007C26.2312 40.918 27.3247 42.4202 28.4647 43.9866ZM38.6015 31.2281C37.8634 35.8468 38.8749 39.9352 40.6983 44.0194L44.2523 39.126L38.6015 31.2281ZM28.9294 8.59639C27.4463 8.59639 26.1204 9.65847 25.8293 11.0759C25.519 12.5795 26.2544 14.0831 27.635 14.6709C27.8993 14.7658 28.1877 14.7706 28.4551 14.6845C29.3395 14.4112 30.217 14.105 31.0754 13.7592C31.3584 13.6443 31.6796 13.4215 31.8122 13.1618C32.8743 11.0718 31.301 8.59503 28.9294 8.59639ZM23.5493 31.8049C24.7084 32.0578 25.724 32.2997 26.7506 32.4883C26.9296 32.5198 27.2208 32.3694 27.3424 32.215C27.937 31.4399 28.4209 30.5747 29.0784 29.8571C29.8753 28.9932 29.9081 28.1812 29.2725 27.26C29.2219 27.1861 29.2 27.0932 29.1536 27.0153C28.9089 26.6121 28.5931 26.5505 28.2651 26.8909C26.7191 28.4888 25.1841 30.099 23.5493 31.8049ZM45.6383 31.8049C43.998 30.0976 42.463 28.4888 40.9157 26.8841C40.5835 26.541 40.25 26.6107 40.0354 27.0208C39.8002 27.4601 39.5996 27.9171 39.4353 28.3876C39.4116 28.491 39.4091 28.598 39.4279 28.7023C39.4467 28.8066 39.4864 28.906 39.5447 28.9946C40.2938 30.0799 41.0578 31.1542 41.8493 32.2095C41.9682 32.3694 42.2593 32.5211 42.4452 32.4829C43.4718 32.3038 44.486 32.0578 45.641 31.8022L45.6383 31.8049ZM17.4106 55.3947C17.0333 53.9281 16.6971 52.6254 16.3253 51.182L12.3326 56.7671L12.4337 56.9188L17.4106 55.3947ZM51.777 55.3947L56.7525 56.9134C56.7785 56.8532 56.8058 56.7944 56.8332 56.7343L52.8569 51.1847C52.4755 52.6514 52.1502 53.9417 51.777 55.3934V55.3947ZM33.9896 13.3491H35.2526C34.6676 11.1511 35.2527 9.31675 36.8629 7.73525C35.3319 6.96296 33.883 6.95065 32.3453 7.75439C34.0334 9.31948 34.4872 11.1949 33.9896 13.3491Z" fill="currentColor"/>
</svg>
