<svg width="70" height="70" viewBox="0 0 70 70" fill="none" xmlns="http://www.w3.org/2000/svg">
<path d="M53.5611 0.00342606C54.4174 0.782688 54.4277 1.26737 53.5765 2.07746C51.3963 4.15492 49.2024 6.21868 47.0376 8.30984C46.2726 9.06413 45.3418 9.62895 44.3196 9.95914C43.1772 10.3274 42.0503 10.735 40.8069 11.158C42.6908 12.1599 43.5711 13.6225 43.0882 15.64C42.6788 17.3527 41.4371 18.2416 39.817 18.4796L41.8979 22.5061C42.6874 22.1036 43.5917 21.6806 44.4531 21.1805C44.722 21.0247 44.9207 20.6873 45.0697 20.3927C46.2257 18.12 47.3219 15.8164 48.5259 13.5694C48.9365 12.8415 49.4755 12.1939 50.1169 11.6581C51.1702 10.7555 52.3245 9.9677 53.4446 9.1422C54.1297 8.64381 54.6743 8.66265 55.0768 9.17131C55.4793 9.67998 55.3474 10.2708 54.6572 10.7915C53.5474 11.6307 52.4119 12.4374 51.3261 13.3057C50.9367 13.6142 50.6149 13.9996 50.3807 14.4378C49.1967 16.7213 48.0406 19.0197 46.9125 21.3329C46.5167 22.1876 45.8285 22.8727 44.9721 23.2648C44.1243 23.6587 43.292 24.0852 42.4647 24.5185C42.3055 24.6024 42.0931 24.7857 42.0897 24.9295C42.0588 26.0102 42.0725 27.0926 42.0725 28.2675C42.7148 27.913 43.3039 27.6201 43.8571 27.2725C44.7135 26.7398 45.5441 26.7107 46.457 27.1149C48.0806 27.8359 49.711 28.545 51.3723 29.1786C51.8759 29.362 52.4228 29.3906 52.9428 29.2609C56.0787 28.3737 59.1957 27.4197 62.3196 26.4949C62.58 26.4178 62.9003 26.274 63.1109 26.3596C63.4534 26.4983 63.897 26.7501 63.9895 27.0447C64.082 27.3393 63.8542 27.7948 63.659 28.1117C63.5528 28.2829 63.2291 28.3463 62.9927 28.4182C59.8277 29.3722 56.6559 30.3124 53.4994 31.2715C52.5578 31.577 51.5364 31.5227 50.6324 31.1191C49.0242 30.4186 47.3955 29.7627 45.789 29.0639C45.4191 28.9029 45.1331 28.8926 44.7786 29.1033C44.0644 29.5469 43.3176 29.9391 42.5178 30.3895C42.8467 31.364 43.1704 32.3248 43.518 33.3507C43.7835 33.2856 44.0181 33.2308 44.251 33.1709C45.6006 32.8198 46.582 33.2822 47.1266 34.5633C49.2777 39.6065 51.4208 44.6548 53.556 49.7083C53.8573 50.4472 54.3511 51.0919 54.986 51.5752C56.3784 52.6473 57.74 53.7554 59.1067 54.8583C59.7507 55.3721 59.8705 55.9459 59.4732 56.446C59.3899 56.5555 59.2849 56.6466 59.1649 56.7138C59.0448 56.7809 58.9122 56.8226 58.7753 56.8363C58.6384 56.8499 58.5002 56.8353 58.3692 56.7932C58.2382 56.751 58.1173 56.6824 58.014 56.5915C56.363 55.2951 54.6863 54.0225 53.1209 52.6336C52.5009 52.0821 52.03 51.284 51.6943 50.5099C49.5757 45.6236 47.5154 40.7134 45.4345 35.8118C45.092 34.9966 45.092 34.9966 44.2048 35.3819C44.4703 36.216 44.7357 37.0586 45.0029 37.8995C46.7156 43.255 48.2998 48.6448 49.4952 54.1407C50.0244 56.571 50.4646 59.0098 50.021 61.5172C49.4661 64.6616 47.8425 67.0799 45.1228 68.7412C44.3781 69.1823 43.5958 69.5566 42.785 69.8596C41.8482 70.2243 41.2539 69.8441 41.182 68.8439C41.0347 66.7768 40.937 64.7044 40.8206 62.6355C40.7623 61.5891 40.7144 60.5409 40.6493 59.4945C40.6356 59.3856 40.6133 59.2779 40.5825 59.1725C39.3186 60.4605 38.0324 61.7141 36.8147 63.0346C36.2837 63.6169 35.8967 64.3328 35.4582 64.9956C34.9085 65.8314 34.0436 65.8622 33.564 64.987C32.8379 63.6631 31.8274 62.5996 30.7587 61.5617C29.9623 60.7893 29.2173 59.9586 28.4038 59.092C28.337 60.2018 28.2685 61.2808 28.2085 62.3615C28.0938 64.4304 28.0013 66.5027 27.866 68.5716C27.7787 69.9246 27.2237 70.2654 25.9718 69.7705C22.4334 68.373 20.0323 65.9341 19.1211 62.18C18.5988 60.0117 18.7889 57.8418 19.2136 55.6718C20.517 49.025 22.5071 42.57 24.576 36.1338C24.6582 35.8786 24.7284 35.62 24.8038 35.3682C23.9252 34.9897 23.9234 34.9897 23.5775 35.8015C21.4983 40.7043 19.4197 45.6071 17.3417 50.5099C16.9201 51.5482 16.2311 52.4565 15.3447 53.1422C13.9386 54.2315 12.5565 55.3516 11.1692 56.4665C10.7668 56.7902 10.3489 56.9683 9.8522 56.7012C9.14487 56.3209 9.13288 55.4852 9.8522 54.896C11.0511 53.9146 12.2414 52.911 13.4967 52.0033C14.5552 51.2395 15.2351 50.277 15.7232 49.0764C17.6774 44.3683 19.6966 39.6876 21.6918 34.9966C22.4848 33.1315 23.2007 32.7701 25.148 33.2582L25.4803 33.3404L26.5079 30.3861C25.6378 29.898 24.7952 29.403 23.9303 28.9577C23.7744 28.8772 23.4953 28.9577 23.3035 29.0348C21.661 29.7199 20.0203 30.4049 18.3915 31.1088C17.4899 31.5185 16.4685 31.5795 15.5245 31.2801C12.363 30.3193 9.18768 29.379 6.03295 28.4251C5.79489 28.3531 5.47292 28.2949 5.36331 28.1219C5.16292 27.8068 4.92829 27.3598 5.02077 27.0601C5.11326 26.7604 5.54999 26.5 5.89081 26.3545C6.09975 26.2671 6.42173 26.4093 6.68206 26.4863C9.76485 27.4026 12.8476 28.3172 15.915 29.254C16.5215 29.4608 17.1841 29.4271 17.7664 29.1598C19.3695 28.4456 21.0034 27.8017 22.6081 27.1046C23.4747 26.7244 24.2763 26.7432 25.0846 27.2365C25.6652 27.5893 26.2681 27.9027 26.9429 28.2795C26.9429 27.108 26.96 26.0291 26.924 24.9518C26.924 24.7959 26.6791 24.5973 26.5027 24.5031C25.6978 24.0766 24.8877 23.657 24.0587 23.2785C23.1807 22.8771 22.4771 22.1723 22.0772 21.2935C20.9759 19.0448 19.8627 16.7995 18.705 14.5799C18.4228 14.0665 18.0436 13.6128 17.5883 13.244C16.5847 12.4202 15.5194 11.6718 14.4798 10.8908C14.3491 10.7993 14.2233 10.701 14.103 10.5962C13.6543 10.1732 13.5892 9.63031 13.9318 9.19015C14.008 9.08191 14.1055 8.99039 14.2184 8.92121C14.3313 8.85204 14.4571 8.80668 14.5881 8.78791C14.7192 8.76915 14.8527 8.77737 14.9804 8.81209C15.1082 8.8468 15.2275 8.90727 15.331 8.98977C16.7816 10.0568 18.2254 11.1375 19.6247 12.2695C19.9946 12.571 20.2464 13.0522 20.4707 13.4941C21.5977 15.7034 22.7194 17.9179 23.7967 20.1512C24.0827 20.8007 24.6058 21.3165 25.2593 21.5933C25.9273 21.881 26.5678 22.2287 26.9805 22.4325C27.6177 22.2098 28.0561 21.9187 28.4911 21.9341C29.0837 21.9444 29.332 22.5643 29.2601 23.3042C29.1385 24.5236 29.0734 25.7482 28.9775 26.971C28.945 27.3975 29.0888 27.5996 29.5495 27.6989C31.3187 28.0843 33.0125 28.6751 34.4974 29.8158C36.02 28.6494 37.7875 28.0774 39.6114 27.6304C39.7044 27.5962 39.7877 27.5401 39.8542 27.4667C39.9207 27.3933 39.9685 27.3049 39.9934 27.2091C40.115 25.2823 39.9934 23.3813 39.185 21.5916C37.7601 18.4403 34.0316 17.5188 31.2776 19.6237C30.8734 19.932 30.4778 20.2694 29.9195 20.0125C29.2498 19.7042 29.2104 19.1476 29.3954 18.5139C27.6142 18.281 26.3486 17.3904 25.929 15.6486C25.4426 13.6294 26.3314 12.1702 28.2051 11.1666C26.8812 10.7076 25.6361 10.3445 24.4527 9.83925C23.6329 9.50819 22.8727 9.04538 22.2022 8.46912C19.909 6.37967 17.6876 4.21487 15.4406 2.07404C14.5843 1.26395 14.598 0.779262 15.456 0H16.1411C16.4682 0.279164 16.809 0.542913 17.1225 0.839204C19.2873 2.8944 21.4349 4.96501 23.6203 7.00479C24.035 7.38959 24.5199 7.69081 25.0487 7.89195C26.7613 8.52907 28.474 9.11651 30.2089 9.67655C30.5428 9.7653 30.8973 9.7344 31.2108 9.5892C33.4099 8.51708 35.5867 8.51708 37.7875 9.5892C38.1012 9.73342 38.4553 9.76429 38.7894 9.67655C40.5226 9.11822 42.2472 8.53249 43.9513 7.89538C44.4799 7.69376 44.9653 7.39325 45.3814 7.00993C47.565 4.97529 49.7127 2.89954 51.8793 0.844344C52.191 0.548054 52.5335 0.28259 52.8606 0.00342606H53.5611ZM25.8793 67.5252C26.5164 56.1034 27.1467 44.7879 27.7855 33.3216C27.7097 33.4404 27.6417 33.564 27.5817 33.6915C25.2285 40.8419 22.9044 48.0008 21.3784 55.3875C20.9622 57.4016 20.6454 59.4209 21.0787 61.4778C21.6627 64.2489 23.2949 66.1842 25.8793 67.5252ZM41.3258 33.4432L41.2539 33.4654C41.8841 44.7896 42.5161 56.1137 43.1532 67.5475C46.0459 66.0163 47.7038 63.7916 48.0891 60.6523C48.3734 58.3162 47.8219 56.0726 47.3201 53.8342C45.8061 47.0811 43.7098 40.4942 41.5211 33.9347C41.4663 33.7566 41.3909 33.6059 41.3258 33.4346V33.4432ZM39.5669 45.4147C38.476 45.4815 38.0889 45.3376 37.9399 44.7913C37.6624 43.7637 38.4777 43.5359 39.1833 43.2208C38.8973 42.1178 38.8647 40.9464 37.8679 40.1654C36.8712 40.8505 36.0834 41.6588 35.6089 42.7344C35.4 43.2071 35.1568 43.6352 34.5437 43.6489C33.8946 43.6644 33.6445 43.2174 33.4202 42.7207C32.9317 41.6673 32.1459 40.7797 31.1594 40.1671C30.4333 40.758 29.9503 41.9877 29.9315 43.2756C31.6887 43.9247 33.2934 44.8427 34.5094 46.3224C35.0643 45.9165 35.573 45.8086 36.0508 46.2882C36.5286 46.7677 36.3574 47.2729 36.0508 47.7799C35.8265 48.1481 35.6603 48.5489 35.4462 48.924C35.066 49.5902 34.2662 49.7101 33.7918 49.1569C33.6315 48.9369 33.4997 48.6975 33.3996 48.4444C32.6084 46.8122 31.1509 46.0295 29.4879 45.3051C29.3063 46.939 29.1454 48.4598 28.9741 49.9944C31.055 50.5082 32.968 51.1504 34.5471 52.5634C36.133 51.1059 38.0906 50.5082 40.1133 49.9721C39.9112 48.4239 39.7416 46.9355 39.5669 45.4079V45.4147ZM29.0066 52.0102C28.9022 52.0804 28.7977 52.1506 28.6915 52.2191C28.8628 53.3512 29.0546 54.4815 29.219 55.6153C29.2807 56.0366 29.5615 56.1137 29.9143 56.213C31.3547 56.6087 32.7796 57.0591 34.2148 57.4753C34.3988 57.5318 34.5945 57.5383 34.7817 57.4941C36.266 57.0694 37.7418 56.6315 39.209 56.1805C39.4008 56.1206 39.6628 55.999 39.7228 55.838C40.1595 54.6444 40.3074 53.3644 40.1544 52.1027C39.8769 52.178 39.6406 52.2277 39.4059 52.3047C37.8251 52.8357 36.2581 53.3597 35.2955 54.9046C34.9136 55.5177 34.1189 55.3858 33.6205 54.7847C33.2335 54.3171 32.8464 53.7811 32.336 53.5019C31.2691 52.9264 30.1216 52.4949 29.0066 52.0033V52.0102ZM39.5515 29.7541C37.9964 30.2542 36.443 30.6019 35.3795 31.9429C34.8537 32.6057 34.1806 32.604 33.6668 31.9429C32.6015 30.607 31.055 30.2439 29.4982 29.7661C29.7103 30.9467 30.331 32.0151 31.2516 32.7842C32.1721 33.5533 33.3339 33.9741 34.5334 33.9729C35.733 33.9716 36.8939 33.5485 37.8128 32.7775C38.7318 32.0066 39.3503 30.9369 39.5601 29.7558L39.5515 29.7541ZM36.1039 16.5032C35.4 14.2939 35.6124 13.3605 37.1983 11.6924C35.7991 10.5312 33.0725 10.5449 31.8514 11.7232C33.3705 13.0573 33.7147 14.6621 32.9184 16.5032H36.1039ZM38.4708 58.7187L38.2464 58.4395C37.2 58.7101 36.1262 58.9173 35.2698 59.6675C34.756 60.1162 34.2611 60.0922 33.7456 59.6572C32.8892 58.9276 31.8222 58.6861 30.673 58.556C31.9627 59.873 33.2523 61.19 34.2525 62.2091L38.4708 58.7187ZM29.565 38.463L33.439 37.11C33.6188 36.0687 33.6 36.1235 32.5399 35.7484C31.7555 35.4727 31.0276 35.0325 30.2774 34.6626C30.1301 34.5907 29.9931 34.4999 29.7808 34.3783C29.702 35.8563 29.6283 37.2299 29.5632 38.463H29.565ZM39.2655 34.5821C38.094 35.036 36.962 35.4676 35.8402 35.9248C35.7681 35.9637 35.7057 36.0182 35.6574 36.0842C35.6091 36.1503 35.5762 36.2263 35.561 36.3068C35.5358 36.635 35.5313 36.9645 35.5473 37.2933L35.7186 37.1374L39.4556 38.4562C39.4556 38.475 39.4556 38.3465 39.4556 38.2198C39.3905 36.9747 39.3237 35.7279 39.2638 34.5821H39.2655ZM29.5461 16.4279C29.9928 16.4322 30.4235 16.2618 30.7463 15.953C31.0692 15.6443 31.2586 15.2216 31.2742 14.7751C31.2757 14.316 31.0972 13.8746 30.7771 13.5454C30.4569 13.2163 30.0205 13.0257 29.5615 13.0145C29.1156 13.0356 28.6933 13.2216 28.3768 13.5366C28.0603 13.8515 27.8722 14.2728 27.8489 14.7186C27.8588 15.1665 28.0402 15.5935 28.3556 15.9115C28.6711 16.2295 29.0966 16.4144 29.5444 16.4279H29.5461ZM39.4796 16.4279C39.9264 16.4122 40.3503 16.2259 40.664 15.9074C40.9778 15.5889 41.1576 15.1622 41.1665 14.7152C41.1449 14.268 40.9576 13.8448 40.6409 13.5282C40.3243 13.2115 39.9011 13.0242 39.4539 13.0025C38.9952 13.0137 38.5591 13.2041 38.239 13.5328C37.9188 13.8616 37.7402 14.3026 37.7412 14.7614C37.7533 15.2133 37.9436 15.642 38.2705 15.9542C38.5974 16.2664 39.0345 16.4366 39.4864 16.4279H39.4796ZM33.5075 39.3776L34.5351 40.4805L35.4805 39.3776H33.5075Z" fill="currentColor"/>
</svg>
