<svg width="70" height="70" viewBox="0 0 70 70" fill="none" xmlns="http://www.w3.org/2000/svg">
<path d="M0 28.9337C0.296291 28.3514 0.578884 27.7588 0.892301 27.1868C3.70963 22.0385 8.16599 18.966 13.6003 17.1437C13.8456 17.075 14.0717 16.9503 14.2607 16.7794C14.4497 16.6085 14.5965 16.3961 14.6895 16.1589C15.6144 14.1037 16.9571 12.4202 19.0825 11.4971C22.2098 10.1406 25.5478 11.658 26.4281 14.8607C26.5874 15.4379 26.584 16.0596 26.6542 16.6573C28.4662 16.26 30.2919 15.789 32.1347 15.4585C37.593 14.5011 43.0221 14.4822 48.316 16.3662C53.6098 18.2501 57.2064 21.958 59.0544 27.2724C60.3286 30.9324 60.7156 34.6917 59.7737 38.516C59.7633 38.61 59.7633 38.7047 59.7737 38.7986C60.5855 39.1103 61.399 39.3929 62.1902 39.7303C64.2454 40.6021 66.1756 41.6639 67.7119 43.3132C71.0738 46.9235 70.6936 51.1315 66.7631 54.103C64.0228 56.1736 60.8578 57.1961 57.5421 57.8332C52.4041 58.8231 47.2113 58.7906 42.0202 58.347C37.0672 57.9274 32.181 57.0676 27.3187 56.0554C26.5874 55.9047 26.2329 55.432 26.3493 54.8172C26.4607 54.2383 26.9436 53.942 27.6561 54.0174L27.7914 54.0362C33.0202 54.8446 38.2729 55.4063 43.5667 55.4286C48.4564 55.456 53.3289 55.2077 57.9891 53.5447C59.4055 53.0394 60.7105 52.2054 62.0412 51.4741C62.4077 51.2414 62.7301 50.9457 62.9935 50.6006C64.0314 49.3863 63.8978 48.4478 62.579 47.5178C60.4228 45.9987 57.9428 45.3427 55.4115 44.8358C55.1974 44.793 54.9422 44.9454 54.711 45.0207C53.5259 45.4061 52.3527 45.8325 51.1538 46.1682C50.7154 46.2898 50.4688 46.4183 50.4688 46.9047C50.4616 47.2467 50.4226 47.5872 50.3523 47.922C50.1451 48.9941 49.4069 49.7032 48.3331 49.7152C45.3942 49.7471 42.4547 49.7471 39.5146 49.7152C38.6274 49.7152 38.2198 49.0798 38.4698 48.2097C38.6582 47.5572 38.8912 46.9201 39.1344 46.1854C36.4814 46.5981 33.9313 46.5279 31.3435 45.7058C31.1842 46.3515 31.0318 46.9595 30.8845 47.5675C30.4991 49.1791 29.8072 49.7271 28.1442 49.7289C26.7741 49.7289 25.4039 49.7289 24.0424 49.7289C22.9959 49.7289 22.6363 49.3469 22.6722 48.3176C22.7151 46.7762 23.5851 45.6493 25.07 45.2057C25.2207 45.1612 25.3697 45.1098 25.5547 45.0516C25.1916 44.0993 24.7274 43.3903 23.7307 42.9142C20.5759 41.407 17.9795 39.1669 15.8695 36.3735C15.5698 35.9762 15.2941 35.8751 14.7854 35.9813C11.4063 36.6801 8.43145 35.9077 5.92582 33.4585C5.63981 33.1777 5.18937 33.0287 4.78861 32.9088C3.18523 32.4345 1.7339 31.5488 0.578881 30.3398C0.372807 30.1037 0.179567 29.8567 0 29.5999V28.9337ZM40.1397 43.8887C39.7543 43.4125 39.4204 43.0323 39.1292 42.635C38.0537 41.1364 37.6135 39.4392 37.6169 37.6135C37.6169 36.9027 38.0057 36.4711 38.6017 36.4523C39.1977 36.4334 39.6053 36.8445 39.6567 37.545C39.6704 37.7265 39.6567 37.9098 39.6773 38.0913C39.8485 40.489 40.9172 42.3182 43.1266 43.3543C45.723 44.572 48.465 44.6422 51.2172 44.1045C54.8652 43.3937 57.2458 40.9429 57.96 37.336C58.4481 34.8698 58.2306 32.4309 57.6911 30.0058C56.7868 25.9537 54.807 22.5883 51.3542 20.1991C48.8075 18.4351 45.9234 17.5599 42.8868 17.1643C36.9559 16.3919 31.2304 17.4075 25.6095 19.24C25.3961 19.3158 25.2032 19.4401 25.046 19.6031C23.1364 21.5435 20.7421 22.6225 18.221 23.4754C17.6113 23.6809 17.0753 23.4155 16.88 22.8811C16.6848 22.3468 16.9434 21.821 17.5411 21.5624C17.9367 21.3911 18.3546 21.2712 18.7554 21.1102C20.6016 20.3601 22.3794 19.4986 23.7375 17.9726C24.5528 17.0564 24.8114 16.0356 24.2822 14.8796C23.508 13.1875 21.4374 12.5726 19.6134 13.5094C18.233 14.2151 17.3099 15.3694 16.6831 16.7412C16.2326 17.7312 15.9278 18.7964 15.5544 19.824C15.3626 20.3378 15.0235 20.6804 14.4258 20.6067C13.8709 20.5365 13.5934 20.1871 13.5369 19.6442C13.5283 19.5569 13.5095 19.4729 13.4718 19.2571C12.1976 19.8891 10.9439 20.4337 9.76561 21.1085C6.65541 22.8914 4.14294 25.2772 2.49878 28.5209C2.22989 29.0502 2.34635 29.3139 2.77623 29.6393C3.76076 30.3816 4.89608 30.899 6.10222 31.155C7.52716 31.4667 8.95038 31.3982 10.3839 31.1824C11.0963 31.0745 11.6221 31.4633 11.6889 32.0696C11.7557 32.6759 11.3772 33.0972 10.6785 33.2102C10.2726 33.2787 9.86494 33.337 9.2912 33.4243C9.59434 33.5784 9.72793 33.6589 9.8718 33.7172C11.4293 34.3219 13.1422 34.3996 14.7481 33.9384C16.354 33.4773 17.7646 32.5026 18.7639 31.1636C19.1647 30.6121 19.6734 30.4699 20.1769 30.7662C20.6804 31.0625 20.8226 31.662 20.4715 32.258C20.2827 32.622 20.0428 32.9571 19.759 33.253C19.0517 33.9158 18.2964 34.5255 17.548 35.1661C18.2638 36.5739 22.2132 40.0403 23.5594 40.4599C23.3881 39.3415 23.186 38.1992 23.0456 37.05C22.9446 36.1937 23.3145 35.6884 23.9687 35.6473C24.623 35.6062 25.0203 35.9899 25.0648 36.8325C25.1984 39.3296 26.1061 41.5783 27.2296 43.7602C27.317 43.9315 27.4608 44.1558 27.615 44.1884C28.2264 44.3185 28.8515 44.3819 29.4989 44.4744C29.7096 43.3475 29.9151 42.3216 30.0898 41.2888C30.273 40.2116 30.4066 39.124 30.6036 38.0468C30.7046 37.473 31.1174 37.1904 31.6877 37.2178C32.2272 37.247 32.592 37.7111 32.5783 38.3157C32.5665 38.612 32.535 38.9072 32.4841 39.1994C32.2563 40.6843 32.0217 42.1657 31.7819 43.7106C34.517 44.6285 37.2641 44.5686 40.1397 43.8887ZM60.3834 55.0758C62.7434 54.2726 65.1874 53.1919 66.9857 51.0134C67.9739 49.8145 68.212 48.4889 67.6708 47.0485C67.4741 46.4901 67.1959 45.9637 66.8453 45.4866C64.898 42.9707 62.1149 41.8026 59.2136 40.8487C59.1432 40.8373 59.0711 40.8433 59.0036 40.8663C58.9361 40.8893 58.8753 40.9285 58.8266 40.9806C58.3333 41.6845 57.8658 42.4055 57.3777 43.1419L58.0353 43.3269C59.9912 43.8698 61.8871 44.5446 63.5895 45.7024C66.1859 47.4664 66.5216 50.1142 64.2352 52.2482C63.0363 53.3648 61.5857 54.2058 60.3834 55.0758ZM40.9104 47.6908C43.2773 47.6908 45.6356 47.6908 47.9923 47.6754C48.078 47.6524 48.157 47.6093 48.2228 47.5497C48.2886 47.4902 48.3393 47.4158 48.3708 47.3328C48.4205 47.0808 48.4412 46.824 48.4324 46.5673C47.1 46.396 45.8035 46.3035 44.5498 46.0209C43.8091 45.823 43.0287 45.8283 42.2908 46.0364C41.318 46.3189 41.0645 46.5639 40.9104 47.6908ZM25.0477 47.4938L25.1128 47.6925H27.8222C28.8721 47.6925 28.8892 47.6737 28.9611 46.4936C28.1511 46.3926 27.3221 45.9422 26.6097 46.819C26.4504 47.0177 26.077 47.0365 25.8064 47.1496C25.5358 47.2626 25.2995 47.3808 25.0477 47.4938Z" fill="currentColor"/>
<path d="M15.188 26.2345C15.1812 26.9369 14.8958 27.6079 14.3945 28.0999C13.8931 28.5919 13.217 28.8647 12.5145 28.8583C12.1548 28.8708 11.7963 28.81 11.4607 28.6797C11.1251 28.5495 10.8195 28.3524 10.5624 28.1004C10.3053 27.8485 10.102 27.547 9.96495 27.2141C9.82786 26.8813 9.75981 26.5241 9.76492 26.1642C9.77002 25.8042 9.84819 25.4491 9.99467 25.1203C10.1411 24.7914 10.3529 24.4958 10.617 24.2513C10.8812 24.0067 11.1923 23.8184 11.5314 23.6977C11.8705 23.577 12.2306 23.5264 12.5899 23.5491C12.9371 23.554 13.2799 23.6274 13.5986 23.7652C13.9173 23.903 14.2056 24.1024 14.447 24.3519C14.6885 24.6014 14.8782 24.8962 15.0054 25.2193C15.1325 25.5424 15.1946 25.8874 15.188 26.2345ZM13.4017 26.2054C12.9941 25.9211 12.7526 25.6214 12.5454 25.6437C12.3381 25.6659 12.1326 25.9862 11.9271 26.1883C12.1275 26.3887 12.309 26.7192 12.5317 26.7501C12.7543 26.7809 12.9855 26.4829 13.4017 26.2054Z" fill="currentColor"/>
<path d="M39.953 33.9346C39.7767 33.9382 39.6026 33.8946 39.4487 33.8085C39.2948 33.7223 39.1667 33.5967 39.0775 33.4445C38.9883 33.2924 38.9413 33.1192 38.9414 32.9428C38.9415 32.7664 38.9886 32.5933 39.0779 32.4412C39.42 31.9058 39.826 31.414 40.287 30.9768C40.6295 30.6343 41.1433 30.6035 41.4568 30.958C41.6931 31.22 41.9431 31.7801 41.8198 32.001C41.4533 32.6604 40.9173 33.229 40.4137 33.8044C40.3161 33.9175 40.0746 33.9038 39.953 33.9346Z" fill="currentColor"/>
</svg>
