<svg width="70" height="70" viewBox="0 0 70 70" fill="none" xmlns="http://www.w3.org/2000/svg">
<path d="M14.0565 70C13.052 69.1039 13.1878 68.205 14.5012 67.9044C16.0643 67.5476 16.9563 66.6693 17.6205 65.2366C18.6593 63.0134 19.9027 60.885 21.0362 58.7057C21.1797 58.4305 21.2425 58.1203 21.2174 57.8109C20.7233 53.3989 20.2032 48.9896 19.6955 44.5789C19.5788 43.5661 20.2869 43.0007 21.2284 43.3794C22.4882 43.8872 23.7329 44.4389 25.0393 44.9947C25.1574 43.8021 25.2013 42.67 25.3948 41.5639C25.7488 39.5506 26.1701 37.5484 26.6134 35.553C26.7108 35.1098 26.6724 34.8669 26.2909 34.5924C25.123 33.769 23.984 32.8962 22.7818 32.0069C22.1739 32.6629 21.5893 33.29 21.0074 33.9213C19.8162 35.2099 18.6374 36.5082 17.4297 37.7803C17.1819 38.0432 16.8779 38.2468 16.5405 38.3759C15.5565 38.73 14.5547 39.0346 13.5543 39.3366C12.8036 39.5671 12.2368 39.3173 12.0447 38.7053C11.8732 38.1385 12.2025 37.6335 12.9106 37.3837C12.9308 37.3735 12.952 37.3652 12.9738 37.359C15.1613 37.0091 16.7422 35.7657 18.1008 34.0654C19.1987 32.6999 20.4598 31.4717 21.6552 30.1872C22.3413 29.4516 22.7393 29.4132 23.5339 29.9992C24.6523 30.8226 25.7625 31.6583 26.8783 32.4859C27.0553 32.6162 27.2433 32.7356 27.6344 33.0019C27.6824 32.372 27.7717 31.904 27.7428 31.4456C27.5882 29.6903 27.8957 27.9251 28.6349 26.3254C28.8119 25.9481 28.7954 25.6942 28.4976 25.4362C28.4811 25.4206 28.466 25.4036 28.4523 25.3854C26.6052 22.6874 24.1899 20.703 21.1241 19.5324C20.6149 19.3375 20.3377 18.9588 20.2032 18.4345C20.0015 17.6413 19.7462 16.8618 19.5335 16.0714C19.3373 15.3399 19.5912 14.7937 20.1689 14.6318C20.7782 14.4616 21.2544 14.769 21.4932 15.4813C21.5032 15.5014 21.511 15.5226 21.5165 15.5444C21.662 17.3147 22.7036 18.3055 24.3106 18.8709C26.0164 19.472 27.3037 20.6248 28.3576 22.0794C28.8599 22.7752 29.4637 23.3983 30.0484 24.0872C30.5836 23.5588 31.1792 23.2171 31.127 22.3141C31.0817 21.5086 31.713 20.9706 32.3621 20.5452C32.5693 20.4079 32.7917 20.2982 33.0483 20.1554C32.4947 17.9025 31.6891 15.7191 30.6467 13.6464C28.3316 9.00384 25.1917 5.0474 20.9347 2.02277C20.1113 1.43816 20.0578 0.566726 20.7892 0.141302C21.2846 -0.146888 21.7004 0.0493561 22.1135 0.340291C25.0322 2.42187 27.5725 4.98822 29.6243 7.92793C32.0293 11.3123 33.8162 15.0956 34.9023 19.1028C34.9915 19.4308 35.0162 19.7492 35.524 19.7355C36.0002 19.7218 35.9947 19.4144 36.0798 19.1179C38.222 11.6209 42.2045 5.35755 48.4788 0.631226C48.6936 0.462372 48.9186 0.306999 49.1526 0.166004C49.6741 -0.133165 50.234 -0.0206327 50.5332 0.454195C50.8324 0.929023 50.7843 1.4313 50.3369 1.80045C49.6878 2.33704 48.9838 2.80775 48.3416 3.35119C43.1349 7.75776 39.8111 13.3459 38.001 19.8796C37.986 19.9629 37.9796 20.0475 37.9818 20.1321C38.3565 20.3874 38.7778 20.5712 39.0481 20.8841C39.3939 21.2835 39.7466 21.7583 39.8647 22.2565C40.1131 23.3077 40.0513 23.3214 40.9625 24.0625C41.9314 22.9179 42.8838 21.7569 43.8801 20.6316C44.211 20.2623 44.601 19.9507 45.0342 19.7094C46.1088 19.1166 47.23 18.6116 48.3032 18.0105C48.6129 17.8109 48.8527 17.5197 48.9893 17.1775C49.2144 16.6354 49.3173 16.0439 49.4916 15.4785C49.7098 14.769 50.2134 14.4561 50.82 14.629C51.4019 14.7937 51.6434 15.3427 51.4582 16.0727C51.4496 16.0938 51.4423 16.1153 51.4362 16.1372C51.1768 18.3659 50.0735 19.8988 47.8681 20.5671C45.6628 21.2355 44.5361 23.1307 43.0979 24.6924C42.3898 25.4622 42.1716 26.0839 42.6464 27.1077C43.2914 28.5033 43.4067 30.0404 43.2145 31.5925C43.1638 32.0042 43.3312 32.4447 43.4176 33.0032L47.3411 30.0898C48.2853 29.3885 48.6435 29.4228 49.4285 30.275C51.2043 32.1963 52.976 34.1313 54.7682 36.0388C55.0023 36.2793 55.2881 36.4633 55.604 36.5768C56.437 36.8787 57.2933 37.1134 58.1332 37.4002C58.8194 37.6335 59.1034 38.1028 58.9388 38.6847C58.7658 39.2954 58.2347 39.5616 57.5184 39.3462C56.4521 39.0237 55.3871 38.6916 54.3401 38.3155C54.0281 38.1828 53.7503 37.981 53.5276 37.7254C51.9398 36.0292 50.3713 34.3152 48.7917 32.6094C48.6092 32.4104 48.4184 32.2183 48.2098 31.9987C46.9555 32.9291 45.7259 33.8266 44.5251 34.7584C44.3879 34.8627 44.3385 35.1866 44.3769 35.3829C44.5018 36.0059 44.7049 36.618 44.8435 37.2341C44.9807 37.8819 44.7063 38.3896 44.1724 38.5351C43.5796 38.697 43.0883 38.3979 42.8811 37.7419C42.4845 36.4848 42.0988 35.2237 41.7008 33.968C41.6336 33.7553 41.5307 33.5563 41.4442 33.3518C40.3793 33.5631 39.3583 33.7759 38.3345 33.9652C37.5523 34.1093 37.0116 33.8047 36.8977 33.1912C36.7783 32.5394 37.1845 32.1112 38.012 31.9479C38.926 31.7668 39.84 31.5746 40.7361 31.3221C40.9406 31.2645 41.2096 30.942 41.2137 30.7375C41.2603 28.5747 40.6236 26.6589 39.0577 25.1109C38.7833 24.8365 38.5459 24.7377 38.1191 24.9229C36.3638 25.6846 34.588 25.6571 32.8122 24.9229C32.6064 24.8392 32.2194 24.8845 32.0657 25.0286C30.3722 26.6054 29.7053 28.5967 29.8041 30.8747C29.8109 31.0284 30.0333 31.2617 30.1952 31.3043C31.1407 31.5486 32.0959 31.7571 33.0524 31.9548C33.8209 32.114 34.2395 32.5764 34.116 33.183C33.9924 33.7896 33.4559 34.1148 32.6846 33.9721C31.6595 33.7827 30.6385 33.5673 29.4486 33.3298C28.9958 34.8737 28.4372 36.4149 28.0955 37.9958C26.542 45.2101 26.6532 52.3806 28.9793 59.4316C29.4459 60.8452 30.1746 62.1763 30.8676 63.5061C31.225 64.1412 31.6653 64.7259 32.1768 65.2449C34.3287 67.5655 36.6575 67.5778 38.8286 65.2572C40.6126 63.3497 41.5938 60.992 42.339 58.5328C43.7964 53.7447 44.123 48.8345 43.7923 43.8639C43.7594 43.3644 43.6962 42.8648 43.6894 42.3639C43.6798 41.7766 44.0064 41.4033 44.5786 41.3429C45.1509 41.2825 45.5818 41.5639 45.6669 42.143C45.8041 43.0611 45.8604 43.9888 45.9592 44.9782L49.5575 43.4508C50.7336 42.954 51.4101 43.4234 51.2688 44.6722C50.7871 48.947 50.2779 53.2205 49.8141 57.498C49.7672 57.9628 49.8509 58.4314 50.0556 58.8512C51.3895 61.4394 52.7559 64.0111 54.1548 66.5664C54.3387 66.9013 54.7216 67.1771 55.0742 67.3569C55.5354 67.5916 56.0568 67.7082 56.555 67.8688C57.0271 68.0197 57.4539 68.2118 57.5499 68.7759C57.6515 69.3701 57.3111 69.7091 56.8528 69.9808H56.1666C55.3844 69.6953 54.609 69.3838 53.8144 69.1313C53.5542 69.054 53.3131 68.923 53.1067 68.7466C52.9004 68.5703 52.7333 68.3525 52.6164 68.1076C51.1384 65.286 49.659 62.4645 48.1261 59.6718C47.7144 58.9239 47.6307 58.2048 47.7323 57.3869C48.1014 54.4268 48.4349 51.4625 48.778 48.501C48.8754 47.6584 48.9619 46.8158 49.062 45.8936C48.1838 46.2668 47.4152 46.6264 46.6344 46.9105C46.106 47.1012 45.9331 47.3908 45.9304 47.9562C45.9057 52.1048 45.3362 56.1737 43.9803 60.1055C43.0595 62.776 41.8408 65.2874 39.711 67.2416C38.4759 68.3697 37.0527 69.0847 35.336 69.0256C33.3008 68.9543 31.7679 67.8866 30.4793 66.4292C28.676 64.3968 27.5974 61.9691 26.7836 59.4138C25.5814 55.6522 25.1244 51.774 25.0215 47.8409C25.0215 47.5994 24.9515 47.2192 24.7978 47.1438C23.8962 46.7032 22.9602 46.3341 21.9626 45.9087C21.979 46.2161 21.979 46.3972 21.9996 46.5756C22.4319 50.307 22.8779 54.037 23.2869 57.7711C23.3349 58.2213 23.3102 58.7565 23.1098 59.1435C21.5326 62.1955 19.9214 65.2302 18.2765 68.2475C18.0926 68.5865 17.6987 68.8761 17.335 69.0435C16.5391 69.4072 15.702 69.6761 14.8813 69.9835L14.0565 70ZM33.1526 22.6215C34.2504 23.7194 36.9251 23.6974 37.8185 22.6064C36.8908 21.525 34.1859 21.514 33.1526 22.6215Z" fill="currentColor"/>
</svg>
