<svg width="70" height="70" viewBox="0 0 70 70" fill="none" xmlns="http://www.w3.org/2000/svg">
<g clip-path="url(#clip0_120_31)">
<path d="M70.0013 38.5316L69.1465 42.5974C68.6132 45.1216 65.8954 46.2229 64.0323 44.6065C63.4844 44.1389 63.1666 43.4175 62.6552 42.6869C61.6287 42.7344 60.4049 42.7782 59.1849 42.8586C59.0934 42.8793 59.0076 42.92 58.9337 42.9778C58.8598 43.0356 58.7996 43.109 58.7575 43.1928C58.1894 44.4348 57.6506 45.6878 57.0753 46.9992C57.4789 47.4832 57.9154 48.0385 58.3903 48.5572C58.4611 48.6129 58.5434 48.6521 58.6312 48.672C58.7191 48.6919 58.8102 48.692 58.8981 48.6723C60.6972 48.1919 62.2132 48.6723 63.1319 50.022C64.0506 51.3718 63.9173 52.9937 62.847 54.4732C61.9995 55.6476 61.0333 56.5882 59.4734 56.612C58.61 56.6429 57.766 56.3506 57.1066 55.7922C56.4473 55.2338 56.0199 54.4496 55.9081 53.5928C55.826 52.9937 55.5538 52.7599 55.0661 52.4586C53.9063 51.7408 53.1374 51.9417 52.1931 52.9371C51.1702 54.0166 49.846 54.8038 48.6716 55.7389C48.489 55.8832 48.2643 56.1608 48.2899 56.3471C48.4396 57.5179 48.6552 58.6814 48.847 59.8394C50.9017 59.7115 52.2186 60.5261 52.6533 62.1499C52.8559 62.8617 52.7954 63.6227 52.4828 64.2935C52.1702 64.9643 51.6264 65.5001 50.9511 65.8029C49.4789 66.4659 47.9739 67.0613 46.4543 67.6019C45.1666 68.0604 43.7255 67.5106 42.9565 66.3946C42.5746 65.8609 42.3756 65.2179 42.3895 64.5618C42.4033 63.9056 42.6292 63.2716 43.0333 62.7545C43.3675 62.3307 43.3675 62.064 43.0442 61.6586C42.4652 60.928 41.9337 60.1517 41.4113 59.3773C41.2068 59.0759 41.0168 58.9736 40.6333 59.0595C37.4883 59.7497 34.2414 59.8414 31.0625 59.3298C30.9518 59.3145 30.839 59.3249 30.733 59.36C30.6269 59.3952 30.5303 59.4542 30.4506 59.5325C29.6908 60.665 28.9693 61.8248 28.2077 63.0229C29.6068 64.1956 29.7237 65.6805 29.404 67.3335C29.0698 69.0723 27.5903 70.1645 25.8972 69.6567C24.2848 69.1694 22.6996 68.5963 21.1483 67.9398C19.6871 67.328 18.8999 65.6622 19.1575 64.0896C19.2938 63.3202 19.6764 62.6159 20.2476 62.0826C20.8187 61.5493 21.5476 61.2159 22.3246 61.1325L22.8725 61.0704C23.0004 59.9161 23.068 58.7545 23.2743 57.6184C23.4077 56.8878 23.1867 56.5444 22.5565 56.1937C20.7034 55.1559 19.0134 53.8505 17.541 52.3197C17.2013 51.9691 16.9218 51.8978 16.4798 52.1042C15.6543 52.4878 14.8104 52.8348 13.9593 53.1526C13.6196 53.2805 13.5337 53.454 13.5282 53.801C13.5027 55.3207 12.615 56.5316 11.2597 56.9663C10.5915 57.1784 9.8735 57.1748 9.20741 56.9562C8.54131 56.7375 7.96088 56.3149 7.54832 55.7481C7.09352 55.149 6.67343 54.5243 6.25699 53.8978C5.34375 52.5298 5.41316 50.9481 6.40494 49.7718C7.36932 48.6302 8.8853 48.3197 10.3867 48.959C10.4652 48.9919 10.5438 49.0321 10.6552 49.085C11.3949 48.2467 12.1328 47.4412 12.8269 46.5974C12.8818 46.4991 12.9148 46.3901 12.9237 46.2779C12.9325 46.1656 12.9169 46.0528 12.878 45.9471C12.71 45.4777 12.4524 45.0339 12.2588 44.5791C11.9867 43.927 12.1675 43.3718 12.7063 43.1179C13.2451 42.864 13.8022 43.085 14.1072 43.7097C14.4469 44.38 14.7721 45.0576 15.1027 45.7334C15.2488 45.9963 15.3068 46.2991 15.268 46.5973C15.2292 46.8955 15.0957 47.1734 14.8871 47.3901C13.7912 48.643 12.6953 49.8978 11.5794 51.1325C11.0424 51.7261 10.52 51.717 9.92457 51.1691C9.29626 50.5901 8.62229 50.5243 8.09809 50.9864C7.57389 51.4485 7.53188 52.0823 7.98485 52.7782C8.35014 53.3298 8.72701 53.8729 9.11544 54.4074C9.59033 55.0522 10.2497 55.2312 10.8433 54.9042C11.4369 54.5773 11.594 53.991 11.3456 53.2439C11.0972 52.4969 11.2707 52.033 12.0269 51.7188C13.5374 51.0869 15.057 50.4732 16.573 49.854C17.2597 49.5745 17.8625 49.6878 18.3757 50.2376C20.1622 52.1604 22.262 53.7662 24.5858 54.9864C24.8807 55.1186 25.1236 55.3448 25.2763 55.6297C25.429 55.9146 25.4829 56.242 25.4296 56.5608C25.2196 58.4659 25.0278 60.3727 24.7922 62.2741C24.6826 63.1545 24.2022 63.4503 23.3565 63.2586C22.31 63.0211 21.5008 63.3919 21.236 64.2266C20.962 65.0924 21.4296 65.8704 22.467 66.265C23.6378 66.7015 24.8122 67.1344 25.9922 67.5435C26.9237 67.8759 27.236 67.6988 27.3547 66.7088C27.415 66.2065 27.4771 65.644 27.3145 65.1892C27.1903 64.8458 26.7428 64.5773 26.3867 64.3654C25.7091 63.9618 25.5045 63.4376 25.9209 62.7691C26.9565 61.1051 28.0196 59.4577 29.0753 57.8047C29.4698 57.1855 30.0433 57.0741 30.7374 57.138C32.3428 57.3042 33.9556 57.5691 35.5593 57.5325C37.2543 57.4924 38.9474 57.191 40.6296 56.9207C41.7255 56.738 42.1036 56.8184 42.7374 57.7024C43.6677 59.0016 44.5937 60.3021 45.5154 61.6038C46.1858 62.5462 46.0926 62.9937 45.1136 63.5782C44.5164 63.9344 44.3063 64.4659 44.5456 65.0138C44.7995 65.5928 45.362 65.8266 46.036 65.5618C47.3304 65.0637 48.618 64.5462 49.899 64.0093C50.5949 63.7152 50.8597 63.1088 50.6077 62.528C50.3556 61.9471 49.7675 61.7207 49.0607 61.98C48.847 62.0567 48.6406 62.1627 48.425 62.2266C47.7365 62.444 47.1556 62.1499 47.0296 61.4485C46.6972 59.5855 46.3885 57.7188 46.1036 55.8485C46.0592 55.5733 46.1023 55.2912 46.2269 55.0418C46.3514 54.7925 46.551 54.5884 46.7976 54.4586C48.8145 53.2492 50.6501 51.7604 52.2497 50.0366C52.7264 49.527 53.32 49.4741 53.9447 49.7481C55.0497 50.2302 56.1492 50.7271 57.2561 51.2092C57.8534 51.465 58.0543 51.8997 57.9593 52.5261C57.8077 53.5362 58.0944 54.1444 58.8323 54.4421C59.5282 54.7234 60.2205 54.4823 60.794 53.7499C61.0269 53.4687 61.2439 53.1748 61.4442 52.8695C61.6352 52.5683 61.7155 52.21 61.6711 51.856C61.6268 51.5021 61.4607 51.1746 61.2013 50.9298C60.9482 50.696 60.6239 50.554 60.2805 50.5265C59.937 50.499 59.5943 50.5876 59.3072 50.7782C58.2972 51.4156 58.047 51.3791 57.2981 50.4914C56.6241 49.686 55.9447 48.8878 55.2762 48.0786C54.7118 47.3955 54.7008 46.9389 55.0826 46.1316C55.7438 44.735 56.3812 43.3261 56.9949 41.9051C57.2762 41.2531 57.6853 40.8567 58.4177 40.8257C60.1712 40.749 61.9209 40.643 63.6744 40.5828C64.5967 40.5481 64.9529 40.9481 64.931 41.8613C64.9036 42.7015 65.2378 43.2038 65.8771 43.2805C66.5164 43.3572 66.9639 42.9152 67.1246 42.1079C67.3779 40.833 67.6293 39.5581 67.8789 38.2832C68.0269 37.5234 67.6963 36.948 67.0369 36.8056C66.425 36.6722 65.9081 37.0649 65.7346 37.7992C65.6707 38.0659 65.636 38.3471 65.552 38.5974C65.3547 39.18 64.8214 39.4905 64.2552 39.2567C62.4725 38.5079 60.7008 37.7334 58.9401 36.9334C58.6974 36.8231 58.4953 36.6397 58.362 36.4088C58.2287 36.1779 58.1709 35.9111 58.1967 35.6458C58.2821 33.2021 58.0089 30.7591 57.3858 28.3946C57.2031 27.7115 57.4643 27.1837 58.025 26.7964C58.867 26.2138 59.7127 25.633 60.5693 25.0686C61.2159 24.643 61.6652 24.7289 62.173 25.3316C62.7867 26.0622 63.5154 26.2339 64.2168 25.8266C64.8707 25.4467 65.1301 24.6777 64.8561 23.8522C64.6314 23.1818 64.3867 22.5188 64.1145 21.8668C63.7602 21.0211 62.9803 20.6339 62.1839 20.8732C61.3876 21.1124 61.015 21.8722 61.1958 22.7891C61.3639 23.6421 61.0588 24.1188 60.2113 24.2503C59.1995 24.4092 58.1839 24.5426 57.1666 24.6759C56.8615 24.7327 56.5462 24.6898 56.2672 24.5537C55.9883 24.4175 55.7606 24.1953 55.6177 23.9197C55.3091 23.3864 54.9912 22.8585 54.7045 22.3179C54.394 21.748 54.5218 21.1873 55.0113 20.8768C55.5008 20.5663 56.0634 20.7069 56.4397 21.2275C56.4537 21.2457 56.4648 21.2661 56.4725 21.2878C56.9218 22.5773 57.8132 22.7818 59.0296 22.2503C59.0698 22.0549 59.1173 21.7901 59.1776 21.5289C59.3335 20.8235 59.7017 20.1828 60.2326 19.693C60.7636 19.2032 61.4318 18.8878 62.1474 18.7891C63.6944 18.5864 65.1739 19.2987 65.8369 20.6942C66.3013 21.6345 66.6685 22.6199 66.9328 23.6348C67.2981 25.096 66.8707 26.4147 65.6433 27.3535C64.4451 28.2668 63.0771 28.4238 61.8077 27.6348C61.0972 27.1964 60.6899 27.4138 60.2168 27.8175C59.9593 28.0403 59.4862 28.0421 59.5556 28.6211C59.8241 30.7197 60.0378 32.822 60.2862 34.928C60.2954 35.0202 60.3239 35.1096 60.3698 35.1901C60.4158 35.2707 60.4781 35.3407 60.5529 35.3955C61.6214 35.8923 62.7045 36.3544 63.5958 36.7453C64.3118 36.1042 64.8488 35.4138 65.552 35.0394C67.0935 34.2156 69.0132 34.9974 69.7255 36.6065C69.826 36.8348 69.9081 37.0686 70.0031 37.3006L70.0013 38.5316Z" fill="currentColor"/>
<path d="M6.66799 37.58C6.56754 37.8321 6.48535 38.0677 6.38672 38.2905C6.06844 38.9929 5.51829 39.5645 4.82856 39.9094C4.13882 40.2542 3.35147 40.3514 2.59859 40.1846C1.86766 40.0263 1.21254 39.6236 0.741346 39.0428C0.270155 38.462 0.011056 37.7379 0.00680898 36.9901C-0.00962937 35.7572 0.00680901 34.5243 0.0232474 33.2915C0.0415122 31.4431 1.01137 30.0659 2.56754 29.6677C4.1237 29.2695 5.5374 29.9746 6.50178 31.6768C7.71274 31.3974 8.94927 31.1289 10.1748 30.8074C10.3264 30.7691 10.489 30.4988 10.5219 30.3125C10.9692 27.7022 11.8325 25.1806 13.079 22.844C13.2415 22.5408 13.2488 22.3271 13.0022 22.0641C12.5803 21.6184 12.1949 21.1362 11.8187 20.696C11.2269 20.8568 10.6771 21.0887 10.1109 21.1417C8.88717 21.2568 7.93009 20.7161 7.31092 19.6695C6.69174 18.623 6.69722 17.507 7.36571 16.4915C8.00978 15.5235 8.70991 14.5941 9.46251 13.7079C10.2388 12.7837 11.5812 12.4988 12.7155 12.9115C13.302 13.1161 13.8104 13.4979 14.1704 14.0041C14.5303 14.5103 14.724 15.116 14.7246 15.7371C14.7246 16.2047 14.8579 16.4348 15.2853 16.5901C15.8625 16.7965 16.4159 17.0631 16.7867 17.2202C18.6625 15.801 20.4397 14.4641 22.2041 13.1033C22.2792 13.0338 22.3384 12.9489 22.3775 12.8542C22.4166 12.7596 22.4347 12.6577 22.4305 12.5554C22.2936 11.4266 22.1146 10.3033 21.941 9.11246H21.2652C20.5411 9.1337 19.8322 8.90102 19.2615 8.45472C18.6908 8.00842 18.2941 7.37658 18.1401 6.66862C17.8059 5.29328 18.4543 3.77548 19.784 3.17822C21.32 2.49146 22.889 1.89968 24.4908 1.35173C25.72 0.935294 27.1173 1.50881 27.8662 2.57548C28.2358 3.10225 28.4341 3.73013 28.4341 4.37365C28.4341 5.01716 28.2358 5.64505 27.8662 6.17183C27.7255 6.37639 27.563 6.56635 27.3803 6.80197C28.0799 7.81201 28.7666 8.82753 29.4881 9.81748C29.5654 9.88716 29.6568 9.93951 29.756 9.97101C29.8552 10.0025 29.96 10.0124 30.0634 10.0001C31.51 9.84488 32.9547 9.67502 34.394 9.47228C34.6098 9.40886 34.7925 9.26414 34.9036 9.06863C35.0628 8.81725 35.1656 8.53435 35.205 8.23941C35.2393 7.99717 35.177 7.75114 35.0315 7.55448C33.7365 6.24489 33.3785 4.61201 34.0999 3.1216C34.8415 1.59466 36.4634 0.787354 38.2625 1.04854C38.6899 1.11064 39.121 1.1563 39.541 1.23119C41.1283 1.51612 42.1968 2.44397 42.6077 3.991C43.0315 5.58552 42.4707 6.8951 41.2031 7.93255C41.1089 8.01492 41.0318 8.11509 40.9764 8.22729C40.9209 8.33949 40.8881 8.46153 40.8799 8.58643C40.9036 10.0695 40.9383 10.0093 42.341 10.5097C43.8789 11.0577 45.3803 11.7189 46.8817 12.3691C47.2378 12.5225 47.4662 12.5517 47.7821 12.2796C48.6223 11.549 49.5009 10.8677 50.3812 10.1517C49.7584 9.33347 49.4095 8.49145 49.5684 7.49967C49.9337 5.17638 52.4908 3.99831 54.4214 5.33529C55.7625 6.28573 57.052 7.30697 58.2844 8.39465C59.3219 9.29328 59.5483 10.8074 58.9566 12.0348C58.6764 12.6397 58.2057 13.1362 57.6166 13.4483C57.0274 13.7603 56.3523 13.8707 55.6945 13.7627C55.2616 13.6988 55.0351 13.7864 54.8671 14.2047C54.5767 14.9207 54.2132 15.6093 53.9082 16.3216C53.689 16.8312 53.2725 17.2969 53.8059 17.9307C53.952 18.1042 53.7365 18.8294 53.4771 19.0266C53.2178 19.2239 52.6095 19.233 52.3118 19.0558C51.2652 18.4421 51.0607 17.5947 51.563 16.4896C52.2375 15.0199 52.9139 13.5508 53.5922 12.0823C54.0305 11.138 54.5182 10.9956 55.4333 11.5216C56.0451 11.8741 56.6789 11.7791 57.0168 11.286C57.3547 10.7928 57.2433 10.1645 56.6936 9.71885C55.6488 8.8738 54.5967 8.03605 53.5374 7.20561C52.9182 6.72342 52.2278 6.76178 51.8333 7.26406C51.4388 7.76634 51.5429 8.40927 52.1639 8.93164C52.321 9.06497 52.4926 9.18004 52.6442 9.31885C53.1922 9.81748 53.2287 10.4513 52.6716 10.9207C51.2251 12.1389 49.7493 13.3262 48.2716 14.5042C48.0685 14.6774 47.8163 14.7827 47.5503 14.8053C47.2843 14.8279 47.018 14.7667 46.7885 14.6303C44.7062 13.4527 42.4644 12.5828 40.1328 12.0476C39.8489 11.9905 39.5917 11.8415 39.4009 11.6236C39.2101 11.4057 39.0963 11.1311 39.0771 10.8421C38.9474 9.80104 38.8178 8.75813 38.7027 7.71521C38.6388 7.14352 38.8963 6.76361 39.4333 6.53529C40.3776 6.12799 40.7977 5.51246 40.6917 4.73986C40.5748 3.89237 39.9374 3.33895 38.9292 3.21292C38.4999 3.15995 38.0707 3.08871 37.6397 3.07045C37.2392 3.0431 36.8416 3.15562 36.5148 3.3888C36.188 3.62198 35.9523 3.96135 35.8479 4.34899C35.6744 5.13255 36.0488 5.84488 36.8433 6.24305C37.6799 6.66132 37.8388 7.02296 37.541 7.88689C37.2433 8.75081 36.9365 9.60561 36.6278 10.4622C36.3739 11.1636 35.8607 11.4686 35.1228 11.5453C33.3383 11.728 31.5575 11.9453 29.7785 12.1864C29.1246 12.2759 28.5931 12.1262 28.2168 11.5928C27.1672 10.1012 26.1322 8.60043 25.1118 7.09054C24.6662 6.42753 24.8488 5.8668 25.5995 5.47228C26.1073 5.20561 26.4506 4.84397 26.3885 4.23757C26.3155 3.54534 25.6159 3.11612 24.8963 3.37548C23.5484 3.86254 22.212 4.38005 20.8872 4.92799C20.2296 5.19831 19.9739 5.79922 20.215 6.36908C20.4561 6.93894 21.0041 7.18187 21.6908 6.96817C23.4442 6.42022 23.689 6.60288 23.9429 8.4458C24.1347 9.84671 24.352 11.244 24.573 12.6467C24.7392 13.7097 24.5602 14.1335 23.6251 14.6851C21.7108 15.8038 19.967 17.1914 18.447 18.8056C17.7164 19.5746 17.2799 19.6659 16.3246 19.2568C15.278 18.8056 14.2315 18.3636 13.1922 17.8924C12.4086 17.5435 12.2223 17.0978 12.5511 16.307C12.7867 15.7389 12.7173 15.2768 12.2004 14.9335C11.742 14.6266 11.2068 14.7746 10.7812 15.3207C10.2637 15.988 9.75597 16.6619 9.25795 17.3426C8.83786 17.9198 8.86891 18.5152 9.30544 18.8768C9.74197 19.2385 10.3429 19.1362 10.8433 18.5645C11.4954 17.8193 12.0689 17.8083 12.7137 18.5536C13.4899 19.4485 14.2461 20.3636 15.0223 21.2604C15.5538 21.8741 15.6032 22.5115 15.205 23.2111C13.7863 25.7171 12.8514 28.4674 12.4488 31.3189C12.3465 32.0275 11.9812 32.4896 11.2726 32.6577C9.54653 33.065 7.82233 33.4851 6.09083 33.8723C5.23055 34.0641 4.7922 33.7335 4.65521 32.8732C4.52736 32.0695 4.06708 31.6294 3.36571 31.6385C2.66434 31.6476 2.11822 32.1736 2.08717 32.9791C2.04334 34.3015 2.03968 35.6275 2.05795 36.9499C2.05724 37.2745 2.1825 37.5866 2.40735 37.8207C2.63221 38.0547 2.9391 38.1924 3.26343 38.2047C3.598 38.209 3.92222 38.0888 4.17304 37.8673C4.42386 37.6459 4.58336 37.339 4.62051 37.0065C4.90909 35.0905 4.93283 35.0723 6.85064 35.5088C8.2479 35.8248 9.63968 36.1663 11.0516 36.4677C11.8863 36.6504 12.3794 37.0924 12.4817 37.9691C12.5456 38.5353 12.6972 39.0887 12.7831 39.6531C12.8361 39.9131 12.7857 40.1836 12.6424 40.407C12.4992 40.6304 12.2744 40.7892 12.0159 40.8494C11.7582 40.9096 11.4872 40.8669 11.2605 40.7305C11.0337 40.5941 10.869 40.3747 10.8013 40.1189C10.7475 39.9923 10.7148 39.8578 10.7045 39.7207C10.7356 38.6449 10.1347 38.2595 9.14836 38.1316C8.31183 38.0202 7.50635 37.77 6.66799 37.58Z" fill="currentColor"/>
<path d="M26.3339 32.9517C21.4316 32.906 18.5604 28.9773 19.9412 24.4768C21.0371 20.8549 24.6444 18.1499 28.3832 18.1298C32.9494 18.1079 35.9394 22.0439 34.659 26.4512C34.4301 27.1661 34.129 27.8558 33.7604 28.5097C33.7024 28.635 33.6184 28.7465 33.5139 28.8368C33.4095 28.9271 33.287 28.9941 33.1546 29.0333C33.0222 29.0726 32.883 29.0831 32.7462 29.0643C32.6094 29.0455 32.4782 28.9978 32.3613 28.9243C31.859 28.6339 31.6892 28.0713 31.996 27.5015C32.5439 26.506 32.9257 25.465 32.8855 24.3161C32.796 21.759 30.8106 20.0494 28.1038 20.1901C24.9549 20.3544 22.1092 22.9736 21.6818 26.1006C21.5971 26.6658 21.6299 27.2425 21.7781 27.7946C21.9264 28.3466 22.187 28.8621 22.5435 29.3088C22.9001 29.7556 23.345 30.124 23.8504 30.3909C24.3559 30.6579 24.9109 30.8177 25.4809 30.8604C26.7595 30.9791 27.9522 30.6887 29.1339 30.1773C29.3281 30.1147 29.5332 30.093 29.7363 30.1134C29.9393 30.1338 30.1359 30.196 30.3138 30.296C30.5366 30.4293 30.6791 30.9499 30.6134 31.2439C30.4988 31.5792 30.2584 31.8569 29.943 32.0184C28.8368 32.6261 27.596 32.947 26.3339 32.9517V32.9517Z" fill="currentColor"/>
<path d="M33.4004 45.1307C32.7792 45.1317 32.164 45.0096 31.5904 44.7713C31.0167 44.5331 30.496 44.1834 30.0583 43.7427C29.6206 43.3019 29.2746 42.7788 29.0404 42.2035C28.8061 41.6282 28.6882 41.0121 28.6935 40.391C28.6933 39.7697 28.8155 39.1544 29.0531 38.5804C29.2908 38.0063 29.6392 37.4848 30.0786 37.0454C30.5179 36.6061 31.0395 36.2577 31.6135 36.02C32.1876 35.7824 32.8028 35.6602 33.4241 35.6604C34.6785 35.6681 35.8789 36.1719 36.7632 37.0616C37.6475 37.9514 38.1438 39.1548 38.1438 40.4093C38.1433 41.031 38.0201 41.6465 37.7813 42.2206C37.5425 42.7946 37.1927 43.3159 36.7521 43.7545C36.3114 44.1932 35.7885 44.5405 35.2134 44.7767C34.6382 45.0128 34.0221 45.1331 33.4004 45.1307ZM33.4004 43.0741C33.7533 43.0756 34.103 43.0071 34.4293 42.8726C34.7556 42.7382 35.052 42.5405 35.3015 42.2908C35.551 42.0412 35.7485 41.7446 35.8827 41.4182C36.0169 41.0918 36.0852 40.7421 36.0835 40.3892C36.0767 39.6766 35.7883 38.9955 35.2811 38.4949C34.774 37.9942 34.0893 37.7146 33.3766 37.717C32.676 37.7271 32.0073 38.0117 31.5144 38.5097C31.0215 39.0078 30.7438 39.6794 30.741 40.38C30.7344 40.7333 30.7987 41.0844 30.93 41.4124C31.0613 41.7405 31.2571 42.0389 31.5057 42.29C31.7542 42.5411 32.0506 42.7399 32.3773 42.8746C32.704 43.0092 33.0543 43.0771 33.4077 43.0741H33.4004Z" fill="currentColor"/>
<path d="M41.2488 22.6777C41.2597 21.5252 41.7638 20.6138 42.6314 19.8942C43.5037 19.2011 44.5878 18.8291 45.7018 18.8404C46.8158 18.8517 47.8921 19.2457 48.7501 19.9563C50.4122 21.3809 50.5036 23.7462 48.9529 25.275C47.1666 27.0394 44.0214 27.0047 42.2807 25.2038C41.9487 24.873 41.6862 24.4791 41.509 24.0452C41.3317 23.6114 41.2433 23.1464 41.2488 22.6777V22.6777ZM48.0068 22.7197C48.0068 21.7298 46.9711 20.9115 45.6835 20.8932C44.3958 20.875 43.3364 21.6823 43.309 22.6649C43.2817 23.6878 44.3501 24.5298 45.6616 24.5243C46.9401 24.5207 47.9958 23.706 48.0013 22.7197H48.0068Z" fill="currentColor"/>
<path d="M21.9304 48.9682C21.44 48.9718 20.9538 48.8781 20.4998 48.6926C20.0459 48.5072 19.6332 48.2335 19.2857 47.8875C18.9381 47.5415 18.6627 47.1301 18.4752 46.6769C18.2877 46.2238 18.1919 45.738 18.1934 45.2476C18.201 44.269 18.5928 43.3326 19.2842 42.6401C19.9757 41.9475 20.9116 41.5544 21.8902 41.5453C22.3806 41.5417 22.8669 41.6357 23.3207 41.8219C23.7744 42.0082 24.1866 42.2829 24.533 42.63C24.8795 42.9772 25.1534 43.3899 25.3388 43.844C25.5241 44.2981 25.6172 44.7846 25.6126 45.275C25.6147 45.7597 25.521 46.24 25.3369 46.6883C25.1527 47.1367 24.8818 47.5442 24.5396 47.8874C24.1974 48.2306 23.7907 48.5028 23.3429 48.6883C22.8951 48.8738 22.415 48.9689 21.9304 48.9682V48.9682ZM21.9304 43.6019C21.4924 43.6008 21.0713 43.7702 20.7562 44.0744C20.4411 44.3785 20.2569 44.7935 20.2427 45.2312C20.2383 45.6688 20.4071 46.0905 20.7123 46.4042C21.0174 46.718 21.4343 46.8984 21.8719 46.9061C22.0887 46.9137 22.3049 46.8775 22.5074 46.7996C22.7099 46.7217 22.8946 46.6038 23.0504 46.4529C23.2063 46.302 23.3301 46.1212 23.4144 45.9213C23.4988 45.7214 23.5419 45.5066 23.5413 45.2896C23.5472 45.0736 23.5103 44.8585 23.4329 44.6567C23.3556 44.4549 23.2392 44.2704 23.0904 44.1136C22.9416 43.9569 22.7634 43.831 22.5659 43.7432C22.3684 43.6554 22.1555 43.6074 21.9395 43.6019H21.9304Z" fill="currentColor"/>
<path d="M47.8756 42.1462C46.8969 42.1482 45.9574 41.7618 45.2633 41.0718C44.5692 40.3818 44.1772 39.4446 44.1733 38.4659C44.1761 37.4992 44.5592 36.5725 45.2396 35.8859C45.92 35.1993 46.8433 34.808 47.8099 34.7965C48.2943 34.7885 48.7755 34.8765 49.2257 35.0553C49.676 35.2342 50.0863 35.5004 50.4332 35.8386C50.7801 36.1769 51.0566 36.5804 51.2468 37.026C51.437 37.4715 51.5371 37.9504 51.5414 38.4348C51.5452 38.9194 51.4534 39.4001 51.2711 39.8491C51.0888 40.2982 50.8196 40.7068 50.4791 41.0516C50.1385 41.3964 49.7332 41.6706 49.2865 41.8585C48.8397 42.0463 48.3603 42.1441 47.8756 42.1462V42.1462ZM47.8409 40.0787C48.2676 40.0875 48.6803 39.9266 48.9885 39.6315C49.2967 39.3363 49.4752 38.9309 49.4848 38.5042C49.4896 38.2931 49.4528 38.0832 49.3765 37.8863C49.3002 37.6894 49.1858 37.5095 49.0399 37.3569C48.8941 37.2042 48.7196 37.0818 48.5264 36.9966C48.3332 36.9114 48.1251 36.8651 47.914 36.8604C47.6973 36.8526 47.4813 36.8882 47.2786 36.9651C47.0759 37.0421 46.8906 37.1587 46.7337 37.3083C46.5768 37.4579 46.4514 37.6374 46.3649 37.8362C46.2784 38.035 46.2325 38.2491 46.23 38.4659C46.2324 38.8926 46.4028 39.3011 46.7043 39.603C47.0059 39.9049 47.4142 40.0758 47.8409 40.0787V40.0787Z" fill="currentColor"/>
<path d="M38.04 47.8467C38.9967 47.8423 39.916 48.2171 40.5969 48.8891C41.2778 49.5611 41.6647 50.4754 41.6729 51.432C41.6687 52.387 41.2908 53.3025 40.6199 53.9822C39.9491 54.6619 39.0387 55.0519 38.0839 55.0686C37.1276 55.0648 36.2113 54.6845 35.5334 54.01C34.8555 53.3355 34.4706 52.4212 34.462 51.4649C34.4576 50.5109 34.8319 49.5941 35.5027 48.9158C36.1735 48.2374 37.086 47.8529 38.04 47.8467V47.8467ZM38.0784 49.9051C37.874 49.9029 37.6713 49.9411 37.4817 50.0175C37.2922 50.0939 37.1196 50.2069 36.9738 50.3501C36.8281 50.4933 36.712 50.6639 36.6323 50.8521C36.5526 51.0403 36.5109 51.2423 36.5094 51.4467C36.5137 51.8593 36.6797 52.2539 36.9717 52.5455C37.2637 52.8372 37.6584 53.0027 38.0711 53.0065C38.4723 52.9953 38.8545 52.8325 39.1405 52.5509C39.4265 52.2692 39.5952 51.8897 39.6126 51.4887C39.6176 51.0761 39.46 50.6781 39.1739 50.3808C38.8879 50.0835 38.4963 49.9106 38.0839 49.8996L38.0784 49.9051Z" fill="currentColor"/>
<path d="M45.8755 48.0184C45.6031 48.0367 45.3297 48.0367 45.0573 48.0184C44.8134 48.0019 44.5857 47.8902 44.4234 47.7074C44.2611 47.5246 44.1772 47.2854 44.1897 47.0412C44.1806 46.4933 44.4819 46.1024 45.0299 46.0421C45.5958 45.9837 46.1662 45.9837 46.7322 46.0421C47.313 46.1006 47.6143 46.4969 47.5888 47.0832C47.565 47.6403 47.2417 47.9636 46.6938 48.0293C46.4213 48.0449 46.1481 48.0449 45.8755 48.0293V48.0184Z" fill="currentColor"/>
<path d="M37.7183 18.391C37.492 18.4056 37.2651 18.4056 37.0388 18.391C36.7854 18.3778 36.5468 18.2677 36.3723 18.0834C36.1979 17.8991 36.101 17.6548 36.1018 17.401C36.0952 17.2698 36.1147 17.1385 36.1592 17.0148C36.2036 16.8911 36.2722 16.7775 36.3608 16.6805C36.4495 16.5835 36.5566 16.5051 36.6758 16.4497C36.795 16.3944 36.924 16.3632 37.0553 16.3581C37.4853 16.3298 37.9166 16.3298 38.3466 16.3581C38.9767 16.391 39.3877 16.8147 39.3841 17.3882C39.3804 17.9617 38.9658 18.3654 38.3302 18.4056C38.1274 18.4184 37.9229 18.4056 37.7183 18.4056V18.391Z" fill="currentColor"/>
<path d="M29.227 51.4211C28.9815 51.4226 28.7366 51.3981 28.4964 51.3481C28.2716 51.2952 28.0737 51.1626 27.9393 50.9748C27.8049 50.787 27.7433 50.5569 27.7658 50.3271C27.7633 50.085 27.8531 49.8511 28.017 49.673C28.1809 49.4948 28.4065 49.3858 28.648 49.3682C28.9859 49.3322 29.3265 49.3273 29.6653 49.3536C30.2936 49.381 30.7265 49.7919 30.7411 50.3508C30.7557 50.9097 30.3028 51.3645 29.6452 51.401C29.5101 51.401 29.3749 51.401 29.2379 51.401L29.227 51.4211Z" fill="currentColor"/>
<path d="M19.6672 36.4403C19.4188 36.4093 19.0955 36.4677 18.9366 36.3307C18.6389 36.0714 18.2462 35.7024 18.2481 35.3791C18.2499 35.0558 18.6133 34.6229 18.9421 34.4439C19.2709 34.2649 19.6983 34.338 20.08 34.3599C20.7266 34.3983 21.1449 34.8257 21.143 35.3828C21.1412 35.9399 20.7211 36.349 20.0764 36.4074C19.9412 36.4202 19.8024 36.4074 19.6654 36.4074L19.6672 36.4403Z" fill="currentColor"/>
<path d="M41.3602 33.4412C41.1146 33.428 40.8704 33.3962 40.6296 33.3462C40.4029 33.3018 40.2014 33.173 40.0658 32.9859C39.9303 32.7988 39.8706 32.5673 39.899 32.338C39.9191 31.8211 40.1931 31.4759 40.7045 31.3973C41.0626 31.3462 41.4252 31.3352 41.7857 31.3645C42.4524 31.4083 42.8287 31.79 42.8141 32.3855C42.7976 33.0138 42.4287 33.3225 41.8405 33.401C41.6824 33.4111 41.5238 33.4111 41.3657 33.401L41.3602 33.4412Z" fill="currentColor"/>
</g>
<defs>
<clipPath id="clip0_120_31">
<rect width="70" height="70" fill="currentColor"/>
</clipPath>
</defs>
</svg>
