<svg width="80" height="80" viewBox="0 0 80 80" fill="none" xmlns="http://www.w3.org/2000/svg">
<path d="M64.5217 72.0886H67.1072C67.1072 70.0183 67.1072 67.9867 67.1072 65.9572C67.1072 65.007 67.6178 64.5125 68.4753 64.5534C69.2466 64.5899 69.671 65.065 69.6775 65.9615C69.6926 67.7308 69.6775 69.5002 69.6775 71.2716V72.2219C72.3513 72.8948 74.0577 74.5695 74.7342 77.2783C76.0011 77.2783 77.2356 77.2783 78.468 77.2783C79.4332 77.2783 79.9762 77.7964 79.9934 78.6607C80.0106 79.5249 79.4914 79.9807 78.5219 79.985C75.8603 79.9979 73.1987 79.9979 70.5372 79.985C69.5525 79.985 69.029 79.5163 69.029 78.695C69.029 77.8738 69.5375 77.4352 70.5372 77.4202C70.9681 77.4202 71.399 77.4202 71.8299 77.4202C71.7415 76.2227 70.3993 74.9608 68.9234 74.8963C66.8564 74.792 64.7854 74.792 62.7184 74.8963C61.2468 74.9801 60.2342 75.8873 59.618 77.4137C60.9495 77.4137 62.169 77.4137 63.3884 77.4137C64.2222 77.4137 65.056 77.4008 65.8877 77.4266C66.6224 77.4481 67.0167 77.8738 67.0856 78.5854C67.1079 78.7465 67.0974 78.9103 67.055 79.0673C67.0125 79.2242 66.9388 79.3711 66.8383 79.499C66.7378 79.627 66.6125 79.7335 66.47 79.8121C66.3274 79.8908 66.1704 79.9401 66.0084 79.957C65.7683 79.9875 65.5261 79.9976 65.2844 79.9871H45.7019C45.4332 79.9987 45.1641 79.9843 44.8982 79.9441C44.6284 79.9059 44.3804 79.7752 44.1968 79.5743C44.0131 79.3734 43.9054 79.115 43.8921 78.8434C43.853 78.588 43.9057 78.327 44.041 78.1066C44.1762 77.8863 44.3853 77.7208 44.6311 77.6395C44.9613 77.5211 45.2979 77.4214 45.6394 77.3406C45.2645 76.5818 44.8896 75.8358 44.5169 75.0747C44.3596 74.7544 44.0623 74.8447 43.808 74.8425C42.6252 74.8425 41.438 74.8425 40.2595 74.8425C39.2339 74.8318 38.6975 74.3524 38.7233 73.501C38.747 72.6905 39.2577 72.2735 40.2703 72.2735C44.2476 72.2735 48.2255 72.2735 52.2042 72.2735C53.7663 72.2735 54.1993 71.8327 54.1993 70.2526C54.1993 65.2908 54.2166 60.3289 54.1864 55.3671C54.1864 54.4813 54.4277 53.8622 55.1861 53.3441C55.9022 52.8306 56.4202 52.0877 56.6536 51.2392C56.8871 50.3907 56.822 49.488 56.4691 48.6817C56.1162 47.8753 55.4969 47.2141 54.7145 46.8083C53.9321 46.4025 53.0339 46.2766 52.1698 46.4517C50.3039 46.8301 49.0586 48.2898 49.05 50.2139C49.0285 54.3696 49.05 58.5274 49.05 62.683C49.05 64.0374 48.6816 64.4029 47.3372 64.4029H12.0093C10.7165 64.4029 10.3352 64.0202 10.3352 62.7217C10.3352 58.5381 10.3481 54.3524 10.3352 50.1688C10.3443 49.3431 10.0778 48.538 9.57768 47.8802C9.07758 47.2224 8.37234 46.7493 7.57308 46.5355C6.69658 46.2699 5.75396 46.3243 4.91397 46.6889C4.07399 47.0536 3.3915 47.7046 2.9887 48.5255C2.5859 49.3465 2.48909 50.2836 2.7156 51.1693C2.94211 52.0549 3.47715 52.8312 4.22493 53.3591C4.95962 53.8686 5.24619 54.4599 5.19233 55.3176C5.14708 56.0658 5.19233 56.8225 5.19233 57.5685C5.19233 58.7036 4.78296 59.2368 3.92115 59.2476C3.05933 59.2583 2.62842 58.7208 2.61119 57.6094V57.5298C2.68106 56.9361 2.62093 56.3343 2.43493 55.766C2.24894 55.1978 1.94152 54.6765 1.53392 54.2384C-1.40917 50.8094 0.163642 45.639 4.43608 44.1492C4.66446 44.0697 4.89499 44.003 5.19878 43.9063V43.0463C5.19878 39.7463 5.19878 36.4485 5.19878 33.157C5.21386 28.1178 9.83534 24.2997 14.7714 25.3037C16.2211 25.6029 17.7271 25.4675 19.0998 24.9145C24.5677 22.7944 30.5477 22.3615 36.265 23.6719C37.2453 23.8869 37.7258 24.491 37.5577 25.2693C37.3897 26.0475 36.711 26.4517 35.7285 26.241C30.0427 25.0113 24.525 25.5788 19.1257 27.6771C17.6046 28.2683 16.0425 28.2984 14.4482 27.9824C10.8006 27.2579 7.76914 29.7345 7.75837 33.4451C7.74544 36.7989 7.75837 40.1505 7.74329 43.5021C7.74329 44.0224 7.8941 44.2223 8.38965 44.3878C11.1905 45.3101 12.8905 47.6835 12.9142 50.6482C12.9142 51.3985 12.9142 52.1531 12.9142 52.9851C13.7587 52.5766 14.515 52.1251 15.3854 51.9531C15.8808 51.8476 16.3873 51.8028 16.8936 51.8198C17.5917 51.8542 17.9838 52.2649 18.0463 52.9356C18.1088 53.6064 17.8308 54.1395 17.094 54.3072C16.857 54.3532 16.6174 54.3841 16.3765 54.3997C14.5839 54.5695 13.1447 55.8143 12.9745 57.6072C12.8323 59.0605 12.9443 60.5396 12.9443 62.0531H46.4667C46.3827 60.3913 46.6822 58.7337 46.2836 57.1085C45.8527 55.3628 44.4113 54.3782 42.4054 54.376C36.0338 54.376 29.6635 54.376 23.2947 54.376C22.9991 54.38 22.7035 54.3678 22.4092 54.3395C22.2612 54.3317 22.1162 54.2946 21.9827 54.2304C21.8491 54.1661 21.7297 54.0761 21.6314 53.9654C21.4685 53.7842 21.3593 53.5614 21.3159 53.3218C21.2726 53.0823 21.2968 52.8355 21.3858 52.6088C21.4516 52.3876 21.5858 52.1928 21.7692 52.0523C21.9526 51.9117 22.1759 51.8326 22.407 51.8263C22.7001 51.8069 22.9974 51.8026 23.2926 51.8026H40.3134C41.3906 51.8026 42.4679 51.8026 43.5452 51.8521C44.6224 51.9015 45.579 52.4304 46.6154 53.0152C46.6154 52.1337 46.6154 51.3662 46.6154 50.5987C46.6455 47.6577 48.311 45.323 51.0947 44.3986C51.6161 44.2266 51.7949 44.0116 51.7884 43.4527C51.7583 40.1548 51.7884 36.8548 51.7712 33.5634C51.7561 29.7495 48.7548 27.2751 45.0103 28.0017C43.4284 28.349 41.7788 28.2203 40.2703 27.6319C39.4214 27.288 39.1198 26.6946 39.3869 25.9271C39.6541 25.1596 40.3285 24.8629 41.1536 25.1983C42.2309 25.6283 43.2866 25.6283 44.3854 25.3811C49.5563 24.2115 54.195 27.8921 54.2144 33.1807C54.2144 36.6935 54.2144 40.2064 54.2144 43.7149C54.2228 43.7877 54.2372 43.8596 54.2575 43.9299C54.5074 44.0116 54.7832 44.0955 55.0547 44.1943C56.0993 44.56 57.0315 45.1888 57.761 46.0197C58.4904 46.8507 58.9922 47.8556 59.2179 48.937C59.4435 50.0185 59.3853 51.1398 59.0489 52.1921C58.7124 53.2445 58.1091 54.1923 57.2976 54.9436C57.1204 55.0979 56.9812 55.2908 56.8908 55.5074C56.8004 55.724 56.7612 55.9585 56.7762 56.1926C56.7912 60.832 56.7632 65.4714 56.7956 70.1107C56.8085 71.9832 56.2462 73.4817 54.4816 74.3459C54.3848 74.387 54.3048 74.4594 54.2543 74.5515C54.2039 74.6435 54.1861 74.7498 54.2037 74.8533C54.2037 75.6272 54.2037 76.4033 54.2037 77.2353H56.8968C57.5669 74.6039 59.2323 72.9356 61.9449 72.2455V71.2802C61.9449 56.3403 61.9449 41.4017 61.9449 26.4646C61.929 26.1699 61.9369 25.8744 61.9686 25.581C61.9939 25.2818 62.1344 25.0041 62.3606 24.806C62.5868 24.608 62.881 24.5051 63.1816 24.519C63.8969 24.4975 64.3666 24.85 64.4959 25.5595C64.5333 25.8791 64.5427 26.2014 64.5239 26.5226V72.0993L64.5217 72.0886ZM51.5751 77.2783V74.7673H47.2661C47.6517 75.5369 48.0051 76.2249 48.3433 76.9171C48.3825 77.03 48.4582 77.1267 48.5584 77.192C48.6586 77.2574 48.7777 77.2878 48.897 77.2783C49.7761 77.2697 50.6573 77.2783 51.5751 77.2783V77.2783Z" fill="#F7CA18"/>
<path d="M13.7092 77.2783H39.4192C39.7142 77.2591 40.0103 77.2713 40.3026 77.3148C40.5863 77.3576 40.844 77.5035 41.0262 77.7246C41.2084 77.9458 41.3022 78.2263 41.2894 78.5123C41.3088 79.1852 40.9899 79.6431 40.3241 79.8022C40.0861 79.845 39.8437 79.8587 39.6024 79.8431H1.71489C0.637623 79.8431 0.131301 79.5141 0.0257292 78.7531C-0.0949247 77.8931 0.456635 77.289 1.39817 77.274C2.62841 77.2546 3.85649 77.274 5.17076 77.274C5.17076 76.3818 5.17076 75.5541 5.17076 74.735C5.17076 74.4168 4.9553 74.3438 4.73985 74.2277C3.2446 73.3677 2.55946 72.0907 2.57239 70.3816C2.59178 67.8878 2.57239 65.3939 2.57239 62.9023C2.57239 61.9005 3.08516 61.3974 3.98145 61.4662C4.74847 61.5199 5.14275 61.9864 5.1449 62.9087C5.15568 65.3209 5.1449 67.7351 5.1449 70.1472C5.1449 71.6779 5.57581 72.123 7.08399 72.123H33.3693C33.5848 72.123 33.8002 72.123 34.0157 72.123C34.94 72.1466 35.4441 72.5916 35.4549 73.3871C35.4657 74.1825 34.9486 74.677 33.9747 74.6942C33.7873 74.6942 33.5998 74.6942 33.4102 74.6942C27.6598 74.6942 21.9093 74.7178 16.161 74.6684C15.2152 74.6684 14.6529 74.9027 14.3706 75.8056C14.1828 76.3105 13.9618 76.8024 13.7092 77.2783V77.2783ZM12.1084 74.7565H7.82515V77.2783C8.74513 77.2783 9.60263 77.2783 10.4601 77.2783C10.6756 77.2783 10.876 77.2525 10.9923 77.0139C11.3413 76.2786 11.7141 75.5455 12.1084 74.7565Z" fill="#F7CA18"/>
<path d="M72.2631 23.2076H71.2958C66.4071 23.2076 61.5163 23.1323 56.6277 23.2355C53.3248 23.3065 52.1032 20.3053 53.0059 18.0308C54.4171 14.4448 55.7357 10.8202 57.0866 7.2106C57.3236 6.56565 57.733 6.14858 58.4375 6.15288C59.0515 6.15288 59.4221 6.53125 59.6268 7.07516C59.7927 7.50513 59.6117 7.9179 59.4631 8.31992L55.572 18.7811C55.0656 20.1462 55.3953 20.6342 56.8345 20.6342H74.8874C74.9951 20.6342 75.1028 20.6342 75.2106 20.6342C76.2878 20.602 76.6606 20.0559 76.2878 19.0648C74.5024 14.361 72.712 9.65856 70.9166 4.95756C70.7722 4.58134 70.6386 4.20297 70.4856 3.83319C70.1452 3.0442 69.5528 2.61208 68.6737 2.61208H62.8694C62.5465 2.60191 62.2284 2.69144 61.9585 2.86844C61.6885 3.04544 61.4799 3.30128 61.3612 3.60101C60.9303 4.476 60.2839 4.80707 59.5815 4.51254C58.8792 4.21802 58.6056 3.39893 58.9998 2.52824C59.7087 0.961003 60.9777 0.120415 62.6625 0.0602196C64.8171 -0.015025 66.9716 -0.0214745 69.1089 0.0602196C71.1471 0.139764 72.3709 1.38237 73.0582 3.21404C74.2547 6.39581 75.4483 9.57901 76.639 12.7636C77.2509 14.3932 77.7809 16.0572 78.4941 17.6416C79.6446 20.1935 78.507 23.2828 74.8594 23.2678V27.8233C74.8594 28.4145 74.8744 29.0036 74.8594 29.5926C74.8292 30.4526 74.3487 30.9298 73.5666 30.9298C72.7845 30.9298 72.2933 30.4418 72.2739 29.5948C72.2545 27.6599 72.2739 25.7251 72.2739 23.8031L72.2631 23.2076Z" fill="#F7CA18"/>
<path d="M69.684 43.3301C69.684 49.0143 69.684 54.6978 69.684 60.3805C69.684 61.0771 69.544 61.6704 68.7813 61.8854C68.6035 61.9494 68.4136 61.9721 68.2257 61.9521C68.0378 61.932 67.8569 61.8696 67.6967 61.7696C67.5365 61.6696 67.4012 61.5346 67.301 61.3748C67.2007 61.215 67.1381 61.0345 67.118 60.8471C67.097 60.6327 67.0913 60.4172 67.1008 60.2021V26.2754C67.087 26.0344 67.095 25.7927 67.1245 25.5531C67.155 25.2545 67.2997 24.9791 67.5284 24.7842C67.7571 24.5892 68.0522 24.4896 68.3526 24.5061C69.0679 24.491 69.5246 24.8501 69.6453 25.5595C69.6769 25.8256 69.6849 26.0939 69.669 26.3614C69.679 32.0184 69.684 37.6746 69.684 43.3301Z" fill="#F7CA18"/>
<path d="M20.5994 69.5539C19.3929 69.5539 18.1863 69.5539 16.9798 69.5539C16.0102 69.5539 15.491 69.0788 15.4996 68.264C15.5082 67.4492 16.021 66.9956 17.0078 66.9934C19.4496 66.9848 21.8914 66.9848 24.3332 66.9934C25.3049 66.9934 25.822 67.4664 25.8155 68.2834C25.8091 69.1003 25.2898 69.5475 24.3074 69.5539C23.0663 69.5625 21.8296 69.5539 20.5994 69.5539Z" fill="#F7CA18"/>
<path d="M70.9227 10.4268C70.8861 10.9857 70.6168 11.4608 69.9941 11.6156C69.3284 11.7812 68.7014 11.6006 68.4493 10.9363C67.943 9.58832 67.5013 8.21457 67.092 6.83437C66.8937 6.16147 67.1803 5.61756 67.8504 5.34668C68.4795 5.09085 69.003 5.27573 69.3995 5.81964C69.5891 6.07977 70.9119 10.057 70.9227 10.4268Z" fill="#F7CA18"/>
<path d="M71.0825 12.8496C71.341 12.8475 71.5933 12.9279 71.8026 13.0792C72.012 13.2304 72.1673 13.4445 72.246 13.6902C72.5756 14.5652 72.8923 15.4423 73.1724 16.3367C73.3879 17.0891 73.0173 17.719 72.2675 17.9705C71.5673 18.207 70.992 17.9168 70.699 17.1321C70.3823 16.2722 70.0764 15.4251 69.8178 14.5523C69.7477 14.355 69.7272 14.1435 69.7582 13.9364C69.7892 13.7294 69.8708 13.5331 69.9958 13.3649C70.1207 13.1967 70.2852 13.0617 70.4747 12.9719C70.6642 12.882 70.8729 12.84 71.0825 12.8496V12.8496Z" fill="#F7CA18"/>
<path d="M10.3138 69.5496C9.88287 69.5496 9.45196 69.5711 9.02106 69.5496C8.22819 69.5066 7.76066 69.0315 7.74989 68.2898C7.73651 68.1225 7.75859 67.9542 7.81469 67.796C7.8708 67.6378 7.95967 67.4931 8.07552 67.3714C8.19137 67.2498 8.3316 67.1538 8.48709 67.0898C8.64258 67.0257 8.80983 66.9951 8.97796 66.9999C9.88718 66.9655 10.7986 66.9633 11.7078 66.9999C11.8697 66.9987 12.0302 67.0307 12.1792 67.0939C12.3283 67.157 12.4628 67.25 12.5745 67.3671C12.6861 67.4841 12.7725 67.6228 12.8284 67.7744C12.8842 67.9261 12.9083 68.0876 12.8992 68.249C12.9121 68.9907 12.4489 69.498 11.6711 69.5389C11.2251 69.5733 10.7705 69.5496 10.3138 69.5496Z" fill="#F7CA18"/>
<path d="M30.9692 32.2391C30.9692 32.4954 30.8926 32.7458 30.7493 32.9585C30.606 33.1712 30.4024 33.3365 30.1645 33.4332C29.9267 33.53 29.6653 33.5538 29.4138 33.5018C29.1623 33.4497 28.9321 33.324 28.7525 33.1408C28.5728 32.9576 28.452 32.7252 28.4053 32.4731C28.3586 32.2211 28.3883 31.9609 28.4904 31.7258C28.5926 31.4906 28.7626 31.2911 28.9788 31.1528C29.1951 31.0145 29.4477 30.9436 29.7045 30.9492C30.0425 30.9565 30.3642 31.0956 30.6006 31.3367C30.837 31.5778 30.9693 31.9017 30.9692 32.2391V32.2391Z" fill="#F7CA18"/>
<path d="M14.1964 36.0765C13.94 36.0765 13.6894 36.0004 13.4765 35.8579C13.2635 35.7154 13.0978 35.5129 13.0005 35.2762C12.9032 35.0395 12.8786 34.7792 12.9299 34.5286C12.9812 34.2779 13.1061 34.0481 13.2886 33.8684C13.4711 33.6887 13.7031 33.5672 13.9549 33.5194C14.2068 33.4716 14.4673 33.4996 14.7032 33.5999C14.9391 33.7002 15.1397 33.8682 15.2797 34.0826C15.4197 34.2969 15.4926 34.548 15.4891 34.8038C15.4846 35.1429 15.3464 35.4666 15.1045 35.7048C14.8625 35.943 14.5363 36.0766 14.1964 36.0765V36.0765Z" fill="#F7CA18"/>
<path d="M46.452 34.7587C46.4601 35.0144 46.3918 35.2667 46.2558 35.4835C46.1198 35.7004 45.9222 35.872 45.6882 35.9766C45.4543 36.0811 45.1944 36.1139 44.9417 36.0707C44.689 36.0275 44.4549 35.9104 44.2691 35.7341C44.0833 35.5578 43.9543 35.3304 43.8983 35.0807C43.8424 34.8311 43.8621 34.5705 43.955 34.332C44.0479 34.0936 44.2097 33.8881 44.4199 33.7416C44.6301 33.5952 44.8792 33.5144 45.1356 33.5096C45.4755 33.5032 45.8043 33.6307 46.0507 33.8645C46.2971 34.0983 46.4413 34.4196 46.452 34.7587V34.7587Z" fill="#F7CA18"/>
<path d="M21.9354 38.6628C22.1919 38.659 22.4437 38.7313 22.6588 38.8707C22.874 39.0101 23.0427 39.2102 23.1435 39.4455C23.2443 39.6809 23.2727 39.9408 23.225 40.1923C23.1774 40.4438 23.0558 40.6754 22.8758 40.8577C22.6958 41.0401 22.4655 41.1649 22.2142 41.2162C21.963 41.2676 21.7021 41.2432 21.4647 41.1462C21.2274 41.0491 21.0243 40.8838 20.8814 40.6713C20.7385 40.4588 20.6621 40.2086 20.6621 39.9527C20.6621 39.6139 20.7956 39.2887 21.0339 39.0474C21.2721 38.806 21.596 38.6679 21.9354 38.6628Z" fill="#F7CA18"/>
<path d="M37.4245 41.2254C37.1683 41.2254 36.9178 41.1494 36.705 41.0071C36.4921 40.8648 36.3264 40.6626 36.229 40.4261C36.1315 40.1897 36.1067 39.9297 36.1576 39.6791C36.2086 39.4285 36.333 39.1987 36.5151 39.0189C36.6972 38.839 36.9287 38.7172 37.1803 38.6689C37.4319 38.6206 37.6922 38.6479 37.9282 38.7476C38.1642 38.8472 38.3652 39.0145 38.5057 39.2283C38.6461 39.4421 38.7198 39.6928 38.7172 39.9484C38.7138 40.2883 38.5761 40.6131 38.334 40.8522C38.092 41.0913 37.7651 41.2254 37.4245 41.2254V41.2254Z" fill="#F7CA18"/>
<path d="M30.9692 45.1059C30.9692 45.3619 30.8928 45.6121 30.7498 45.8247C30.6068 46.0373 30.4036 46.2026 30.1661 46.2995C29.9286 46.3965 29.6676 46.4207 29.4163 46.3692C29.165 46.3177 28.9347 46.1927 28.7548 46.0101C28.5749 45.8276 28.4535 45.5957 28.4061 45.3441C28.3586 45.0925 28.3873 44.8325 28.4885 44.5972C28.5896 44.3619 28.7587 44.162 28.9741 44.0228C29.1895 43.8837 29.4415 43.8117 29.6981 43.816C30.0372 43.8216 30.3605 43.96 30.5982 44.2013C30.836 44.4426 30.9693 44.7675 30.9692 45.1059V45.1059Z" fill="#F7CA18"/>
<path d="M16.8116 48.9477C16.5553 48.9549 16.3027 48.8859 16.0858 48.7495C15.8689 48.6131 15.6976 48.4154 15.5936 48.1815C15.4896 47.9477 15.4576 47.6883 15.5017 47.4363C15.5458 47.1843 15.664 46.9511 15.8413 46.7663C16.0186 46.5815 16.247 46.4534 16.4974 46.3985C16.7478 46.3435 17.0089 46.3641 17.2475 46.4576C17.4862 46.551 17.6916 46.7132 17.8376 46.9235C17.9837 47.1338 18.0638 47.3826 18.0677 47.6384C18.0729 47.9776 17.9441 48.3052 17.709 48.5503C17.4739 48.7953 17.1515 48.9381 16.8116 48.9477Z" fill="#F7CA18"/>
<path d="M42.5975 46.3872C42.8539 46.3872 43.1045 46.4633 43.3175 46.6058C43.5304 46.7484 43.6961 46.9508 43.7934 47.1875C43.8907 47.4242 43.9153 47.6845 43.864 47.9352C43.8127 48.1858 43.6878 48.4156 43.5053 48.5953C43.3228 48.775 43.0909 48.8965 42.839 48.9443C42.5871 48.9921 42.3266 48.9641 42.0907 48.8638C41.8549 48.7635 41.6542 48.5955 41.5142 48.3812C41.3743 48.1668 41.3014 47.9157 41.3048 47.6599C41.3093 47.3208 41.4475 46.9971 41.6895 46.7589C41.9314 46.5207 42.2576 46.3872 42.5975 46.3872V46.3872Z" fill="#F7CA18"/>
<path d="M7.74545 50.2719C7.74148 50.5278 7.66133 50.7767 7.51518 50.987C7.36904 51.1973 7.1635 51.3595 6.92473 51.4529C6.68595 51.5463 6.42473 51.5668 6.17428 51.5116C5.92384 51.4565 5.69551 51.3282 5.51831 51.1432C5.34111 50.9582 5.22307 50.7248 5.17921 50.4726C5.13534 50.2205 5.16763 49.961 5.27197 49.7272C5.37631 49.4935 5.54798 49.2959 5.76514 49.1598C5.9823 49.0236 6.23515 48.955 6.49151 48.9627C6.83097 48.9728 7.15281 49.1158 7.38746 49.3608C7.6221 49.6058 7.75069 49.9331 7.74545 50.2719V50.2719Z" fill="#F7CA18"/>
<path d="M54.193 50.2053C54.2023 50.4611 54.1352 50.7138 54.0002 50.9313C53.8652 51.1489 53.6684 51.3215 53.4348 51.4271C53.2013 51.5328 52.9415 51.5667 52.6885 51.5247C52.4355 51.4826 52.2009 51.3664 52.0143 51.1908C51.8277 51.0153 51.6976 50.7883 51.6407 50.5388C51.5837 50.2893 51.6024 50.0285 51.6944 49.7897C51.7864 49.5508 51.9475 49.3446 52.1572 49.1974C52.367 49.0501 52.6159 48.9684 52.8722 48.9627C53.2119 48.9552 53.5408 49.0813 53.788 49.3138C54.0351 49.5463 54.1806 49.8666 54.193 50.2053V50.2053Z" fill="#F7CA18"/>
</svg>
