<svg width="80" height="80" viewBox="0 0 80 80" fill="none" xmlns="http://www.w3.org/2000/svg">
<g clip-path="url(#clip0_86_561)">
<path d="M79.9999 39.6507C79.3749 41.5156 78.0791 42.2947 76.127 42.1642C75.1228 42.0958 74.1082 42.1517 73.1207 42.1517C72.8645 43.9171 72.7041 45.6121 72.3666 47.276C70.1978 58.1503 64.4332 66.6997 55.2166 72.9056C48.9541 77.1244 41.9707 79.2835 34.3999 79.5363C32.6937 79.5923 31.877 78.8194 31.8728 77.1514C31.8728 75.2174 31.8728 73.2786 31.8728 71.335C31.8728 69.8182 32.6374 69.0308 34.1395 68.9687C40.6103 68.6993 46.3874 66.5796 51.4478 62.5556C52.4332 61.7723 53.1041 61.7122 53.6041 62.3608C54.1041 63.0094 53.8895 63.5875 52.9332 64.3521C47.6832 68.548 41.6832 70.8191 34.9687 71.2666C34.7603 71.2791 34.552 71.2998 34.3437 71.3184C34.3228 71.3184 34.3062 71.3495 34.252 71.3972V77.3482C36.3687 77.0685 38.4437 76.911 40.4666 76.5194C47.6693 75.1007 54.2954 71.6119 59.5245 66.4851C64.7535 61.3583 68.3558 54.8186 69.8853 47.6759C70.3374 45.5624 70.4749 43.3825 70.7186 41.2317C70.8436 40.175 71.177 39.8331 72.2603 39.8268C73.6937 39.8268 75.127 39.8517 76.5562 39.8061C76.8937 39.7937 77.3895 39.6113 77.5082 39.3648C77.627 39.1182 77.4624 38.6085 77.2499 38.3598C74.3694 34.9574 71.4701 31.573 68.552 28.2066C67.9458 27.5021 67.5645 27.5021 66.9687 28.1962C64.6853 30.8485 62.411 33.5084 60.1457 36.1758C59.961 36.4128 59.8619 36.7048 59.8645 37.0047C59.8812 37.906 59.9645 38.8074 60.0312 39.8413H62.9332C64.4499 39.8413 64.7791 40.1708 64.6937 41.6751C64.3145 48.2706 62.0416 54.1533 57.9332 59.3438C57.2707 60.1727 56.6395 60.3592 56.0332 59.8929C55.427 59.4267 55.4374 58.7305 56.0791 57.9265C59.0814 54.1984 61.0969 49.7817 61.9416 45.0796C62.1103 44.1471 62.2124 43.2002 62.3582 42.2077H59.927C58.3062 52.9328 52.7145 60.8212 42.4853 64.839C32.2562 68.8568 22.7374 66.8199 14.0728 59.9883C14.0728 60.8627 14.0728 61.6729 14.0728 62.4748C14.0603 64.6173 12.7374 65.9621 10.5728 65.9828C8.40824 66.0035 6.24783 65.9331 4.08949 66.0035C2.07491 66.0719 0.672827 65.328 0.00199381 63.3906V54.5407C0.67491 52.7152 1.97074 51.8615 3.94157 51.9817C4.79574 52.0356 5.65407 51.9921 6.51032 51.9921H7.80199C7.24574 50.6017 6.7124 49.3481 6.24365 48.0696C5.70199 46.5881 5.7249 46.5218 4.16032 46.5943C2.13115 46.6875 0.689486 45.9623 -0.00634766 43.9938V35.1522C0.674902 33.2293 2.077 32.4274 4.08116 32.5787C4.46873 32.615 4.85905 32.6108 5.24574 32.5662C5.34963 32.5519 5.44906 32.515 5.53693 32.458C5.6248 32.4011 5.69895 32.3255 5.75407 32.2368C6.36657 30.5791 6.94575 28.9069 7.55616 27.1747C6.43741 27.1747 5.29782 27.1187 4.16449 27.1871C2.13324 27.3094 0.693656 26.5655 -0.00217692 24.6053V15.7658C0.556156 14.2158 1.57074 13.2109 3.30824 13.1902C5.80824 13.1591 8.30824 13.1446 10.8082 13.1902C12.7478 13.2295 14.0437 14.6095 14.0687 16.5304C14.0687 17.268 14.0687 18.0057 14.0687 18.7558C14.2062 18.7351 14.2645 18.7434 14.2978 18.7164C14.4832 18.5755 14.6624 18.4243 14.8437 18.2792C19.7798 14.2939 25.427 12.2121 31.7853 12.0339C34.3113 11.9757 36.8338 12.2545 39.2853 12.8628C39.4937 12.9166 39.9103 12.8503 39.9812 12.7094C40.3124 12.1127 40.552 11.4662 40.8395 10.8093C39.8353 10.3721 38.927 9.99086 38.0312 9.58266C36.3437 8.80769 35.6978 7.1666 36.3999 5.45298C36.7062 4.71325 37.0249 3.98388 37.3562 3.25036C38.2937 1.11403 39.8874 0.482047 42.0353 1.40413C44.6839 2.54239 47.3298 3.68618 49.9728 4.8355C50.4416 5.04271 50.777 5.04271 51.2395 4.73397C54.6696 2.30433 58.8926 1.24594 63.0707 1.76881C76.0582 3.24414 82.7832 18.0347 75.2874 28.6438C74.8124 29.3172 74.2707 29.943 73.7332 30.6226C75.3374 32.4875 76.9582 34.3524 78.5249 36.2421C79.077 36.9093 79.5041 37.6781 79.9832 38.4012L79.9999 39.6507ZM2.34366 39.5388C2.34366 40.6515 2.34366 41.7622 2.34366 42.8749C2.34366 43.9876 2.6145 44.2466 3.72908 44.2507C5.70825 44.2507 7.68741 44.2507 9.66658 44.2507C11.4957 44.2507 11.4957 44.2508 11.7374 42.4625C11.7597 42.1623 11.8962 41.8817 12.1191 41.6781C12.3421 41.4744 12.6347 41.363 12.9374 41.3664C13.2402 41.3724 13.5283 41.4974 13.7388 41.7141C13.9492 41.9307 14.0648 42.2214 14.0603 42.5226C14.0749 43.0365 13.9978 43.5587 13.9874 44.0663C13.9482 44.4413 13.9672 44.8201 14.0437 45.1894C16.7707 53.9792 25.8062 59.6671 34.9666 58.3782C45.752 56.8615 53.0916 47.0688 51.4249 36.3934C50.0707 27.6326 42.7603 21.0081 33.6437 20.3016C25.0228 19.6302 16.7874 25.1689 14.0603 33.4614C13.8401 34.0083 13.8079 34.6122 13.9687 35.1791C14.1291 35.7034 14.0791 36.3084 14.0416 36.872C14.0424 37.0162 14.0135 37.159 13.9567 37.2916C13.9 37.4242 13.8165 37.5439 13.7116 37.6433C13.6066 37.7427 13.4823 37.8196 13.3463 37.8694C13.2103 37.9193 13.0655 37.9409 12.9207 37.933C12.2541 37.9516 11.8582 37.5579 11.7416 36.9197C11.7123 36.6375 11.704 36.3536 11.7166 36.0701C11.6957 35.2413 11.4145 34.9284 10.5895 34.9222C8.22144 34.9056 5.852 34.9056 3.48116 34.9222C2.62908 34.9222 2.34158 35.2537 2.33533 36.1323C2.34366 37.2657 2.34366 38.4012 2.34366 39.5388ZM8.09158 46.5466C8.76033 48.1007 9.33116 49.4475 9.92074 50.7903C10.2374 51.5113 10.5874 52.1744 11.5874 52.104C11.8853 52.0832 12.2291 52.3112 12.5103 52.4811C13.5916 53.1566 14.1478 54.1533 14.0562 55.4131C13.9916 56.2875 14.2791 56.8905 14.9166 57.4976C22.5041 64.7375 34.1041 66.5319 43.5291 61.8842C56.6145 55.4317 61.477 39.7129 54.3207 26.982C53.8145 26.0806 53.9041 25.4051 54.5812 25.0404C55.2582 24.6757 55.8937 24.9078 56.3291 25.8112C57.1235 27.4606 57.8721 29.1321 58.5749 30.8257C58.9062 31.6214 59.0832 32.4834 59.3687 33.4448C59.6957 33.0718 59.9499 32.79 60.202 32.502C61.9082 30.517 63.5957 28.5132 65.3207 26.5448C66.7499 24.9182 68.8395 24.9472 70.2645 26.5779C70.8895 27.2949 71.5145 28.0284 72.1395 28.7432C76.5145 24.4478 77.9957 15.8569 72.6957 9.43554C67.3166 2.92089 58.5124 2.74891 53.3207 6.23623C53.5166 6.33155 53.6937 6.42272 53.877 6.50353C55.8707 7.40282 56.4957 9.00661 55.6312 11.0124C55.3041 11.7708 54.9874 12.5354 54.6374 13.2917C53.8416 15.0012 52.1624 15.6497 50.4103 14.9349C49.6728 14.6323 48.952 14.3132 48.1478 13.9713C47.8041 14.7546 47.4853 15.4777 47.2187 16.0828C48.8853 17.5001 50.4978 18.8325 52.0582 20.227C52.9562 21.0289 53.052 21.7106 52.5041 22.2742C51.9562 22.8378 51.2541 22.7135 50.3853 21.8349C45.7861 17.207 39.5631 14.5313 33.0227 14.3694C26.4823 14.2075 20.1332 16.5721 15.3082 20.9667C14.4416 21.7499 13.9853 22.5249 14.0457 23.7412C14.1457 25.7118 12.8916 26.9654 10.902 27.1705C10.6749 27.1933 10.3374 27.2949 10.2603 27.4565C9.48949 29.1017 8.76449 30.7718 7.94574 32.6035H11.8166C15.1645 21.9281 26.7749 16.118 37.1124 18.4512C41.7625 19.4977 45.9369 22.0378 48.991 25.6791C52.0451 29.3204 53.809 33.8604 54.0103 38.5981C54.4478 48.0924 48.2416 56.8739 38.9603 59.8432C34.4709 61.3284 29.607 61.2494 25.1687 59.6194C18.6999 57.2863 14.3353 52.7815 11.9603 46.5466H8.09158ZM40.2957 3.25243C40.0978 3.4472 39.802 3.6254 39.6707 3.88649C39.277 4.66973 38.9562 5.49028 38.5916 6.29011C38.3166 6.89309 38.5291 7.27849 39.1041 7.53336C43.1555 9.28082 47.2082 11.0269 51.2624 12.7716C51.8374 13.0182 52.2666 12.8773 52.5124 12.2722C52.8207 11.5346 53.1582 10.8073 53.4687 10.0696C53.8145 9.25319 53.7124 8.99418 52.877 8.63364C48.9228 6.92486 44.9645 5.21953 41.002 3.51765C40.827 3.42855 40.627 3.37054 40.2957 3.25243ZM11.7291 20.2249C11.7291 19.0376 11.7291 17.8482 11.7291 16.6609C11.7291 15.8321 11.4228 15.5192 10.6062 15.513C8.2381 15.4964 5.87074 15.4964 3.50408 15.513C2.68324 15.513 2.35615 15.8466 2.35199 16.6402C2.35199 18.9899 2.35199 21.3397 2.35199 23.6853C2.35199 24.4126 2.68324 24.827 3.41241 24.8311C5.83046 24.8477 8.24922 24.8477 10.6687 24.8311C11.3937 24.8311 11.7541 24.4437 11.7437 23.7039C11.7187 22.5498 11.7291 21.3873 11.7291 20.2249ZM2.35407 58.9729C2.35407 60.1354 2.35407 61.2978 2.35407 62.4603C2.35407 63.3077 2.67491 63.6413 3.53116 63.6476C5.87283 63.6614 8.21379 63.6614 10.5541 63.6476C11.4166 63.6476 11.7312 63.316 11.7332 62.4685C11.7416 60.1464 11.7416 57.8229 11.7332 55.498C11.7332 54.6298 11.4416 54.3294 10.5624 54.3232C8.22213 54.3107 5.88116 54.3107 3.53949 54.3232C2.63741 54.3232 2.35824 54.6381 2.35407 55.5664C2.34366 56.7019 2.34366 57.8374 2.34366 58.9729H2.35407ZM42.1353 13.7455L45.0999 15.0467L45.9937 13.0244L43.0124 11.7501C42.702 12.4442 42.4353 13.0493 42.1353 13.7455Z" fill="#F7CA18"/>
<path d="M36.6312 39.5719C36.6165 40.2538 36.4278 40.9208 36.0827 41.5102C35.7375 42.0996 35.2474 42.592 34.6583 42.9411C34.2562 43.1919 34.102 43.4011 34.1728 43.9047C34.6437 47.278 35.0728 50.6555 35.5041 54.0351C35.6187 54.9199 35.2291 55.5001 34.5062 55.585C33.8395 55.6617 33.3166 55.2058 33.1999 54.3418C32.7458 51.0264 32.2958 47.6945 31.8937 44.3667C31.8229 43.7865 31.6124 43.5483 31.0604 43.3742C30.0469 43.0542 29.1947 42.361 28.6784 41.4364C28.1621 40.5119 28.0208 39.426 28.2833 38.4012C28.752 36.4265 30.7833 34.9864 32.7728 35.2185C33.8519 35.3202 34.8516 35.8269 35.5683 36.6357C36.2851 37.4444 36.6651 38.4944 36.6312 39.5719V39.5719ZM34.2791 39.4041C34.2764 38.909 34.0785 38.4347 33.7278 38.0832C33.3772 37.7318 32.9019 37.5312 32.4041 37.5247C31.9048 37.5363 31.4293 37.7391 31.0765 38.0907C30.7237 38.4423 30.5209 38.9157 30.5103 39.4124C30.5222 39.9083 30.7276 40.3801 31.0829 40.7281C31.4383 41.0762 31.9158 41.2731 32.4145 41.2772C32.6609 41.2759 32.9046 41.2262 33.1317 41.1311C33.3588 41.036 33.5649 40.8973 33.738 40.723C33.9112 40.5486 34.0481 40.342 34.141 40.115C34.2338 39.888 34.2807 39.645 34.2791 39.3999V39.4041Z" fill="#F7CA18"/>
<path d="M31.875 28.9006C31.8767 27.8948 32.1782 26.912 32.7415 26.0766C33.3049 25.2412 34.1046 24.5908 35.0397 24.2075C35.9748 23.8243 37.0031 23.7255 37.9946 23.9237C38.9861 24.1218 39.8963 24.608 40.6099 25.3207C41.3236 26.0334 41.8087 26.9406 42.0039 27.9276C42.1991 28.9146 42.0955 29.9369 41.7064 30.8654C41.3173 31.7938 40.6601 32.5866 39.8179 33.1435C38.9757 33.7004 37.9863 33.9963 36.975 33.9938C35.6203 33.9889 34.3228 33.45 33.3669 32.4954C32.4109 31.5407 31.8744 30.248 31.875 28.9006V28.9006ZM39.6812 29.1327C39.4042 29.2342 39.1875 29.3109 38.9729 29.3917C38.7583 29.4725 38.4937 29.5886 38.25 29.6735C37.4875 29.9325 36.8521 29.7067 36.6042 29.0975C36.3354 28.4406 36.6354 27.8418 37.4083 27.5061C37.8604 27.3093 38.3167 27.1207 38.8208 26.9052C37.6438 25.9707 36.3417 25.9334 35.2958 26.7332C34.8077 27.1049 34.4585 27.6281 34.3034 28.2198C34.1484 28.8114 34.1966 29.4376 34.4402 29.9989C34.6839 30.5603 35.1091 31.0246 35.6483 31.3181C36.1876 31.6117 36.8099 31.7176 37.4167 31.6192C38.6792 31.4265 39.5646 30.4961 39.6812 29.1327Z" fill="#F7CA18"/>
<path d="M5.84153 39.9179C6.86236 38.8819 7.76445 37.966 8.6832 37.0564C9.32486 36.4203 10.0186 36.3477 10.527 36.8347C11.0811 37.3631 11.0186 38.0178 10.3186 38.7182C9.18807 39.8537 8.04987 40.983 6.90404 42.1061C6.15404 42.8396 5.59154 42.8292 4.8332 42.0936C4.41654 41.6958 4.01445 41.3 3.62279 40.8877C3.0707 40.3075 3.04153 39.6651 3.52486 39.172C4.0082 38.6788 4.69362 38.7182 5.26028 39.2383C5.46705 39.4535 5.66111 39.6804 5.84153 39.9179V39.9179Z" fill="#F7CA18"/>
<path d="M63.1251 19.1971C61.1459 19.1971 59.1675 19.1971 57.1897 19.1971C56.2397 19.1971 55.748 18.8034 55.7313 18.0657C55.7147 17.328 56.2334 16.8784 57.148 16.8763C61.1758 16.868 65.2105 16.868 69.2522 16.8763C70.1605 16.8763 70.6772 17.3343 70.6647 18.0678C70.6522 18.8013 70.1626 19.195 69.2063 19.1971C67.1827 19.1998 65.1556 19.1998 63.1251 19.1971Z" fill="#F7CA18"/>
<path d="M63.1646 23.074C61.1605 23.074 59.1563 23.074 57.1521 23.074C56.2271 23.074 55.725 22.645 55.7375 21.9032C55.7479 21.2008 56.25 20.7553 57.1125 20.7532C61.175 20.7449 65.2361 20.7449 69.2959 20.7532C70.1563 20.7532 70.6625 21.2029 70.6729 21.9032C70.6729 22.645 70.1813 23.0698 69.2563 23.0719C67.225 23.0781 65.1938 23.074 63.1646 23.074Z" fill="#F7CA18"/>
<path d="M67.45 11.2589C68.125 11.2589 68.8042 11.2403 69.4792 11.2589C70.2188 11.2838 70.6771 11.7479 70.6729 12.4151C70.6772 12.565 70.6509 12.7142 70.5958 12.8537C70.5407 12.9933 70.4579 13.1203 70.3523 13.2273C70.2467 13.3343 70.1205 13.419 69.9812 13.4763C69.8419 13.5336 69.6924 13.5624 69.5417 13.561C68.1625 13.5955 66.7834 13.5955 65.4042 13.561C65.2481 13.5665 65.0925 13.5406 64.9467 13.4848C64.8009 13.429 64.668 13.3444 64.556 13.2362C64.4439 13.1279 64.355 12.9983 64.2946 12.855C64.2342 12.7117 64.2036 12.5577 64.2046 12.4024C64.2056 12.247 64.2382 12.0935 64.3003 11.951C64.3625 11.8084 64.4531 11.6799 64.5665 11.5731C64.6799 11.4663 64.8139 11.3834 64.9604 11.3294C65.1068 11.2754 65.2628 11.2514 65.4188 11.2589C66.0938 11.2382 66.7729 11.2589 67.45 11.2589Z" fill="#F7CA18"/>
<path d="M5.8231 20.5398C6.86477 19.5037 7.76476 18.5692 8.68143 17.6596C9.32726 17.0193 10.0127 16.9468 10.5252 17.4337C11.0814 17.9621 11.0189 18.6169 10.3169 19.3152C9.1863 20.4507 8.0481 21.5806 6.90227 22.7051C6.14602 23.4448 5.59602 23.4345 4.83352 22.6947C4.40644 22.2803 3.97519 21.8659 3.57102 21.4328C3.06269 20.8858 3.05643 20.2497 3.5231 19.7752C3.98976 19.3006 4.6606 19.311 5.18976 19.7897C5.41837 20.0245 5.63002 20.2752 5.8231 20.5398V20.5398Z" fill="#F7CA18"/>
<path d="M5.81055 59.3749C6.90222 58.2684 7.84597 57.28 8.82722 56.3247C9.40013 55.7653 10.1751 55.7777 10.6064 56.3247C11.0376 56.8718 11.0231 57.4022 10.5606 57.8684C9.29388 59.1614 8.00916 60.4371 6.70638 61.6956C6.19388 62.1908 5.55847 62.166 5.03972 61.6956C4.52097 61.2252 4.0668 60.7652 3.6043 60.2783C3.06263 59.7064 3.05639 59.035 3.55639 58.5626C4.0168 58.1254 4.69805 58.1357 5.23347 58.6289C5.4462 58.8613 5.63922 59.1108 5.81055 59.3749V59.3749Z" fill="#F7CA18"/>
</g>
<defs>
<clipPath id="clip0_86_561">
<rect width="80" height="78.5321" fill="white" transform="translate(0 1)"/>
</clipPath>
</defs>
</svg>
