<svg width="80" height="80" viewBox="0 0 80 80" fill="none" xmlns="http://www.w3.org/2000/svg">
<g clip-path="url(#clip0_86_560)">
<path d="M18.5835 80.0011C18.3651 79.928 18.1509 79.8487 17.9325 79.7798C16.8286 79.429 16.1185 78.577 16.0348 77.3994C15.996 76.6977 15.996 75.9943 16.0348 75.2925C16.0674 74.3821 16.5633 73.7265 17.2591 73.2337C17.4549 73.112 17.6134 72.9365 17.7166 72.7272C17.8197 72.5179 17.8634 72.2832 17.8427 72.0498C17.7938 70.9807 18.0917 70.0494 18.8936 69.3165C19.261 68.9803 19.2099 68.5126 19.2099 68.0636C19.2099 64.965 19.163 61.8642 19.2242 58.7655C19.3487 52.328 22.3035 47.68 27.911 44.8193C30.9025 43.2951 33.9633 41.8689 37.0018 40.3864C37.1834 40.2987 37.4425 40.2465 37.4527 40.0147C37.467 39.6806 37.1344 39.6493 36.9181 39.5428C33.5674 37.9016 30.1372 36.4107 26.8846 34.5858C22.5748 32.1532 20.1017 28.3404 19.3507 23.3603C19.0957 21.6774 19.2283 19.9818 19.212 18.2905C19.1895 16.1294 19.1977 13.9682 19.212 11.805C19.2295 11.5464 19.1903 11.2871 19.097 11.0461C19.0038 10.8051 18.859 10.5885 18.6733 10.4123C18.3798 10.1202 18.1541 9.76444 18.0129 9.37126C17.8716 8.97808 17.8183 8.55748 17.857 8.14044C17.89 7.84397 17.8393 7.54404 17.711 7.27613C17.5826 7.00821 17.3819 6.78354 17.1326 6.62869C16.7592 6.37402 16.4582 6.02273 16.2604 5.61051C16.0625 5.19829 15.9748 4.73983 16.0062 4.2817C16.0225 3.70957 15.9858 3.13327 16.0348 2.56323C16.1429 1.31039 16.9102 0.44802 18.0999 0.161956C18.6219 0.0459164 19.1553 -0.00803561 19.6895 0.00117421H60.8439C61.3786 -0.00877053 61.9127 0.0444815 62.4355 0.159869C63.6232 0.443845 64.4088 1.31039 64.5067 2.55279C64.5496 3.25439 64.5496 3.95804 64.5067 4.65964C64.4935 5.06626 64.3827 5.46331 64.1841 5.81579C63.9855 6.16827 63.7053 6.46536 63.3681 6.68089C63.1393 6.82172 62.9549 7.02692 62.837 7.27202C62.719 7.51711 62.6725 7.79176 62.7029 8.06318C62.741 8.53354 62.6717 9.00653 62.5002 9.4447C62.3288 9.88287 62.06 10.2742 61.7152 10.5876C61.3234 10.9447 61.3357 11.4229 61.3357 11.8843C61.3357 15.0624 61.3357 18.2404 61.3357 21.4163C61.326 22.511 61.207 23.6018 60.9806 24.6716C60.9376 24.9017 60.8769 25.1279 60.799 25.3482C60.5766 25.9537 60.0685 26.2711 59.5746 26.1437C59.0808 26.0163 58.7584 25.5048 58.8013 24.8658C58.7993 24.8401 58.7993 24.8143 58.8013 24.7886C59.4481 22.1994 59.1726 19.5559 59.2094 16.9333C59.2359 15.4215 59.2196 13.9118 59.2094 12.4001C59.2094 11.3331 59.0971 11.2224 58.0809 11.2141C56.9872 11.2141 55.8934 11.2141 54.7976 11.2141H22.8197C21.3281 11.2141 21.3199 11.2245 21.3179 12.7279C21.3179 15.5656 21.2607 18.4054 21.3301 21.243C21.4607 26.5613 23.7482 30.5892 28.4456 32.9988C32.1309 34.8906 35.8794 36.6508 39.5933 38.48C39.8068 38.5941 40.0444 38.6528 40.2853 38.651C40.5262 38.6492 40.7629 38.5869 40.9748 38.4696C44.7349 36.6167 48.4977 34.7702 52.2632 32.9299C53.7635 32.2018 55.0918 31.1496 56.1567 29.8458C56.4689 29.4637 56.8219 29.1944 57.3382 29.2842C58.1993 29.4366 58.4605 30.4138 57.8034 31.1634C56.6403 32.481 55.3894 33.7046 53.8284 34.5398C51.4858 35.7927 49.0636 36.8952 46.6863 38.077C45.611 38.6115 44.5274 39.121 43.45 39.6597C43.2949 39.7349 43.0745 39.7809 43.099 40.0147C43.1235 40.2486 43.3316 40.2695 43.4888 40.3446C46.5496 41.8376 49.6105 43.2825 52.6489 44.8256C58.1075 47.609 61.0928 52.1192 61.3214 58.3876C61.4357 61.5614 61.352 64.7415 61.3357 67.9196C61.3357 68.6024 61.4397 69.1724 61.9662 69.6715C62.5518 70.229 62.7396 71.0099 62.7029 71.8201C62.6743 72.4716 62.8559 72.9518 63.413 73.3381C63.7877 73.5919 64.09 73.9428 64.289 74.3551C64.4879 74.7674 64.5764 75.2263 64.5455 75.6851C64.5333 76.1549 64.5455 76.6226 64.5455 77.0924C64.4965 78.5353 63.8292 79.406 62.4743 79.8236C62.3049 79.8758 62.1397 79.9447 61.9723 80.0053L18.5835 80.0011ZM40.232 68.7652H57.9463C59.14 68.7652 59.2237 68.6838 59.2257 67.4978C59.2257 64.4513 59.3277 61.3986 59.2012 58.3583C58.9972 53.347 56.7995 49.4548 52.3796 47.135C48.6229 45.1618 44.7702 43.3765 40.9646 41.4972C40.7519 41.3815 40.5147 41.321 40.2738 41.321C40.0329 41.321 39.7958 41.3815 39.5831 41.4972C35.8917 43.3139 32.1717 45.0699 28.5048 46.9408C23.7421 49.3692 21.4423 53.4305 21.3281 58.8156C21.2709 61.5301 21.3179 64.2321 21.3179 66.9403C21.3179 67.1992 21.3179 67.4602 21.3179 67.7212C21.3403 68.6128 21.4668 68.736 22.3626 68.7548C22.6177 68.7548 22.8728 68.7548 23.1279 68.7548L40.232 68.7652ZM40.2891 2.29596C33.3144 2.29596 26.3397 2.29596 19.365 2.29596C18.2631 2.29596 18.1264 2.44421 18.1162 3.54879C18.1162 3.68034 18.1162 3.8098 18.1162 3.93926C18.1468 4.80372 18.3202 4.98329 19.1732 4.99373C20.3976 5.00835 21.6219 4.99373 22.8463 4.99373C23.1515 4.96934 23.4584 5.00549 23.7502 5.10022C24.2236 5.29024 24.5073 5.64521 24.4705 6.17558C24.4649 6.41437 24.3722 6.64237 24.2106 6.81472C24.0489 6.98706 23.8301 7.09127 23.5972 7.10685C23.319 7.14134 23.0387 7.15599 22.7585 7.1507C22.0708 7.1507 21.3852 7.1507 20.6975 7.16532C20.1935 7.16532 19.9711 7.44512 19.9629 7.9546C19.9629 8.66454 20.1955 8.9694 20.8791 9.02787C21.1566 9.05084 21.4382 9.04248 21.7178 9.04248H58.8258C59.1053 9.04248 59.3869 9.04249 59.6644 9.02787C60.3521 8.9694 60.6031 8.66872 60.5827 7.95878C60.5643 7.33236 60.3786 7.18202 59.6277 7.15696C59.3481 7.14652 59.0665 7.15696 58.787 7.15696H30.2189C29.8638 7.15696 29.5047 7.15696 29.1516 7.134C28.4946 7.07553 28.1456 6.75188 28.1069 6.21316C28.0889 5.92278 28.1836 5.63688 28.3704 5.41755C28.5573 5.19822 28.8211 5.06318 29.1047 5.04176C29.4843 5.00175 29.866 4.9878 30.2474 5H60.801C62.3886 5 62.5539 4.81416 62.4213 3.19382L62.409 3.03722C62.4115 2.93868 62.3939 2.8407 62.3572 2.74954C62.3206 2.65839 62.2657 2.57607 62.1962 2.50786C62.1266 2.43965 62.0439 2.38706 61.9534 2.35345C61.8628 2.31983 61.7664 2.30594 61.6703 2.31266C61.3642 2.30013 61.0581 2.29596 60.7541 2.29596H40.2891ZM40.2728 77.675H60.6623C60.9684 77.675 61.2744 77.675 61.5785 77.675C62.1499 77.675 62.3845 77.366 62.4274 76.8001C62.5498 75.1756 62.3886 74.9793 60.8153 74.9793H19.7282C18.155 74.9793 17.9835 75.1756 18.1243 76.8001C18.1243 76.8273 18.1243 76.8523 18.1243 76.8794C18.1488 77.3722 18.3896 77.652 18.8855 77.6687C19.1916 77.6687 19.4977 77.6834 19.8017 77.6834L40.2728 77.675ZM40.1932 72.8098H59.0625C59.3685 72.8098 59.6746 72.8098 59.9787 72.7869C60.3725 72.7576 60.5521 72.5196 60.5908 72.1228C60.6643 71.3586 60.3868 70.9911 59.6399 70.9347C59.3869 70.9159 59.1318 70.9222 58.8768 70.9222H21.6831C21.4036 70.9222 21.122 70.9222 20.8444 70.9389C20.1772 71.0036 19.9262 71.3294 19.9629 72.0393C19.9956 72.624 20.167 72.7764 20.8771 72.8056C21.1301 72.8056 21.3852 72.8056 21.6403 72.8056L40.1932 72.8098Z" fill="#F7CA18"/>
<path d="M40.2898 20.3079H52.4333C52.7374 20.3079 53.0455 20.3079 53.3495 20.3267C54.5739 20.4332 55.3126 21.3457 55.1248 22.5672C54.68 25.4717 53.2883 27.7874 50.707 29.1342C47.4706 30.8318 44.1486 32.3602 40.8653 33.966C40.6713 34.0645 40.457 34.1141 40.2404 34.1105C40.0238 34.1068 39.8113 34.0501 39.6205 33.9451C36.4046 32.3728 33.1621 30.8589 29.9767 29.226C27.4423 27.9294 25.9895 25.7285 25.4569 22.9034C25.1508 21.2726 25.916 20.3246 27.5362 20.3142C30.946 20.2954 34.3579 20.3142 37.7697 20.3142L40.2898 20.3079ZM40.2653 22.4691C36.3964 22.4691 32.5275 22.4691 28.6585 22.4691C27.6138 22.4691 27.4872 22.6654 27.8423 23.6843C28.1166 24.5009 28.5489 25.2525 29.1134 25.8943C29.6778 26.5361 30.3629 27.055 31.1276 27.4199C33.9681 28.8272 36.8412 30.1845 39.6777 31.5772C39.8702 31.6757 40.0835 31.7244 40.2987 31.7189C40.514 31.7134 40.7246 31.654 40.9122 31.5459C42.4039 30.8151 43.9078 30.1114 45.4015 29.3868C46.7809 28.7187 48.1705 28.0672 49.5255 27.3489C50.2929 26.9601 50.9747 26.4152 51.5291 25.7473C52.0835 25.0795 52.4988 24.3029 52.7496 23.4651C52.9863 22.705 52.8516 22.5129 52.0966 22.4733C51.8415 22.4586 51.5865 22.4733 51.3314 22.4733L40.2653 22.4691Z" fill="#F7CA18"/>
<path d="M45.0896 65.9133C42.596 65.9133 40.1017 65.9133 37.6067 65.9133C37.2768 65.923 36.9467 65.9 36.6211 65.8444C36.367 65.7987 36.1383 65.6585 35.979 65.4508C35.8197 65.243 35.741 64.9824 35.758 64.7189C35.7947 64.2199 36.1539 63.8587 36.7232 63.7898C37.0528 63.7587 37.384 63.7476 37.7149 63.7564H51.5337C51.8126 63.7564 52.0921 63.7522 52.3724 63.7438C52.8234 63.7313 53.1009 63.5141 53.1029 63.0318C53.1029 61.2883 53.2457 59.5343 53.0396 57.8012C52.7519 55.377 51.4847 53.5896 49.3319 52.5205C46.5384 51.1361 43.7203 49.806 40.9207 48.4341C40.7327 48.3267 40.5219 48.268 40.3067 48.2632C40.0914 48.2585 39.8783 48.3079 39.6861 48.407C36.8619 49.7872 34.0153 51.1215 31.2054 52.5309C28.7384 53.7691 27.5181 55.8718 27.4385 58.6677C27.3977 60.048 27.4202 61.4282 27.4385 62.8084C27.4385 63.5768 27.5997 63.7271 28.3405 63.748C29.0812 63.7689 29.8668 63.748 30.63 63.7605C30.9102 63.7369 31.1921 63.7754 31.4564 63.8733C31.6384 63.9382 31.7977 64.0567 31.9142 64.2138C32.0307 64.3709 32.0993 64.5597 32.1115 64.7565C32.1228 64.9535 32.0779 65.1495 31.9822 65.3208C31.8866 65.4921 31.7443 65.6312 31.5728 65.7212C31.4661 65.7936 31.3446 65.84 31.2177 65.8569C29.5679 65.9718 27.9123 65.9676 26.2632 65.8444C25.6285 65.7901 25.3388 65.2932 25.3306 64.4412C25.3122 62.5411 25.3306 60.6389 25.3143 58.7387C25.3057 57.7211 25.4715 56.7098 25.804 55.7507C26.5774 53.4831 27.9752 51.75 30.0892 50.6934C33.244 49.119 36.4273 47.6031 39.5963 46.0538C39.796 45.943 40.0187 45.8825 40.2458 45.8774C40.473 45.8723 40.698 45.9228 40.9023 46.0245C44.1366 47.6094 47.4199 49.1023 50.6052 50.7853C53.5906 52.3618 55.0619 55.0408 55.2067 58.4485C55.2782 60.1189 55.2271 61.7894 55.219 63.4598C55.2088 65.2096 54.5313 65.905 52.7927 65.9154C50.2298 65.9217 47.6607 65.9133 45.0896 65.9133Z" fill="#F7CA18"/>
<path d="M33.0703 58.3191C33.2038 58.3066 33.3384 58.3233 33.4652 58.3679C33.592 58.4126 33.7081 58.4842 33.8058 58.5782C33.9036 58.6721 33.9808 58.7861 34.0323 58.9128C34.0839 59.0394 34.1086 59.1758 34.1049 59.313C34.1237 59.4613 34.1111 59.6119 34.0681 59.7548C34.025 59.8977 33.9525 60.0294 33.8554 60.1411C33.7583 60.2528 33.6388 60.3419 33.5052 60.4023C33.3715 60.4627 33.2268 60.493 33.0807 60.4912C32.9346 60.4894 32.7906 60.4555 32.6584 60.3918C32.5262 60.3281 32.4089 60.2361 32.3145 60.122C32.2201 60.0079 32.1507 59.8744 32.111 59.7305C32.0714 59.5866 32.0624 59.4357 32.0847 59.2879C32.0846 59.1573 32.1103 59.028 32.1603 58.9078C32.2103 58.7876 32.2835 58.6789 32.3756 58.5884C32.4677 58.4979 32.5767 58.4274 32.696 58.3811C32.8154 58.3348 32.9427 58.3137 33.0703 58.3191Z" fill="#F7CA18"/>
<path d="M36.0862 55.0387C36.0706 55.2987 35.9622 55.5438 35.7816 55.7274C35.6011 55.911 35.3609 56.0204 35.1067 56.0347C34.9053 56.0401 34.707 55.9834 34.5375 55.8721C34.3679 55.7608 34.2349 55.5999 34.1557 55.4104C34.0765 55.2208 34.0548 55.0113 34.0932 54.809C34.1317 54.6066 34.2287 54.4208 34.3716 54.2755C34.5145 54.1302 34.6967 54.0321 34.8947 53.994C35.0927 53.9559 35.2973 53.9795 35.482 54.0617C35.6667 54.1439 35.8231 54.281 35.9308 54.4552C36.0385 54.6294 36.0927 54.8327 36.0862 55.0387V55.0387Z" fill="#F7CA18"/>
<path d="M48.4768 58.8849C48.4756 59.0872 48.4158 59.2845 48.305 59.4521C48.1943 59.6196 48.0374 59.7497 47.8544 59.8261C47.6713 59.9025 47.4703 59.9216 47.2766 59.8811C47.083 59.8405 46.9054 59.7422 46.7663 59.5984C46.6273 59.4547 46.533 59.272 46.4953 59.0734C46.4577 58.8748 46.4784 58.6693 46.5549 58.4828C46.6314 58.2963 46.7602 58.1371 46.925 58.0255C47.0899 57.9138 47.2833 57.8547 47.481 57.8555C47.6141 57.8501 47.7467 57.8731 47.8706 57.9231C47.9945 57.9731 48.1069 58.0489 48.2005 58.1457C48.2942 58.2426 48.3672 58.3583 48.4147 58.4856C48.4623 58.6128 48.4834 58.7488 48.4768 58.8849V58.8849Z" fill="#F7CA18"/>
<path d="M36.0966 25.7871C36.0933 25.9938 36.0301 26.1948 35.9151 26.3648C35.8 26.5347 35.6382 26.6658 35.4502 26.7416C35.2622 26.8173 35.0565 26.8342 34.8591 26.7902C34.6617 26.7461 34.4815 26.6431 34.3414 26.4941C34.2013 26.3452 34.1075 26.157 34.072 25.9535C34.0365 25.75 34.0609 25.5403 34.142 25.3509C34.2231 25.1616 34.3573 25.0011 34.5277 24.8899C34.698 24.7787 34.8968 24.7218 35.0987 24.7263C35.3657 24.7401 35.6175 24.8575 35.8029 25.0545C35.9883 25.2516 36.0933 25.5136 36.0966 25.7871V25.7871Z" fill="#F7CA18"/>
<path d="M38.9962 28.2301C38.8696 28.2394 38.7425 28.2216 38.6229 28.1778C38.5034 28.1341 38.394 28.0653 38.3019 27.9759C38.2097 27.8865 38.1368 27.7785 38.0877 27.6587C38.0386 27.5389 38.0145 27.4099 38.0168 27.28C38.0073 27.0066 38.1007 26.74 38.2776 26.5349C38.4544 26.3298 38.7014 26.2019 38.9677 26.1775C39.2342 26.1916 39.487 26.303 39.6802 26.4915C39.8734 26.68 39.9941 26.933 40.0206 27.2048C40.0158 27.4792 39.9056 27.7405 39.7139 27.9324C39.5222 28.1243 39.2644 28.2312 38.9962 28.2301Z" fill="#F7CA18"/>
</g>
<defs>
<clipPath id="clip0_86_560">
<rect width="80" height="80" fill="white"/>
</clipPath>
</defs>
</svg>
