<svg width="65" height="66" viewBox="0 0 65 66" fill="none" xmlns="http://www.w3.org/2000/svg">
<path d="M31.7383 0C31.7383 0 31.9076 0 31.9922 0C34.362 3.72745e-07 32.8385 1.63033e-05 35.1525 0.120236C36.5877 0.194805 37.9996 0.452161 39.4079 0.748522C52.4367 3.48181 62.7368 14.52 64.6259 27.7614C64.7308 28.4963 65 30.918 65 31.8376C65 33.5734 65 32.388 65 34.1238C65 34.3761 64.8544 35.4159 64.8426 35.5463C64.3551 40.4744 62.9112 45.101 60.2824 49.3042C54.9182 57.8835 47.2418 63.0351 37.2294 64.6574C36.4542 64.7827 34.9544 65.0046 33.9388 65.0046C32.2461 65.0046 32.2461 65.0046 30.5534 65.0046C30.2148 65.0046 29.575 64.886 29.443 64.8725C27.9094 64.7082 26.3859 64.4762 24.8879 64.1087C11.9353 60.9351 2.32409 50.4067 0.34362 37.2466C0.238672 36.554 0 34.8044 0 33.9864C0 32.2082 0 32.8537 0 31.0755C0 30.2288 0.118489 29.5886 0.132031 29.4566C0.282682 28.0272 0.489192 26.6047 0.820963 25.2059C3.94232 12.0543 14.3999 2.40814 27.7519 0.343778C28.4426 0.237088 30.1302 0 31.7383 0ZM2.16328 32.4964C2.1599 49.2247 15.771 62.8488 32.478 62.842C49.1918 62.8352 62.8029 49.2213 62.813 32.4998C62.8232 15.7765 49.2155 2.16258 32.4898 2.16258C15.7659 2.16258 2.16667 15.7664 2.16328 32.4964Z" fill="currentColor"/>
<path d="M4.32178 32.4236C4.43519 26.034 6.36657 20.3371 10.2073 15.3007C11.0841 14.1525 12.5077 14.0543 13.5707 15.0941C14.9164 16.4099 16.2367 17.7512 17.5672 19.0823C28.2736 29.7936 38.9766 40.5066 49.6863 51.2128C50.3363 51.8631 50.7561 52.5659 50.531 53.5262C50.4091 54.0444 50.1332 54.4491 49.7151 54.7692C45.2193 58.2069 40.1666 60.2374 34.5095 60.5711C25.0185 61.1299 17.1373 57.7412 10.9657 50.5321C6.51045 45.3263 4.37933 39.2077 4.32178 32.4236ZM21.0153 25.5565C20.6886 26.0899 20.5752 26.5827 20.5752 27.0925C20.5718 31.9342 20.4601 36.7792 20.6158 41.6158C20.7597 46.0663 22.9619 49.4042 26.8212 51.6396C27.2004 51.8581 27.4543 51.8564 27.7929 51.5312C30.1948 49.2315 31.4017 46.4338 31.3983 43.1095C31.3966 40.9113 31.3882 38.7115 31.4068 36.5133C31.4102 36.1188 31.2866 35.8478 31.0107 35.5735C28.2651 32.8486 25.5331 30.1103 22.7994 27.3736C22.2205 26.7927 21.6483 26.2017 21.0153 25.5565ZM11.399 47.543C11.8713 47.0215 12.2369 46.4287 12.6025 45.8394C13.9668 43.6345 15.7628 41.8868 18.0683 40.6844C18.334 40.5455 18.417 40.3847 18.4136 40.0951C18.3983 38.8046 18.3916 37.5125 18.417 36.2238C18.4254 35.819 18.2798 35.7835 17.9396 35.8427C16.9341 36.0138 15.9676 36.2949 15.0519 36.7454C13.4726 37.5244 11.7951 37.8986 10.0397 37.9274C9.19678 37.941 8.67711 37.5244 8.66019 36.8571C8.64326 36.1899 9.14261 35.7784 9.99743 35.7597C11.4311 35.7293 12.8005 35.4363 14.0938 34.8012C15.3345 34.1899 16.6447 33.7953 18.0242 33.6632C18.3171 33.6361 18.417 33.5633 18.4136 33.2585C18.3983 31.9037 18.4034 30.5506 18.4102 29.1958C18.4119 28.9655 18.3729 28.8097 18.141 28.6911C15.5089 27.36 13.6249 25.2737 12.1269 22.7724C11.4989 21.7224 10.7134 20.7758 9.8417 19.8968C4.99209 28.1932 5.37295 39.5328 11.399 47.543ZM18.5185 42.9334C17.1728 43.7276 16.1115 44.6827 15.2347 45.836C14.4289 46.8944 13.8111 48.0867 12.9478 49.1044C12.7227 49.3703 12.8903 49.5041 13.046 49.6819C14.109 50.8945 15.2651 52.0088 16.5465 52.9842C22.2154 57.3009 28.5834 59.1282 35.6792 58.2882C40.2427 57.748 44.3475 56.0478 48.0444 53.3263C48.4016 53.0638 48.3762 52.925 48.08 52.6371C46.9577 51.5465 45.8456 50.4457 44.7639 49.3144C44.4034 48.9368 44.2511 48.8961 43.9142 49.3669C37.8492 57.8429 24.9931 56.9927 20.0741 47.8005C19.2701 46.2983 18.7792 44.6912 18.5185 42.9334ZM33.5836 38.1764C33.5836 40.0612 33.5565 41.7733 33.5887 43.4838C33.6496 46.6895 34.8938 49.372 37.228 51.5651C37.5242 51.8428 37.7392 51.8699 38.093 51.6752C39.8449 50.7065 41.277 49.4008 42.406 47.7446C42.665 47.3652 42.6227 47.1722 42.3078 46.8606C39.5589 44.1391 36.8302 41.3974 34.0931 38.6624C33.9662 38.5337 33.8324 38.4134 33.5836 38.1764ZM18.4643 26.366C18.6116 25.6428 18.7623 24.9824 19.1397 24.4184C19.3784 24.0611 19.2955 23.8562 19.0077 23.5734C16.9443 21.5378 14.9029 19.4819 12.8513 17.4328C11.8763 16.459 11.8814 16.4641 11.1688 17.675C11.0554 17.868 11.0232 17.9815 11.1976 18.1576C12.6634 19.6377 13.8026 21.3651 14.9452 23.0975C15.8373 24.4506 17.0137 25.5294 18.4643 26.366ZM35.3169 52.715C34.1219 51.5007 33.2248 50.1747 32.48 48.6167C31.7623 50.2069 30.816 51.4973 29.6684 52.7353C31.6048 53.1824 33.4093 53.2044 35.3169 52.715Z" fill="currentColor"/>
<path d="M60.6531 32.5844C60.5583 38.9113 58.6354 44.6133 54.7946 49.6531C53.8687 50.8673 52.4451 50.9029 51.2958 49.7547C42.5157 40.9723 33.7373 32.1898 24.9572 23.4074C21.7411 20.1898 18.5249 16.9738 15.3105 13.7562C14.0037 12.4488 14.0951 11.1398 15.5661 10.0136C26.0558 1.99322 41.0244 2.51651 50.9285 11.2837C56.1539 15.9086 59.3192 21.6868 60.3721 28.5979C60.5752 29.9155 60.6565 31.2483 60.6531 32.5844ZM36.119 15.2854C36.1647 15.3413 36.2154 15.3633 36.2628 15.2922C36.2662 15.2871 36.2137 15.2431 36.1884 15.2177C36.163 15.1398 36.1528 15.0534 36.1122 14.984C34.4973 12.3354 30.4822 12.3523 28.8403 15.0145C28.798 15.0839 28.6406 15.1161 28.7641 15.2532C28.8589 15.3582 28.9368 15.2888 29.035 15.282C31.3963 15.0991 33.7576 15.0974 36.119 15.2854ZM46.524 26.3727C48.2421 25.3448 49.5286 24.0052 50.5239 22.3727C51.3635 20.9976 52.2962 19.6851 53.4371 18.5488C53.9195 18.0678 53.8975 17.7765 53.5048 17.2685C47.2434 9.18209 39.049 5.58511 28.8776 6.77225C24.5002 7.28199 20.5511 9.01104 17.0032 11.641C16.6528 11.9018 16.5834 12.0339 16.9355 12.3692C18.007 13.3904 19.0395 14.4522 20.0856 15.5005C21.2756 16.6944 22.4639 17.89 23.6809 19.1127C24.094 18.4692 24.4494 17.846 24.9979 17.4192C25.7443 16.8384 26.1337 16.1254 26.3893 15.2092C26.8581 13.5242 28.0346 12.3472 29.5529 11.514C29.3278 11.1584 29.0299 10.9247 28.7235 10.6961C28.1497 10.271 28.0075 9.6715 28.346 9.15838C28.6947 8.62831 29.3447 8.53178 29.9609 8.92975C30.4264 9.2295 30.8851 9.57159 31.1593 10.0458C31.5233 10.6757 31.9532 10.9619 32.7132 10.8586C33.0704 10.8095 33.3158 10.8028 33.5156 10.4522C33.888 9.80021 34.4347 9.29555 35.0729 8.89927C35.6687 8.53009 36.2933 8.63001 36.6386 9.13805C36.989 9.65118 36.8536 10.2676 36.2899 10.6791C35.9683 10.9145 35.6484 11.1465 35.4351 11.5225C37.336 12.5674 38.5108 14.1305 38.8611 16.2812C38.8916 16.4726 39.0372 16.5589 39.1726 16.6605C40.7756 17.8765 41.7523 19.4802 42.1213 21.4531C42.1602 21.6648 42.2178 21.7783 42.4463 21.8426C44.7247 22.4743 46.0315 24.0069 46.524 26.3727ZM55.1535 19.8782C54.1734 20.8892 53.3338 21.9476 52.6347 23.106C51.2078 25.4718 49.3576 27.3939 46.8863 28.6742C46.6459 28.7978 46.5613 28.94 46.5647 29.2093C46.5782 30.5421 46.585 31.8748 46.5613 33.2059C46.5545 33.5785 46.6899 33.6378 47.0234 33.6733C48.1626 33.7902 49.2831 34.0408 50.3106 34.5489C51.8696 35.3194 53.4878 35.775 55.2364 35.775C55.8593 35.775 56.2927 36.2305 56.3163 36.7995C56.34 37.3533 55.9203 37.8359 55.3143 37.9138C55.0654 37.946 54.8081 37.9325 54.5542 37.9189C52.9343 37.8359 51.3855 37.4617 49.9247 36.7453C49.0276 36.305 48.083 36.0273 47.0996 35.8529C46.7018 35.7834 46.5511 35.8207 46.5579 36.2864C46.5816 38.0629 46.5697 39.8393 46.546 41.6158C46.5427 41.9105 46.673 42.0815 46.8558 42.2627C48.7872 44.1882 50.7203 46.112 52.6381 48.0511C52.9174 48.3339 53.0528 48.3931 53.3203 48.0206C58.1834 41.2432 59.6239 33.8156 57.5622 25.7275C57.0425 23.6834 56.2216 21.7495 55.1535 19.8782ZM44.4065 39.7818C44.4065 35.4735 44.4183 31.3092 44.4014 27.1432C44.3929 25.2448 43.01 23.868 41.1158 23.8528C38.7697 23.8342 36.4236 23.8596 34.0776 23.8375C33.6408 23.8325 33.5613 23.9798 33.568 24.3744C33.5901 25.7275 33.5901 27.0806 33.568 28.4337C33.5613 28.8249 33.6798 29.0975 33.9574 29.3736C37.2548 32.6522 40.5403 35.9443 43.8292 39.2314C43.9884 39.3906 44.1542 39.5413 44.4065 39.7818ZM33.0704 21.68C35.1846 21.68 37.3005 21.6716 39.4147 21.6868C39.8124 21.6902 39.98 21.6496 39.8463 21.1822C39.2809 19.2075 37.3479 17.5361 35.2929 17.3972C33.436 17.2702 31.5673 17.2414 29.7154 17.404C27.7858 17.5716 26.391 18.6402 25.4989 20.3557C25.4244 20.4997 25.2687 20.6758 25.4227 20.8164C25.8374 21.1991 26.1184 21.719 26.8531 21.6987C28.9249 21.6428 30.9985 21.68 33.0704 21.68ZM28.6016 23.8477C29.5428 24.7876 30.4535 25.6953 31.398 26.6369C31.398 25.7884 31.3946 24.9366 31.3997 24.0865C31.4014 23.8274 31.2253 23.8477 31.0578 23.8477C30.2402 23.8477 29.4226 23.8477 28.6016 23.8477Z" fill="currentColor"/>
</svg>
