<svg width="80" height="80" viewBox="0 0 80 80" fill="none" xmlns="http://www.w3.org/2000/svg">
<g clip-path="url(#clip0_86_555)">
<path d="M80.0001 67.1546C79.6576 67.4947 79.3679 67.9272 78.9647 68.1611C77.1405 69.2168 75.2889 70.2313 73.4295 71.2241C72.9813 71.4639 72.8071 71.7293 72.8149 72.2522C72.8482 74.344 72.8364 76.4377 72.8267 78.5295C72.8267 79.8821 71.9752 80.3775 70.8185 79.6933C66.6234 77.2176 62.4335 74.7333 58.2488 72.2405C57.4502 71.7667 57.2976 71.2437 57.689 70.3984C58.1705 69.3604 58.6677 68.3322 59.202 67.2175C58.1333 66.7653 57.141 66.3131 56.1193 65.9475C55.9236 65.8767 55.5321 66.0812 55.3501 66.2699C51.7658 69.863 47.5697 72.782 42.9605 74.8886C39.3082 76.5419 40.6685 76.536 37.0514 74.9043C32.4358 72.8113 28.2417 69.8853 24.6775 66.2719C24.3056 65.8964 23.9964 65.8236 23.5208 66.0477C22.6537 66.4547 21.7592 66.8027 20.7806 67.2135C21.2875 68.285 21.7592 69.2896 22.2387 70.2981C22.6967 71.2811 22.5538 71.7568 21.6261 72.3073C17.5093 74.7529 13.3886 77.1966 9.26391 79.6383C7.97014 80.405 7.16375 79.9292 7.16179 78.4056C7.16179 76.365 7.1383 74.3244 7.17353 72.2837C7.17353 71.7313 6.99541 71.456 6.51979 71.2024C4.67995 70.2195 2.86359 69.205 1.0394 68.1946C-0.303291 67.4495 -0.350257 66.5097 0.914147 65.6565C3.41947 63.9678 5.9287 62.2869 8.5221 60.5451L7.54346 58.6735C6.95628 57.5293 6.94453 57.1008 7.97015 56.3045C9.86675 54.8497 11.8495 53.507 13.8009 52.125C14.0318 51.9618 14.2902 51.8399 14.5995 51.663C14.1884 50.6308 13.7657 49.6282 13.3742 48.6099C11.1507 42.9971 9.78847 37.1622 8.97619 31.1877C8.86659 30.3817 9.27761 29.7683 9.97244 29.6739C10.6125 29.5874 11.1194 30.0298 11.276 30.8417C11.8377 33.765 12.284 36.714 12.971 39.6078C14.6895 46.8484 17.5745 53.5837 22.0136 59.5877C26.4949 65.7138 32.5549 70.4962 39.5411 73.42C39.8601 73.5557 40.3514 73.4751 40.6939 73.3276C50.3864 69.1579 57.415 62.1532 62.1849 52.7934C65.4262 46.4316 67.3404 39.6452 68.4384 32.6051C69.1676 27.8484 69.5197 23.041 69.4914 18.2282C69.4914 17.1037 69.3916 15.9792 69.3877 14.8547C69.3877 14.3376 69.2292 14.143 68.6948 14.0683C63.9434 13.4531 59.2797 12.2834 54.7981 10.5827C49.7373 8.71319 44.9468 6.17513 40.553 3.03543C40.1616 2.75037 39.9052 2.69926 39.4785 3.00398C32.1152 8.25697 23.9651 11.6679 15.124 13.4431C13.8244 13.7046 12.5091 13.8953 11.1957 14.0821C10.7788 14.141 10.6086 14.2924 10.6086 14.723C10.6438 18.0159 10.6634 21.3108 10.6947 24.6038C10.6947 25.0481 10.7632 25.4924 10.7573 25.9367C10.7573 26.7113 10.2563 27.2421 9.58295 27.2381C8.95074 27.2381 8.49078 26.7545 8.41836 25.9996C8.37726 25.5828 8.33616 25.1641 8.33616 24.7473C8.33616 20.9314 8.33616 17.1175 8.38313 13.3016C8.39488 12.3284 8.77458 12.008 9.72387 11.9018C18.363 10.9348 26.6963 8.12285 34.1644 3.6547C35.8183 2.67173 37.3822 1.53542 38.9676 0.438429C39.7975 -0.13366 40.1635 -0.176913 40.9249 0.399107C47.5503 5.35524 54.9234 8.70324 62.9424 10.6043C65.2911 11.1607 67.6947 11.487 70.0806 11.8763C71.2197 12.0729 71.4977 12.2813 71.6014 13.4589C71.9752 17.7446 71.8656 22.0303 71.5172 26.3102C71.0808 31.6615 70.2978 36.9617 68.7457 42.1065C67.8649 45.0259 66.7356 47.8667 65.7158 50.7429C65.6141 51.0339 65.4849 51.315 65.3753 51.5843C66.7454 52.4513 68.1037 53.2279 69.3701 54.14C70.4055 54.8773 71.345 55.7541 72.306 56.5935C72.8736 57.089 72.9441 57.6905 72.58 58.3629C72.216 59.0352 71.8558 59.739 71.4585 60.5117C71.6973 60.6847 71.9146 60.8577 72.1455 61.011C74.3514 62.4953 76.5651 63.9599 78.7592 65.4678C79.188 65.7957 79.5966 66.1495 79.9825 66.5274L80.0001 67.1546ZM15.3804 53.7744C13.7559 54.9146 12.0217 56.1335 10.2739 57.3504C9.81586 57.6669 9.80803 57.9579 10.0781 58.4474C11.6577 61.414 13.1961 64.4042 14.7521 67.3846C14.8656 67.6008 15.0066 67.8033 15.0438 67.8623L22.135 63.8891L15.3804 53.7744ZM57.8534 63.8872L64.9819 67.8761C66.6827 64.6106 68.4482 61.2273 70.3076 57.6532L64.5943 53.8019C62.2593 57.3131 60.0339 60.6394 57.8632 63.8872H57.8534ZM17.9816 71.7391C16.8464 71.5425 15.9285 71.3636 15.0046 71.2398C14.6947 71.2135 14.3973 71.1045 14.1434 70.9241C13.8894 70.7437 13.6881 70.4984 13.5601 70.2136C12.3858 67.9134 11.184 65.631 9.98811 63.3446C9.87263 63.1244 9.73757 62.9121 9.59665 62.6585L3.42143 66.8086C5.00291 67.6834 6.46304 68.5779 8.00146 69.3171C9.15038 69.8636 9.61426 70.6009 9.53206 71.8728C9.42832 73.4456 9.50661 75.0341 9.50661 76.7543L17.9816 71.7391ZM70.4838 76.7661C70.4838 74.9338 70.5327 73.2608 70.4662 71.5917C70.4251 70.5694 70.7793 69.9482 71.6993 69.4862C73.316 68.6703 74.8798 67.7444 76.569 66.8086L70.382 62.6506C70.2215 62.9416 70.0923 63.1657 69.9729 63.3937C68.8162 65.6133 67.6399 67.821 66.5125 70.0563C66.1484 70.7798 65.6708 71.1769 64.8507 71.2614C63.9621 71.3519 63.0892 71.5583 62.0225 71.749L70.4838 76.7661ZM18.7235 68.3794L17.4688 69.2797L19.2852 69.5412L18.7235 68.3794ZM61.2591 68.3892L60.6915 69.5687L62.549 69.2542L61.2591 68.3892Z" fill="#F7CA18"/>
<path d="M15.6095 24.0592C15.6095 22.4864 15.586 20.9137 15.6193 19.3547C15.6388 18.3304 15.9951 17.9785 17.0344 17.8547C24.2186 17.0057 31.1091 14.4957 37.165 10.5217C37.7972 10.1108 38.4157 9.67046 39.0088 9.20257C39.686 8.66783 40.2947 8.69535 40.9837 9.20257C45.4849 12.5621 50.5847 15.0251 56.0078 16.4588C58.3115 17.0742 60.6916 17.4104 63.0403 17.8468C63.9602 18.0159 64.3497 18.3521 64.3634 19.28C64.3987 21.8907 64.413 24.5028 64.4065 27.1162C64.4065 28.1129 63.927 28.6025 63.1538 28.5474C62.4375 28.4983 62.0675 27.9576 62.0773 27.0081C62.0989 24.9694 62.0989 22.9307 62.1204 20.892C62.1204 20.3573 62.0088 20.0899 61.3707 19.9975C53.7569 18.8868 46.7596 16.1758 40.4435 11.7406C40.1166 11.5106 39.8993 11.487 39.5607 11.7268C33.6086 15.9182 27.0185 18.5545 19.8724 19.8167C19.7961 19.8304 19.7198 19.8501 19.6434 19.8619C17.8427 20.145 17.8427 20.145 17.8153 21.9635C17.7175 28.7499 18.4456 35.4262 20.4537 41.9296C21.7084 45.9912 23.4406 49.8346 25.8421 53.3556C25.9889 53.5699 26.1455 53.7802 26.2747 54.0063C26.6407 54.6492 26.5331 55.3196 25.985 55.6617C25.3724 56.0548 24.7891 55.8976 24.3996 55.3451C23.6657 54.3012 22.9454 53.2376 22.3151 52.1289C18.8586 46.0541 16.9169 39.48 16.0792 32.5678C15.7387 29.7427 15.5762 26.896 15.3335 24.0611L15.6095 24.0592Z" fill="#F7CA18"/>
<path d="M36.9319 38.7683C37.1108 38.4939 37.3069 38.2313 37.5191 37.982C40.7173 34.7598 43.9077 31.5298 47.1294 28.3312C49.3176 26.1686 52.6098 26.6365 53.8663 29.3004C54.5455 30.7316 54.4105 32.1471 53.5101 33.4583C53.264 33.7957 52.9876 34.1097 52.6841 34.3961C48.5086 38.598 44.3331 42.7959 40.1575 46.9899C38.0045 49.1524 35.7086 49.1407 33.5478 46.9722C31.5044 44.9198 29.4375 42.8831 27.4254 40.807C25.288 38.613 25.8126 35.3142 28.4667 34.0481C30.0325 33.2971 31.8293 33.6294 33.1974 34.976C34.4012 36.1635 35.5736 37.3883 36.9319 38.7683ZM30.5394 36.0416C29.416 36.0259 28.7603 36.5154 28.5273 37.2919C28.2709 38.1392 28.6722 38.7526 29.232 39.3149L35.2017 45.3051C36.4289 46.5377 37.2842 46.5377 38.5154 45.3051C42.6805 41.1255 46.8436 36.9453 51.0048 32.7644C52.0695 31.6969 52.2163 30.6195 51.4119 29.8312C50.6075 29.0428 49.5897 29.1824 48.4916 30.2853C44.992 33.8004 41.4924 37.3149 37.9928 40.8287C37.1355 41.6878 36.5855 41.6897 35.738 40.8444C34.3875 39.4997 33.0643 38.1275 31.6923 36.8063C31.3008 36.421 30.7724 36.191 30.5394 36.0416Z" fill="#F7CA18"/>
<path d="M63.9266 32.6857C63.038 39.3699 61.2333 45.9578 57.7572 52.005C55.518 55.9764 52.5335 59.4741 48.969 62.3046C46.423 64.3013 43.6078 65.925 40.6075 67.1271C40.1716 67.2724 39.6989 67.2606 39.2707 67.0936C34.9522 65.3685 31.0397 62.7571 27.7834 59.4265C27.1199 58.7463 27.0494 58.1073 27.5661 57.5706C28.0828 57.0339 28.7816 57.1086 29.4197 57.7554C32.2528 60.6577 35.6248 62.974 39.345 64.5733C39.762 64.7346 40.2238 64.7346 40.6408 64.5733C48.3779 61.1467 53.7937 55.3707 57.3481 47.7507C59.5853 42.9519 60.838 37.8699 61.5602 32.6425C61.5764 32.4867 61.6006 32.3318 61.6326 32.1785C61.8283 31.3587 62.2863 30.9715 62.9734 31.0599C63.6604 31.1484 63.9931 31.6517 63.9266 32.6857Z" fill="#F7CA18"/>
</g>
<defs>
<clipPath id="clip0_86_555">
<rect width="80" height="80" fill="white"/>
</clipPath>
</defs>
</svg>
