<svg width="24" height="24" viewBox="0 0 24 24" fill="none" xmlns="http://www.w3.org/2000/svg">
<path d="M16.1304 13.7306L16.1236 13.7868C14.4744 12.9648 14.3019 12.8553 14.0889 13.1748C13.9411 13.3961 13.5106 13.8978 13.3809 14.0463C13.2496 14.1926 13.1191 14.2038 12.8964 14.1026C12.6714 13.9901 11.9491 13.7538 11.0941 12.9888C10.4281 12.3926 9.9811 11.6613 9.8491 11.4363C9.62935 11.0568 10.0891 11.0028 10.5076 10.2108C10.5826 10.0533 10.5444 9.92956 10.4889 9.81781C10.4326 9.70531 9.98485 8.60281 9.79735 8.16331C9.61735 7.72531 9.4321 7.78081 9.29335 7.78081C8.86135 7.74331 8.5456 7.74931 8.26735 8.03881C7.05685 9.36931 7.3621 10.7418 8.39785 12.2013C10.4334 14.8653 11.5179 15.3558 13.5009 16.0368C14.0364 16.2071 14.5246 16.1831 14.9109 16.1276C15.3414 16.0593 16.2361 15.5868 16.4229 15.0581C16.6141 14.5293 16.6141 14.0906 16.5579 13.9893C16.5024 13.8881 16.3554 13.8318 16.1304 13.7306V13.7306Z" fill="white"/>
<path d="M18.39 5.58707C12.6233 0.0123242 3.0795 4.05557 3.07575 11.9201C3.07575 13.4921 3.4875 15.0251 4.272 16.3788L3 21.0003L7.75125 19.7613C13.68 22.9638 20.997 18.7113 21 11.9246C21 9.54257 20.07 7.30082 18.3787 5.61632L18.39 5.58707ZM19.5015 11.8998C19.497 17.6246 13.2127 21.1998 8.2425 18.2778L7.9725 18.1173L5.16 18.8486L5.91375 16.1148L5.7345 15.8336C2.6415 10.9098 6.195 4.47482 12.054 4.47482C14.0445 4.47482 15.9128 5.25107 17.3198 6.65732C18.726 8.05157 19.5015 9.91982 19.5015 11.8998V11.8998Z" fill="white"/>
</svg>
